%TF.GenerationSoftware,KiCad,Pcbnew,9.0.0-9.0.0-2~ubuntu22.04.1*%
%TF.CreationDate,2025-03-12T10:46:36+01:00*%
%TF.ProjectId,nano_drone,6e616e6f-5f64-4726-9f6e-652e6b696361,rev?*%
%TF.SameCoordinates,Original*%
%TF.FileFunction,Copper,L2,Bot*%
%TF.FilePolarity,Positive*%
%FSLAX46Y46*%
G04 Gerber Fmt 4.6, Leading zero omitted, Abs format (unit mm)*
G04 Created by KiCad (PCBNEW 9.0.0-9.0.0-2~ubuntu22.04.1) date 2025-03-12 10:46:36*
%MOMM*%
%LPD*%
G01*
G04 APERTURE LIST*
G04 Aperture macros list*
%AMRotRect*
0 Rectangle, with rotation*
0 The origin of the aperture is its center*
0 $1 length*
0 $2 width*
0 $3 Rotation angle, in degrees counterclockwise*
0 Add horizontal line*
21,1,$1,$2,0,0,$3*%
G04 Aperture macros list end*
%TA.AperFunction,Conductor*%
%ADD10C,0.200000*%
%TD*%
%TA.AperFunction,HeatsinkPad*%
%ADD11C,0.600000*%
%TD*%
%TA.AperFunction,ComponentPad*%
%ADD12C,1.400000*%
%TD*%
%TA.AperFunction,ComponentPad*%
%ADD13C,1.800000*%
%TD*%
%TA.AperFunction,ComponentPad*%
%ADD14R,1.700000X1.700000*%
%TD*%
%TA.AperFunction,ComponentPad*%
%ADD15O,1.700000X1.700000*%
%TD*%
%TA.AperFunction,ComponentPad*%
%ADD16C,2.000000*%
%TD*%
%TA.AperFunction,SMDPad,CuDef*%
%ADD17RotRect,2.000000X2.000000X135.000000*%
%TD*%
%TA.AperFunction,SMDPad,CuDef*%
%ADD18O,1.000000X1.000000*%
%TD*%
%TA.AperFunction,SMDPad,CuDef*%
%ADD19RotRect,2.000000X2.000000X225.000000*%
%TD*%
%TA.AperFunction,ViaPad*%
%ADD20C,0.600000*%
%TD*%
%TA.AperFunction,ViaPad*%
%ADD21C,0.800000*%
%TD*%
%TA.AperFunction,Conductor*%
%ADD22C,0.400000*%
%TD*%
G04 APERTURE END LIST*
D10*
%TO.N,VDD_3v7*%
X146244360Y-104346071D02*
X146244360Y-106146071D01*
X143664360Y-104386071D02*
X143664360Y-106256071D01*
X141184360Y-105956071D02*
X141184360Y-104476071D01*
X156374360Y-104196071D02*
X156384360Y-104006071D01*
X159534360Y-85071071D02*
X160234360Y-85571071D01*
X138554360Y-104586071D02*
X138554360Y-105906071D01*
X156354360Y-106056071D02*
X156194360Y-106386071D01*
X148794360Y-104506071D02*
X148794360Y-106086071D01*
%TD*%
D11*
%TO.P,U1,39,GND*%
%TO.N,GND*%
X146388038Y-91286393D03*
X146388038Y-92686393D03*
X147088038Y-90586393D03*
X147088038Y-91986393D03*
X147088038Y-93386393D03*
X147763038Y-91286393D03*
X147763038Y-92686393D03*
X148488038Y-90586393D03*
X148488038Y-91986393D03*
X148488038Y-93386393D03*
X149188038Y-91286393D03*
X149188038Y-92686393D03*
%TD*%
D12*
%TO.P,JP2,1,A*%
%TO.N,GND*%
X160588038Y-84296393D03*
%TO.P,JP2,2,B*%
%TO.N,Net-(JP2-B)*%
X163128038Y-84296393D03*
%TD*%
%TO.P,JP1,1,A*%
%TO.N,GND*%
X135588038Y-86896393D03*
%TO.P,JP1,2,B*%
%TO.N,Net-(JP1-B)*%
X138128038Y-86896393D03*
%TD*%
D13*
%TO.P,H4,1,1*%
%TO.N,RX0*%
X161638038Y-91696393D03*
%TD*%
%TO.P,H3,1,1*%
%TO.N,TX0*%
X161638038Y-88596393D03*
%TD*%
D14*
%TO.P,J1,1,Pin_1*%
%TO.N,unconnected-(J1-Pin_1-Pad1)*%
X157694360Y-105236071D03*
D15*
%TO.P,J1,2,Pin_2*%
%TO.N,+3v3*%
X155154360Y-105236071D03*
%TO.P,J1,3,Pin_3*%
%TO.N,GND*%
X152614360Y-105236071D03*
%TO.P,J1,4,Pin_4*%
%TO.N,SPI0_CLK*%
X150074360Y-105236071D03*
%TO.P,J1,5,Pin_5*%
%TO.N,SPI0_MOSI*%
X147534360Y-105236071D03*
%TO.P,J1,6,Pin_6*%
%TO.N,SPI0_MISO*%
X144994360Y-105236071D03*
%TO.P,J1,7,Pin_7*%
%TO.N,SPI0_CS0_M*%
X142454360Y-105236071D03*
%TO.P,J1,8,Pin_8*%
%TO.N,SPI0_CS1_B*%
X139914360Y-105236071D03*
%TD*%
D16*
%TO.P,H2,1,1*%
%TO.N,VDD_3v7*%
X146038038Y-116846393D03*
%TD*%
%TO.P,H1,1,1*%
%TO.N,GND*%
X150488038Y-116846393D03*
%TD*%
D17*
%TO.P,TP8,1,1*%
%TO.N,Net-(D2-A)*%
X124209360Y-79221071D03*
%TD*%
%TO.P,TP11,1,1*%
%TO.N,Net-(D5-A)*%
X128138038Y-125096393D03*
%TD*%
%TO.P,TP14,1,1*%
%TO.N,VDD_3v7*%
X124759360Y-121971071D03*
%TD*%
%TO.P,TP9,1,1*%
%TO.N,Net-(D3-A)*%
X170238038Y-75596393D03*
%TD*%
D18*
%TO.P,REF\u002A\u002A,1*%
%TO.N,SPI0_MISO*%
X146894360Y-96316071D03*
%TD*%
%TO.P,REF\u002A\u002A,1*%
%TO.N,SPI0_MOSI*%
X149224360Y-96306071D03*
%TD*%
D17*
%TO.P,TP7,1,1*%
%TO.N,VDD_3v7*%
X127784360Y-75696071D03*
%TD*%
D18*
%TO.P,REF\u002A\u002A,1*%
%TO.N,SPI0_CS2*%
X144584360Y-96296071D03*
%TD*%
D19*
%TO.P,TP10,1,1*%
%TO.N,Net-(D4-A)*%
X173538038Y-121396393D03*
%TD*%
D17*
%TO.P,TP13,1,1*%
%TO.N,VDD_3v7*%
X170159360Y-124596071D03*
%TD*%
D18*
%TO.P,REF\u002A\u002A,1*%
%TO.N,SPI0_CLK*%
X151594360Y-96296071D03*
%TD*%
D19*
%TO.P,TP12,1,1*%
%TO.N,VDD_3v7*%
X173534360Y-78871071D03*
%TD*%
D20*
%TO.N,+3v3*%
X155144360Y-99796071D03*
X144244360Y-99836071D03*
X139238038Y-85596393D03*
X138838038Y-88196393D03*
%TO.N,SPI0_CS0_M*%
X156634360Y-97926071D03*
X153774360Y-103306071D03*
D21*
%TO.N,Net-(D2-A)*%
X125409360Y-80396071D03*
%TO.N,Net-(D3-A)*%
X169138038Y-76696393D03*
%TO.N,Net-(D4-A)*%
X172738038Y-120196393D03*
%TO.N,Net-(D5-A)*%
X129438038Y-123896393D03*
D20*
%TO.N,VDD_3v7*%
X135284360Y-91296393D03*
D21*
X134309360Y-83921071D03*
X133109360Y-114546071D03*
X138738038Y-112796393D03*
X162959360Y-116046071D03*
X141438038Y-112796393D03*
X166284360Y-84896071D03*
D20*
%TO.N,PWM1*%
X136859360Y-82446071D03*
X141638038Y-98196393D03*
%TO.N,PWM2*%
X145238038Y-85996393D03*
X150054360Y-85996393D03*
X154388038Y-85996393D03*
X159438038Y-85996393D03*
%TO.N,PWM3*%
X160164360Y-116796071D03*
X159424360Y-99486071D03*
%TO.N,PWM4*%
X131438038Y-112196393D03*
X139244360Y-102176071D03*
%TO.N,I2C0_SCL*%
X159438038Y-86796393D03*
X159438038Y-97596393D03*
%TO.N,SPI0_CLK*%
X151584360Y-99096071D03*
%TO.N,SPI0_MOSI*%
X149204360Y-97706071D03*
%TO.N,SPI0_MISO*%
X146894360Y-98446071D03*
%TO.N,SPI0_CS2*%
X142209360Y-96296071D03*
%TO.N,Net-(JP2-B)*%
X160038038Y-100696393D03*
%TD*%
D22*
%TO.N,+3v3*%
X139838038Y-86196393D02*
X139838038Y-86396393D01*
D10*
X138838038Y-88196393D02*
X139838038Y-88196393D01*
D22*
X144244360Y-99796071D02*
X144254360Y-99806071D01*
X139838038Y-88196393D02*
X139838038Y-86396393D01*
X139638038Y-85996393D02*
X139238038Y-85596393D01*
X140264360Y-99836071D02*
X139838038Y-99409749D01*
X139238038Y-85596393D02*
X139838038Y-86196393D01*
X155154360Y-105236071D02*
X155154360Y-99806071D01*
X144244360Y-99836071D02*
X140264360Y-99836071D01*
X139838038Y-99409749D02*
X139838038Y-88196393D01*
D10*
X155154360Y-99806071D02*
X155144360Y-99796071D01*
%TO.N,SPI0_CS0_M*%
X156634360Y-97926071D02*
X156024360Y-97926071D01*
X153774360Y-100786071D02*
X153774360Y-103306071D01*
X156024360Y-97926071D02*
X155934360Y-98016071D01*
X153774360Y-100176071D02*
X155934360Y-98016071D01*
X153774360Y-103306071D02*
X153774360Y-100176071D01*
%TO.N,Net-(D2-A)*%
X124209360Y-79221071D02*
X124234360Y-79221071D01*
D22*
X124234360Y-79221071D02*
X125409360Y-80396071D01*
%TO.N,Net-(D3-A)*%
X169138038Y-76696393D02*
X170238038Y-75596393D01*
%TO.N,Net-(D4-A)*%
X173538038Y-120996393D02*
X173538038Y-121396393D01*
X172738038Y-120196393D02*
X173538038Y-120996393D01*
%TO.N,Net-(D5-A)*%
X128038038Y-125296393D02*
X129438038Y-123896393D01*
D10*
X127838038Y-125296393D02*
X128038038Y-125296393D01*
%TO.N,VDD_3v7*%
X156384360Y-106056071D02*
X156384360Y-104226071D01*
X153854360Y-104606071D02*
X153014360Y-103766071D01*
X153854360Y-106046071D02*
X153854360Y-104606071D01*
X151324360Y-104436071D02*
X151324360Y-106106071D01*
%TO.N,PWM1*%
X136859360Y-82446071D02*
X136936245Y-82446071D01*
X136936245Y-82446071D02*
X140638038Y-86147864D01*
X140638038Y-97796393D02*
X140638038Y-89546071D01*
X140638038Y-86147864D02*
X140638038Y-89546071D01*
X141038038Y-98196393D02*
X140638038Y-97796393D01*
X141638038Y-98196393D02*
X141038038Y-98196393D01*
%TO.N,PWM2*%
X145238038Y-85996393D02*
X150054360Y-85996393D01*
X159438038Y-85996393D02*
X154388038Y-85996393D01*
%TO.N,PWM3*%
X159424360Y-102726071D02*
X160154360Y-103456071D01*
X159424360Y-99486071D02*
X159424360Y-102726071D01*
X160154360Y-103456071D02*
X160154360Y-116776071D01*
X160154360Y-116776071D02*
X160144360Y-116786071D01*
%TO.N,PWM4*%
X137806360Y-103614071D02*
X139244360Y-102176071D01*
X131438038Y-112196393D02*
X137806360Y-105828071D01*
X137806360Y-105828071D02*
X137806360Y-103614071D01*
%TO.N,I2C0_SCL*%
X159438038Y-86796393D02*
X159438038Y-97596393D01*
%TO.N,SPI0_CLK*%
X151594360Y-96296071D02*
X151594360Y-99086071D01*
X151594360Y-99086071D02*
X151584360Y-99096071D01*
X150074360Y-105236071D02*
X150074360Y-100896071D01*
X151574360Y-99096071D02*
X150074360Y-100596071D01*
X151584360Y-99096071D02*
X151574360Y-99096071D01*
X151594360Y-96296071D02*
X151594360Y-97136071D01*
X150074360Y-100896071D02*
X150074360Y-100596071D01*
%TO.N,SPI0_MOSI*%
X149224360Y-97686071D02*
X149204360Y-97706071D01*
X147534360Y-100586071D02*
X147534360Y-105236071D01*
X149204360Y-97706071D02*
X149204360Y-98916071D01*
X149204360Y-98916071D02*
X147534360Y-100586071D01*
X149224360Y-96306071D02*
X149224360Y-97686071D01*
%TO.N,SPI0_MISO*%
X146894360Y-98446071D02*
X144994360Y-100346071D01*
X144994360Y-100346071D02*
X144994360Y-105236071D01*
X146894360Y-96316071D02*
X146894360Y-98446071D01*
%TO.N,SPI0_CS2*%
X142209360Y-96296071D02*
X144634360Y-96296071D01*
%TO.N,Net-(JP2-B)*%
X162612360Y-86018071D02*
X161406360Y-86018071D01*
X160038038Y-87386393D02*
X160038038Y-100696393D01*
X163128038Y-85502393D02*
X162612360Y-86018071D01*
X163128038Y-84296393D02*
X163128038Y-85502393D01*
X161406360Y-86018071D02*
X160038038Y-87386393D01*
%TD*%
%TA.AperFunction,Conductor*%
%TO.N,GND*%
G36*
X150731077Y-89516078D02*
G01*
X150776832Y-89568882D01*
X150788038Y-89620393D01*
X150788038Y-94372393D01*
X150768353Y-94439432D01*
X150715549Y-94485187D01*
X150664038Y-94496393D01*
X145212038Y-94496393D01*
X145144999Y-94476708D01*
X145099244Y-94423904D01*
X145088038Y-94372393D01*
X145088038Y-89620393D01*
X145107723Y-89553354D01*
X145160527Y-89507599D01*
X145212038Y-89496393D01*
X150664038Y-89496393D01*
X150731077Y-89516078D01*
G37*
%TD.AperFunction*%
%TD*%
%TA.AperFunction,Conductor*%
%TO.N,VDD_3v7*%
G36*
X160301952Y-85467111D02*
G01*
X160302173Y-85466194D01*
X160306619Y-85467261D01*
X160306706Y-85467264D01*
X160306907Y-85467328D01*
X160306920Y-85467333D01*
X160381308Y-85479114D01*
X160493552Y-85496893D01*
X160493557Y-85496893D01*
X160682523Y-85496893D01*
X160755324Y-85485361D01*
X160775849Y-85482111D01*
X160845143Y-85491065D01*
X160898595Y-85536061D01*
X160919235Y-85602813D01*
X160900511Y-85670126D01*
X160882929Y-85692265D01*
X160450219Y-86124975D01*
X160388896Y-86158460D01*
X160319204Y-86153476D01*
X160263271Y-86111604D01*
X160238854Y-86046140D01*
X160238538Y-86037294D01*
X160238538Y-85917548D01*
X160238537Y-85917546D01*
X160229006Y-85869633D01*
X160207775Y-85762896D01*
X160153823Y-85632645D01*
X160146355Y-85563177D01*
X160177630Y-85500698D01*
X160237719Y-85465046D01*
X160301952Y-85467111D01*
G37*
%TD.AperFunction*%
%TA.AperFunction,Conductor*%
G36*
X154241367Y-104057546D02*
G01*
X154277019Y-104117635D01*
X154274525Y-104187460D01*
X154244553Y-104235982D01*
X154124249Y-104356286D01*
X153999309Y-104528253D01*
X153994844Y-104537017D01*
X153946869Y-104587813D01*
X153879048Y-104604607D01*
X153812913Y-104582069D01*
X153773876Y-104537017D01*
X153769410Y-104528253D01*
X153644469Y-104356284D01*
X153606437Y-104318252D01*
X153572952Y-104256929D01*
X153577936Y-104187237D01*
X153619808Y-104131304D01*
X153685272Y-104106887D01*
X153694118Y-104106571D01*
X153853204Y-104106571D01*
X153853205Y-104106570D01*
X154007857Y-104075808D01*
X154109419Y-104033739D01*
X154178888Y-104026271D01*
X154241367Y-104057546D01*
G37*
%TD.AperFunction*%
%TA.AperFunction,Conductor*%
G36*
X176571290Y-67773870D02*
G01*
X176581999Y-67774361D01*
X177016190Y-67813154D01*
X177026785Y-67814565D01*
X177456008Y-67890734D01*
X177466444Y-67893056D01*
X177887484Y-68006033D01*
X177897684Y-68009249D01*
X178307376Y-68158184D01*
X178317275Y-68162276D01*
X178712550Y-68346052D01*
X178722063Y-68350986D01*
X179085165Y-68559716D01*
X179099971Y-68568227D01*
X179109030Y-68573969D01*
X179466756Y-68823059D01*
X179475285Y-68829563D01*
X179810146Y-69108631D01*
X179818081Y-69115848D01*
X179833508Y-69131149D01*
X180115782Y-69411115D01*
X180127571Y-69422807D01*
X180134852Y-69430682D01*
X180416661Y-69763242D01*
X180423234Y-69771717D01*
X180675243Y-70127373D01*
X180681060Y-70136384D01*
X180901400Y-70512501D01*
X180906416Y-70521981D01*
X181093424Y-70915721D01*
X181097603Y-70925600D01*
X181249893Y-71334047D01*
X181253201Y-71344248D01*
X181330986Y-71624904D01*
X181353762Y-71707084D01*
X181369621Y-71764303D01*
X181372036Y-71774754D01*
X181451721Y-72203307D01*
X181453224Y-72213927D01*
X181495577Y-72647761D01*
X181496157Y-72658470D01*
X181500863Y-73094349D01*
X181500515Y-73105070D01*
X181467535Y-73539730D01*
X181466261Y-73550379D01*
X181395848Y-73980537D01*
X181393660Y-73991037D01*
X181286332Y-74413528D01*
X181283244Y-74423800D01*
X181139810Y-74835425D01*
X181135846Y-74845390D01*
X180957378Y-75243083D01*
X180952568Y-75252669D01*
X180902816Y-75341961D01*
X180770538Y-75579366D01*
X180740409Y-75633439D01*
X180734788Y-75642575D01*
X180490502Y-76003608D01*
X180484112Y-76012222D01*
X180209553Y-76350780D01*
X180202444Y-76358811D01*
X179899651Y-76672381D01*
X179891874Y-76679767D01*
X179563116Y-76965999D01*
X179554730Y-76972685D01*
X179202471Y-77229434D01*
X179193538Y-77235371D01*
X178820412Y-77460717D01*
X178811000Y-77465860D01*
X178419785Y-77658126D01*
X178409963Y-77662436D01*
X178003009Y-77820402D01*
X177999812Y-77821592D01*
X177995827Y-77823014D01*
X177993986Y-77823655D01*
X177936189Y-77843260D01*
X177935059Y-77843817D01*
X177934526Y-77844042D01*
X177933522Y-77844556D01*
X177933523Y-77844557D01*
X177930288Y-77846215D01*
X177929163Y-77846791D01*
X177878901Y-77881501D01*
X177877307Y-77882583D01*
X177826605Y-77916444D01*
X177825634Y-77917296D01*
X177825622Y-77917306D01*
X177822985Y-77919616D01*
X177822965Y-77919634D01*
X177822084Y-77920405D01*
X177821673Y-77920823D01*
X177820726Y-77921679D01*
X177781184Y-77968186D01*
X177780589Y-77968888D01*
X177739687Y-78015506D01*
X177737929Y-78019065D01*
X177730379Y-78027947D01*
X177730376Y-78027948D01*
X165936507Y-91900147D01*
X165920324Y-91915989D01*
X165913650Y-91921422D01*
X165913645Y-91921427D01*
X165889472Y-91954873D01*
X165889473Y-91954874D01*
X165886604Y-91958842D01*
X165856714Y-91994003D01*
X165848156Y-92012047D01*
X165841493Y-92021268D01*
X165841491Y-92021268D01*
X165836460Y-92028231D01*
X165836456Y-92028240D01*
X165821765Y-92066802D01*
X165817932Y-92075782D01*
X165800250Y-92113072D01*
X165800245Y-92113086D01*
X165798699Y-92121534D01*
X165798700Y-92121535D01*
X165796652Y-92132724D01*
X165789542Y-92151390D01*
X165784833Y-92197312D01*
X165783954Y-92202116D01*
X165783953Y-92202117D01*
X165776525Y-92242710D01*
X165776525Y-92242713D01*
X165777219Y-92251285D01*
X165776978Y-92273916D01*
X165776100Y-92282487D01*
X165783437Y-92328063D01*
X165787162Y-92374064D01*
X165793870Y-92392872D01*
X165795678Y-92404101D01*
X165795679Y-92404103D01*
X165797046Y-92412597D01*
X165813928Y-92450255D01*
X165814687Y-92451983D01*
X165816242Y-92455598D01*
X165831433Y-92498189D01*
X165839726Y-92510197D01*
X165844599Y-92521525D01*
X165844625Y-92521747D01*
X165844926Y-92522294D01*
X166139663Y-93220446D01*
X166141670Y-93225506D01*
X166423279Y-93983840D01*
X166425061Y-93988983D01*
X166673110Y-94758922D01*
X166674665Y-94764139D01*
X166888680Y-95544211D01*
X166890005Y-95549490D01*
X167069590Y-96338246D01*
X167070681Y-96343579D01*
X167215465Y-97139402D01*
X167216322Y-97144777D01*
X167326047Y-97946222D01*
X167326667Y-97951630D01*
X167401111Y-98757113D01*
X167401493Y-98762543D01*
X167440515Y-99570522D01*
X167440658Y-99575964D01*
X167444183Y-100384871D01*
X167444087Y-100390313D01*
X167412109Y-101198576D01*
X167411775Y-101204009D01*
X167344351Y-102010129D01*
X167343778Y-102015542D01*
X167241044Y-102817904D01*
X167240234Y-102823287D01*
X167102387Y-103620360D01*
X167101342Y-103625702D01*
X166928646Y-104415956D01*
X166927368Y-104421247D01*
X166720150Y-105203191D01*
X166718640Y-105208421D01*
X166477308Y-105980499D01*
X166475570Y-105985657D01*
X166200597Y-106746374D01*
X166198635Y-106751452D01*
X165890527Y-107499401D01*
X165888344Y-107504387D01*
X165563863Y-108203295D01*
X165563311Y-108204469D01*
X165559202Y-108213080D01*
X165545209Y-108233593D01*
X165533578Y-108266794D01*
X165530686Y-108272859D01*
X165530527Y-108273035D01*
X165530068Y-108274133D01*
X165517514Y-108299693D01*
X165517511Y-108299701D01*
X165513359Y-108320737D01*
X165513360Y-108320738D01*
X165511650Y-108329402D01*
X165501646Y-108357969D01*
X165498952Y-108393760D01*
X165497514Y-108401051D01*
X165492003Y-108428985D01*
X165492002Y-108428991D01*
X165493438Y-108450389D01*
X165493877Y-108456939D01*
X165494029Y-108459194D01*
X165491758Y-108489382D01*
X165498418Y-108524646D01*
X165498916Y-108532060D01*
X165498917Y-108532065D01*
X165500823Y-108560478D01*
X165505732Y-108574865D01*
X165510600Y-108589133D01*
X165516219Y-108618876D01*
X165531780Y-108651214D01*
X165534177Y-108658239D01*
X165534181Y-108658247D01*
X165543378Y-108685203D01*
X165555324Y-108703023D01*
X165564058Y-108718294D01*
X165573362Y-108737627D01*
X165596772Y-108764846D01*
X165616762Y-108794664D01*
X165639551Y-108814587D01*
X165645309Y-108821282D01*
X177690214Y-122826285D01*
X177704056Y-122845958D01*
X177706546Y-122850348D01*
X177737992Y-122882272D01*
X177737993Y-122882272D01*
X177740929Y-122885253D01*
X177772862Y-122922383D01*
X177787007Y-122932033D01*
X177795482Y-122940637D01*
X177799025Y-122944234D01*
X177799030Y-122944238D01*
X177815589Y-122953965D01*
X177841261Y-122969047D01*
X177881724Y-122996653D01*
X177897884Y-123002313D01*
X177912652Y-123010989D01*
X177955830Y-123022907D01*
X177959595Y-123024012D01*
X177961738Y-123024677D01*
X178006100Y-123040216D01*
X178013602Y-123040780D01*
X178027038Y-123044952D01*
X178027379Y-123045178D01*
X178028355Y-123045370D01*
X178396711Y-123164273D01*
X178406664Y-123167964D01*
X178809132Y-123337171D01*
X178818734Y-123341701D01*
X179062660Y-123469852D01*
X179205240Y-123544759D01*
X179214430Y-123550102D01*
X179582117Y-123785512D01*
X179590805Y-123791615D01*
X179936991Y-124057661D01*
X179945114Y-124064476D01*
X180133486Y-124236819D01*
X180267228Y-124359180D01*
X180274756Y-124366684D01*
X180570447Y-124687892D01*
X180577305Y-124696015D01*
X180844407Y-125041378D01*
X180850543Y-125050057D01*
X181087071Y-125417002D01*
X181092442Y-125426175D01*
X181296681Y-125812046D01*
X181301246Y-125821645D01*
X181471684Y-126223582D01*
X181475411Y-126233538D01*
X181610800Y-126648601D01*
X181613660Y-126658838D01*
X181713003Y-127083968D01*
X181714976Y-127094413D01*
X181777544Y-127526494D01*
X181778615Y-127537070D01*
X181803948Y-127972921D01*
X181804109Y-127983550D01*
X181792020Y-128419956D01*
X181791271Y-128430559D01*
X181741849Y-128864346D01*
X181740194Y-128874846D01*
X181653804Y-129302793D01*
X181651256Y-129313113D01*
X181528528Y-129732103D01*
X181525105Y-129742166D01*
X181366954Y-130149078D01*
X181362683Y-130158812D01*
X181170249Y-130550713D01*
X181165159Y-130560045D01*
X180939873Y-130934017D01*
X180934002Y-130942879D01*
X180677522Y-131296172D01*
X180670914Y-131304498D01*
X180385107Y-131634538D01*
X180377811Y-131642268D01*
X180064798Y-131946609D01*
X180056866Y-131953686D01*
X179718933Y-132230105D01*
X179710424Y-132236476D01*
X179350051Y-132482942D01*
X179341028Y-132488561D01*
X178960890Y-132703246D01*
X178951419Y-132708072D01*
X178554276Y-132889418D01*
X178544427Y-132893415D01*
X178133208Y-133040084D01*
X178123051Y-133043222D01*
X177700793Y-133154129D01*
X177690406Y-133156386D01*
X177260206Y-133230720D01*
X177249664Y-133232080D01*
X176814658Y-133269298D01*
X176804038Y-133269749D01*
X176367455Y-133269576D01*
X176356834Y-133269116D01*
X175921868Y-133231550D01*
X175911327Y-133230182D01*
X175481184Y-133155504D01*
X175470799Y-133153239D01*
X175048620Y-133041993D01*
X175038466Y-133038846D01*
X174627378Y-132891854D01*
X174617532Y-132887850D01*
X174220529Y-132706184D01*
X174211062Y-132701350D01*
X173831087Y-132486357D01*
X173822076Y-132480736D01*
X173461903Y-132233985D01*
X173453399Y-132227607D01*
X173239175Y-132052093D01*
X173115680Y-131950913D01*
X173107757Y-131943833D01*
X172794981Y-131639235D01*
X172787691Y-131631500D01*
X172753531Y-131591989D01*
X172502146Y-131301229D01*
X172495562Y-131292918D01*
X172239348Y-130939397D01*
X172233485Y-130930531D01*
X172015783Y-130568496D01*
X172008499Y-130556383D01*
X172003418Y-130547048D01*
X171971991Y-130482917D01*
X171811304Y-130155008D01*
X171807040Y-130145271D01*
X171759313Y-130022181D01*
X171649877Y-129739943D01*
X171649016Y-129737655D01*
X171645962Y-129729270D01*
X171645054Y-129726686D01*
X171626118Y-129670857D01*
X171623642Y-129665834D01*
X171623636Y-129665823D01*
X171621030Y-129660819D01*
X171587228Y-129612570D01*
X171585667Y-129610289D01*
X171555711Y-129565435D01*
X171552927Y-129561266D01*
X171552923Y-129561262D01*
X171549207Y-129557022D01*
X171545422Y-129552894D01*
X171500273Y-129515026D01*
X171498179Y-129513229D01*
X171453867Y-129474352D01*
X171449161Y-129471205D01*
X171438399Y-129463132D01*
X171357440Y-129395231D01*
X169365335Y-127724427D01*
X172987538Y-127724427D01*
X172987538Y-128068358D01*
X173021248Y-128410642D01*
X173088346Y-128747965D01*
X173188188Y-129077099D01*
X173319808Y-129394857D01*
X173319810Y-129394862D01*
X173481931Y-129698168D01*
X173481942Y-129698186D01*
X173673013Y-129984144D01*
X173673023Y-129984158D01*
X173891214Y-130250025D01*
X174134405Y-130493216D01*
X174134410Y-130493220D01*
X174134411Y-130493221D01*
X174400278Y-130711412D01*
X174686251Y-130902493D01*
X174686260Y-130902498D01*
X174686262Y-130902499D01*
X174989568Y-131064620D01*
X174989570Y-131064620D01*
X174989576Y-131064624D01*
X175307333Y-131196243D01*
X175636460Y-131296083D01*
X175973788Y-131363182D01*
X176316069Y-131396893D01*
X176316072Y-131396893D01*
X176660004Y-131396893D01*
X176660007Y-131396893D01*
X177002288Y-131363182D01*
X177339616Y-131296083D01*
X177668743Y-131196243D01*
X177986500Y-131064624D01*
X178289825Y-130902493D01*
X178575798Y-130711412D01*
X178841665Y-130493221D01*
X179084866Y-130250020D01*
X179303057Y-129984153D01*
X179494138Y-129698180D01*
X179656269Y-129394855D01*
X179787888Y-129077098D01*
X179887728Y-128747971D01*
X179954827Y-128410643D01*
X179988538Y-128068362D01*
X179988538Y-127724424D01*
X179954827Y-127382143D01*
X179887728Y-127044815D01*
X179787888Y-126715688D01*
X179656269Y-126397931D01*
X179566967Y-126230860D01*
X179494144Y-126094617D01*
X179494143Y-126094615D01*
X179494138Y-126094606D01*
X179303057Y-125808633D01*
X179084866Y-125542766D01*
X179084865Y-125542765D01*
X179084861Y-125542760D01*
X178841670Y-125299569D01*
X178575803Y-125081378D01*
X178575802Y-125081377D01*
X178575798Y-125081374D01*
X178289825Y-124890293D01*
X178289820Y-124890290D01*
X178289813Y-124890286D01*
X177986507Y-124728165D01*
X177986502Y-124728163D01*
X177668744Y-124596543D01*
X177339610Y-124496701D01*
X177002286Y-124429603D01*
X177002287Y-124429603D01*
X176744494Y-124404214D01*
X176660007Y-124395893D01*
X176316069Y-124395893D01*
X176238004Y-124403581D01*
X175973788Y-124429603D01*
X175636465Y-124496701D01*
X175307331Y-124596543D01*
X174989573Y-124728163D01*
X174989568Y-124728165D01*
X174686262Y-124890286D01*
X174686244Y-124890297D01*
X174400286Y-125081368D01*
X174400272Y-125081378D01*
X174134405Y-125299569D01*
X173891214Y-125542760D01*
X173673023Y-125808627D01*
X173673013Y-125808641D01*
X173481942Y-126094599D01*
X173481931Y-126094617D01*
X173319810Y-126397923D01*
X173319808Y-126397928D01*
X173188188Y-126715686D01*
X173088346Y-127044820D01*
X173021248Y-127382143D01*
X172987538Y-127724427D01*
X169365335Y-127724427D01*
X167584551Y-126230860D01*
X167162826Y-125877154D01*
X167110787Y-125833508D01*
X169275477Y-125833508D01*
X169839627Y-126397658D01*
X169886262Y-126435238D01*
X170017041Y-126494964D01*
X170017046Y-126494965D01*
X170159360Y-126515425D01*
X170301673Y-126494965D01*
X170301678Y-126494964D01*
X170432457Y-126435238D01*
X170479092Y-126397658D01*
X170479096Y-126397654D01*
X171043243Y-125833508D01*
X170159360Y-124949625D01*
X169275477Y-125833508D01*
X167110787Y-125833508D01*
X166625122Y-125426175D01*
X165635386Y-124596071D01*
X168240005Y-124596071D01*
X168260465Y-124738384D01*
X168260466Y-124738389D01*
X168320192Y-124869168D01*
X168357772Y-124915803D01*
X168921923Y-125479954D01*
X169805806Y-124596071D01*
X170512914Y-124596071D01*
X171396797Y-125479954D01*
X171960943Y-124915807D01*
X171960947Y-124915803D01*
X171998527Y-124869168D01*
X172058253Y-124738389D01*
X172058254Y-124738384D01*
X172078714Y-124596071D01*
X172058254Y-124453757D01*
X172058253Y-124453752D01*
X171998527Y-124322973D01*
X171960947Y-124276338D01*
X171396797Y-123712188D01*
X170512914Y-124596071D01*
X169805806Y-124596071D01*
X168921923Y-123712188D01*
X168357776Y-124276334D01*
X168357772Y-124276338D01*
X168320192Y-124322973D01*
X168260466Y-124453752D01*
X168260465Y-124453757D01*
X168240005Y-124596071D01*
X165635386Y-124596071D01*
X164159986Y-123358634D01*
X169275477Y-123358634D01*
X170159360Y-124242517D01*
X171043243Y-123358634D01*
X170479092Y-122794483D01*
X170432457Y-122756903D01*
X170301678Y-122697177D01*
X170301673Y-122697176D01*
X170159360Y-122676716D01*
X170017046Y-122697176D01*
X170017041Y-122697177D01*
X169886262Y-122756903D01*
X169839627Y-122794483D01*
X169839623Y-122794487D01*
X169275477Y-123358634D01*
X164159986Y-123358634D01*
X161820400Y-121396393D01*
X171618178Y-121396393D01*
X171638658Y-121538848D01*
X171638659Y-121538852D01*
X171698445Y-121669763D01*
X171698446Y-121669764D01*
X171698447Y-121669766D01*
X171736066Y-121716449D01*
X171736069Y-121716452D01*
X171736074Y-121716458D01*
X172984161Y-122964542D01*
X173217982Y-123198363D01*
X173217986Y-123198366D01*
X173217988Y-123198368D01*
X173264664Y-123235984D01*
X173395578Y-123295771D01*
X173395579Y-123295771D01*
X173395581Y-123295772D01*
X173538038Y-123316253D01*
X173680495Y-123295772D01*
X173811411Y-123235984D01*
X173858094Y-123198365D01*
X175340008Y-121716449D01*
X175377629Y-121669766D01*
X175437417Y-121538850D01*
X175457898Y-121396393D01*
X175437417Y-121253936D01*
X175377629Y-121123020D01*
X175340010Y-121076337D01*
X175340005Y-121076332D01*
X175340001Y-121076327D01*
X173858097Y-119594426D01*
X173858087Y-119594417D01*
X173811411Y-119556801D01*
X173680497Y-119497014D01*
X173680493Y-119497013D01*
X173538038Y-119476533D01*
X173395576Y-119497014D01*
X173393272Y-119497691D01*
X173390871Y-119497690D01*
X173386802Y-119498276D01*
X173386717Y-119497690D01*
X173323402Y-119497687D01*
X173289453Y-119481814D01*
X173164591Y-119398383D01*
X173164578Y-119398376D01*
X173000705Y-119330499D01*
X173000696Y-119330496D01*
X172826732Y-119295893D01*
X172826729Y-119295893D01*
X172649347Y-119295893D01*
X172649344Y-119295893D01*
X172475379Y-119330496D01*
X172475370Y-119330499D01*
X172311497Y-119398376D01*
X172311484Y-119398383D01*
X172164003Y-119496928D01*
X172163999Y-119496931D01*
X172038576Y-119622354D01*
X172038573Y-119622358D01*
X171940028Y-119769839D01*
X171940021Y-119769852D01*
X171872144Y-119933725D01*
X171872141Y-119933734D01*
X171837538Y-120107697D01*
X171837538Y-120285088D01*
X171872141Y-120459051D01*
X171872144Y-120459060D01*
X171940021Y-120622933D01*
X171940028Y-120622945D01*
X171983399Y-120687854D01*
X172004277Y-120754531D01*
X171985793Y-120821911D01*
X171967978Y-120844426D01*
X171736071Y-121076333D01*
X171736062Y-121076343D01*
X171698446Y-121123019D01*
X171638659Y-121253933D01*
X171638658Y-121253937D01*
X171618178Y-121396393D01*
X161820400Y-121396393D01*
X157098419Y-117436007D01*
X157089381Y-117428426D01*
X157077839Y-117414247D01*
X157039065Y-117386226D01*
X157002419Y-117355491D01*
X156996528Y-117352745D01*
X156976288Y-117340860D01*
X156971028Y-117337059D01*
X156971027Y-117337058D01*
X156930493Y-117321616D01*
X156922280Y-117318143D01*
X156897003Y-117306363D01*
X156882970Y-117299823D01*
X156882968Y-117299822D01*
X156882967Y-117299822D01*
X156876569Y-117298695D01*
X156876569Y-117298694D01*
X156864956Y-117296649D01*
X156847876Y-117290143D01*
X156800303Y-117285264D01*
X156795892Y-117284488D01*
X156795880Y-117284487D01*
X156787118Y-117282944D01*
X156753183Y-117276969D01*
X156753180Y-117276969D01*
X156753179Y-117276969D01*
X156753178Y-117276969D01*
X156746708Y-117277536D01*
X156723245Y-117277363D01*
X156716787Y-117276701D01*
X156716775Y-117276701D01*
X156673967Y-117283592D01*
X156665102Y-117284693D01*
X156621903Y-117288483D01*
X156621899Y-117288484D01*
X156615794Y-117290708D01*
X156604717Y-117294742D01*
X156586671Y-117297648D01*
X156543035Y-117317207D01*
X156538829Y-117318740D01*
X156538821Y-117318744D01*
X156498077Y-117333584D01*
X156498064Y-117333591D01*
X156497945Y-117333675D01*
X156475045Y-117346341D01*
X155778819Y-117640267D01*
X155773758Y-117642274D01*
X155015425Y-117923883D01*
X155010282Y-117925665D01*
X154240348Y-118173713D01*
X154235132Y-118175268D01*
X153455048Y-118389288D01*
X153449768Y-118390613D01*
X152661018Y-118570198D01*
X152655685Y-118571289D01*
X151859862Y-118716074D01*
X151854487Y-118716931D01*
X151053041Y-118826657D01*
X151047633Y-118827277D01*
X150242150Y-118901723D01*
X150236720Y-118902105D01*
X149428740Y-118941128D01*
X149423299Y-118941271D01*
X148614392Y-118944798D01*
X148608949Y-118944702D01*
X147800683Y-118912725D01*
X147795250Y-118912391D01*
X146989131Y-118844969D01*
X146983718Y-118844396D01*
X146181355Y-118741663D01*
X146175972Y-118740853D01*
X145378898Y-118603008D01*
X145373556Y-118601963D01*
X144583300Y-118429268D01*
X144578009Y-118427990D01*
X143796065Y-118220773D01*
X143790835Y-118219263D01*
X143537714Y-118140145D01*
X143018775Y-117977940D01*
X143013617Y-117976203D01*
X142252859Y-117701216D01*
X142247781Y-117699253D01*
X141499851Y-117391155D01*
X141494865Y-117388972D01*
X140791363Y-117062361D01*
X140789975Y-117061706D01*
X140782436Y-117058092D01*
X140757939Y-117041986D01*
X140728506Y-117032237D01*
X140721383Y-117028823D01*
X140721217Y-117028673D01*
X140720318Y-117028306D01*
X140699566Y-117018112D01*
X140673262Y-117012921D01*
X140673262Y-117012922D01*
X140665643Y-117011418D01*
X140632837Y-117000555D01*
X140601298Y-116998723D01*
X140592965Y-116997079D01*
X140592963Y-116997078D01*
X140570280Y-116992603D01*
X140570275Y-116992602D01*
X140543515Y-116994397D01*
X140543516Y-116994398D01*
X140535768Y-116994917D01*
X140501274Y-116992915D01*
X140470336Y-116999307D01*
X140461853Y-116999877D01*
X140461851Y-116999876D01*
X140438789Y-117001425D01*
X140438785Y-117001426D01*
X140413408Y-117010083D01*
X140413409Y-117010084D01*
X140406061Y-117012590D01*
X140372217Y-117019585D01*
X140343981Y-117033770D01*
X140335942Y-117036513D01*
X140319904Y-117041986D01*
X140314063Y-117043979D01*
X140314054Y-117043984D01*
X140291787Y-117058909D01*
X140291788Y-117058910D01*
X140285336Y-117063235D01*
X140254460Y-117078750D01*
X140230865Y-117099753D01*
X140223811Y-117104483D01*
X140223805Y-117104489D01*
X140204601Y-117117364D01*
X140204597Y-117117367D01*
X140186951Y-117137552D01*
X140176049Y-117148552D01*
X126524070Y-129301903D01*
X126517905Y-129307392D01*
X126517676Y-129307508D01*
X126468800Y-129351106D01*
X126468711Y-129351185D01*
X126419656Y-129394856D01*
X126419592Y-129394930D01*
X126419593Y-129394931D01*
X126419334Y-129395231D01*
X126383534Y-129449803D01*
X126383466Y-129449907D01*
X126347264Y-129504970D01*
X126347134Y-129505237D01*
X126347049Y-129505413D01*
X126327238Y-129565435D01*
X126325448Y-129570490D01*
X126170099Y-129980647D01*
X126165870Y-129990503D01*
X125976831Y-130383264D01*
X125971766Y-130392719D01*
X125749485Y-130767689D01*
X125743622Y-130776670D01*
X125489781Y-131131014D01*
X125483163Y-131139454D01*
X125199642Y-131470547D01*
X125192320Y-131478385D01*
X124881251Y-131783736D01*
X124873279Y-131790911D01*
X124536995Y-132068233D01*
X124528433Y-132074693D01*
X124169428Y-132321926D01*
X124160340Y-132327621D01*
X123781326Y-132542899D01*
X123771779Y-132547788D01*
X123375571Y-132729512D01*
X123365638Y-132733558D01*
X122955211Y-132880364D01*
X122944966Y-132883536D01*
X122523388Y-132994325D01*
X122512906Y-132996600D01*
X122083324Y-133070545D01*
X122072685Y-133071905D01*
X121638345Y-133108449D01*
X121627629Y-133108886D01*
X121191724Y-133107760D01*
X121181010Y-133107268D01*
X120746846Y-133068479D01*
X120736214Y-133067063D01*
X120307034Y-132990902D01*
X120296564Y-132988573D01*
X119875574Y-132875609D01*
X119865345Y-132872385D01*
X119455669Y-132723458D01*
X119445757Y-132719360D01*
X119050490Y-132535589D01*
X119040969Y-132530651D01*
X118967750Y-132488561D01*
X118663072Y-132313418D01*
X118654027Y-132307684D01*
X118315047Y-132071651D01*
X118296300Y-132058597D01*
X118287772Y-132052093D01*
X117952916Y-131773031D01*
X117944990Y-131765823D01*
X117635497Y-131458864D01*
X117628218Y-131450991D01*
X117346407Y-131118431D01*
X117339834Y-131109957D01*
X117307712Y-131064624D01*
X117087823Y-130754302D01*
X117082008Y-130745293D01*
X117062162Y-130711417D01*
X116934336Y-130493221D01*
X116861677Y-130369193D01*
X116856661Y-130359714D01*
X116681299Y-129990503D01*
X116669644Y-129965963D01*
X116665468Y-129956089D01*
X116657563Y-129934887D01*
X116513181Y-129547660D01*
X116509879Y-129537479D01*
X116393450Y-129117395D01*
X116391042Y-129106977D01*
X116311350Y-128678405D01*
X116309849Y-128667795D01*
X116286687Y-128430559D01*
X116267493Y-128233969D01*
X116266914Y-128223261D01*
X116265241Y-128068362D01*
X116262205Y-127787366D01*
X116262552Y-127776692D01*
X116266517Y-127724427D01*
X117987538Y-127724427D01*
X117987538Y-128068358D01*
X118021248Y-128410642D01*
X118088346Y-128747965D01*
X118188188Y-129077099D01*
X118319808Y-129394857D01*
X118319810Y-129394862D01*
X118481931Y-129698168D01*
X118481942Y-129698186D01*
X118673013Y-129984144D01*
X118673023Y-129984158D01*
X118891214Y-130250025D01*
X119134405Y-130493216D01*
X119134410Y-130493220D01*
X119134411Y-130493221D01*
X119400278Y-130711412D01*
X119686251Y-130902493D01*
X119686260Y-130902498D01*
X119686262Y-130902499D01*
X119989568Y-131064620D01*
X119989570Y-131064620D01*
X119989576Y-131064624D01*
X120307333Y-131196243D01*
X120636460Y-131296083D01*
X120973788Y-131363182D01*
X121316069Y-131396893D01*
X121316072Y-131396893D01*
X121660004Y-131396893D01*
X121660007Y-131396893D01*
X122002288Y-131363182D01*
X122339616Y-131296083D01*
X122668743Y-131196243D01*
X122986500Y-131064624D01*
X123289825Y-130902493D01*
X123575798Y-130711412D01*
X123841665Y-130493221D01*
X124084866Y-130250020D01*
X124303057Y-129984153D01*
X124494138Y-129698180D01*
X124656269Y-129394855D01*
X124787888Y-129077098D01*
X124887728Y-128747971D01*
X124954827Y-128410643D01*
X124988538Y-128068362D01*
X124988538Y-127724424D01*
X124954827Y-127382143D01*
X124887728Y-127044815D01*
X124787888Y-126715688D01*
X124656269Y-126397931D01*
X124566967Y-126230860D01*
X124494144Y-126094617D01*
X124494143Y-126094615D01*
X124494138Y-126094606D01*
X124303057Y-125808633D01*
X124084866Y-125542766D01*
X124084865Y-125542765D01*
X124084861Y-125542760D01*
X123841675Y-125299574D01*
X123841669Y-125299569D01*
X123841665Y-125299565D01*
X123594099Y-125096393D01*
X126218178Y-125096393D01*
X126238658Y-125238848D01*
X126238659Y-125238852D01*
X126298445Y-125369763D01*
X126298446Y-125369764D01*
X126298447Y-125369766D01*
X126336066Y-125416449D01*
X126336069Y-125416452D01*
X126336074Y-125416458D01*
X127573278Y-126653659D01*
X127817982Y-126898363D01*
X127817986Y-126898366D01*
X127817988Y-126898368D01*
X127864664Y-126935984D01*
X127995578Y-126995771D01*
X127995579Y-126995771D01*
X127995581Y-126995772D01*
X128138038Y-127016253D01*
X128280495Y-126995772D01*
X128411411Y-126935984D01*
X128458094Y-126898365D01*
X129940008Y-125416449D01*
X129977629Y-125369766D01*
X130037417Y-125238850D01*
X130057898Y-125096393D01*
X130037417Y-124953936D01*
X130035448Y-124949625D01*
X129977630Y-124823022D01*
X129977629Y-124823021D01*
X129977629Y-124823020D01*
X129955773Y-124795898D01*
X129929036Y-124731349D01*
X129941442Y-124662589D01*
X129983437Y-124614991D01*
X130011046Y-124596543D01*
X130012073Y-124595857D01*
X130137502Y-124470428D01*
X130236051Y-124322940D01*
X130303932Y-124159059D01*
X130338538Y-123985084D01*
X130338538Y-123807702D01*
X130338538Y-123807699D01*
X130338537Y-123807697D01*
X130303934Y-123633734D01*
X130303931Y-123633725D01*
X130236054Y-123469852D01*
X130236047Y-123469839D01*
X130137502Y-123322358D01*
X130137499Y-123322354D01*
X130012076Y-123196931D01*
X130012072Y-123196928D01*
X129864591Y-123098383D01*
X129864578Y-123098376D01*
X129700705Y-123030499D01*
X129700696Y-123030496D01*
X129526732Y-122995893D01*
X129526729Y-122995893D01*
X129349347Y-122995893D01*
X129349344Y-122995893D01*
X129175379Y-123030496D01*
X129175370Y-123030499D01*
X129011497Y-123098376D01*
X129011484Y-123098383D01*
X128864003Y-123196928D01*
X128863999Y-123196931D01*
X128738574Y-123322356D01*
X128721360Y-123348119D01*
X128667746Y-123392923D01*
X128598421Y-123401629D01*
X128535394Y-123371473D01*
X128530578Y-123366907D01*
X128458097Y-123294426D01*
X128458091Y-123294421D01*
X128458087Y-123294417D01*
X128411411Y-123256801D01*
X128280497Y-123197014D01*
X128280493Y-123197013D01*
X128138038Y-123176533D01*
X127995582Y-123197013D01*
X127995578Y-123197014D01*
X127864667Y-123256800D01*
X127817972Y-123294429D01*
X126336071Y-124776333D01*
X126336062Y-124776343D01*
X126298446Y-124823019D01*
X126238659Y-124953933D01*
X126238658Y-124953937D01*
X126218178Y-125096393D01*
X123594099Y-125096393D01*
X123575798Y-125081374D01*
X123289825Y-124890293D01*
X123289820Y-124890290D01*
X123289813Y-124890286D01*
X122986507Y-124728165D01*
X122986502Y-124728163D01*
X122668744Y-124596543D01*
X122339610Y-124496701D01*
X122002286Y-124429603D01*
X122002287Y-124429603D01*
X121744494Y-124404214D01*
X121660007Y-124395893D01*
X121316069Y-124395893D01*
X121238004Y-124403581D01*
X120973788Y-124429603D01*
X120636465Y-124496701D01*
X120307331Y-124596543D01*
X119989573Y-124728163D01*
X119989568Y-124728165D01*
X119686262Y-124890286D01*
X119686244Y-124890297D01*
X119400286Y-125081368D01*
X119400272Y-125081378D01*
X119134405Y-125299569D01*
X118891214Y-125542760D01*
X118673023Y-125808627D01*
X118673013Y-125808641D01*
X118481942Y-126094599D01*
X118481931Y-126094617D01*
X118319810Y-126397923D01*
X118319808Y-126397928D01*
X118188188Y-126715686D01*
X118088346Y-127044820D01*
X118021248Y-127382143D01*
X117987538Y-127724427D01*
X116266517Y-127724427D01*
X116295530Y-127342005D01*
X116296798Y-127331396D01*
X116367215Y-126901194D01*
X116369402Y-126890705D01*
X116421064Y-126687338D01*
X116476724Y-126468224D01*
X116479811Y-126457960D01*
X116623244Y-126046325D01*
X116627195Y-126036392D01*
X116805666Y-125638683D01*
X116810461Y-125629125D01*
X117022637Y-125248317D01*
X117028247Y-125239201D01*
X117272529Y-124878165D01*
X117278910Y-124869563D01*
X117354515Y-124776333D01*
X117553468Y-124530999D01*
X117560559Y-124522988D01*
X117863367Y-124209395D01*
X117871127Y-124202026D01*
X118199888Y-123915785D01*
X118208252Y-123909115D01*
X118560545Y-123652337D01*
X118569445Y-123646422D01*
X118942581Y-123421064D01*
X118951972Y-123415932D01*
X119343197Y-123223657D01*
X119353003Y-123219354D01*
X119380943Y-123208508D01*
X123875477Y-123208508D01*
X124439627Y-123772658D01*
X124486262Y-123810238D01*
X124617041Y-123869964D01*
X124617046Y-123869965D01*
X124759360Y-123890425D01*
X124901673Y-123869965D01*
X124901678Y-123869964D01*
X125032457Y-123810238D01*
X125079092Y-123772658D01*
X125079096Y-123772654D01*
X125643243Y-123208508D01*
X124759360Y-122324625D01*
X123875477Y-123208508D01*
X119380943Y-123208508D01*
X119553482Y-123141531D01*
X119763500Y-123060007D01*
X119768516Y-123058182D01*
X119826738Y-123038435D01*
X119826910Y-123038319D01*
X119827116Y-123038247D01*
X119827679Y-123037968D01*
X119827693Y-123037964D01*
X119882095Y-123001465D01*
X119936330Y-122965245D01*
X119936649Y-122964879D01*
X119937053Y-122964609D01*
X119937125Y-122964544D01*
X119937130Y-122964542D01*
X119979937Y-122915542D01*
X119980071Y-122915391D01*
X120027662Y-122861149D01*
X120029102Y-122859268D01*
X120805084Y-121971071D01*
X122840005Y-121971071D01*
X122860465Y-122113384D01*
X122860466Y-122113389D01*
X122920192Y-122244168D01*
X122957772Y-122290803D01*
X123521923Y-122854954D01*
X124405806Y-121971071D01*
X125112914Y-121971071D01*
X125996797Y-122854954D01*
X126560943Y-122290807D01*
X126560947Y-122290803D01*
X126598527Y-122244168D01*
X126658253Y-122113389D01*
X126658254Y-122113384D01*
X126678714Y-121971071D01*
X126658254Y-121828757D01*
X126658253Y-121828752D01*
X126598527Y-121697973D01*
X126560947Y-121651338D01*
X125996797Y-121087188D01*
X125112914Y-121971071D01*
X124405806Y-121971071D01*
X123521923Y-121087188D01*
X122957776Y-121651334D01*
X122957772Y-121651338D01*
X122920192Y-121697973D01*
X122860466Y-121828752D01*
X122860465Y-121828757D01*
X122840005Y-121971071D01*
X120805084Y-121971071D01*
X121886184Y-120733634D01*
X123875477Y-120733634D01*
X124759360Y-121617517D01*
X125643243Y-120733634D01*
X125079092Y-120169483D01*
X125032457Y-120131903D01*
X124901678Y-120072177D01*
X124901673Y-120072176D01*
X124759360Y-120051716D01*
X124617046Y-120072176D01*
X124617041Y-120072177D01*
X124486262Y-120131903D01*
X124439627Y-120169483D01*
X124439623Y-120169487D01*
X123875477Y-120733634D01*
X121886184Y-120733634D01*
X125385450Y-116728340D01*
X144538038Y-116728340D01*
X144538038Y-116964445D01*
X144574972Y-117197640D01*
X144647935Y-117422195D01*
X144755125Y-117632567D01*
X144815376Y-117715497D01*
X144815378Y-117715498D01*
X145555075Y-116975801D01*
X145572113Y-117039386D01*
X145637939Y-117153400D01*
X145731031Y-117246492D01*
X145845045Y-117312318D01*
X145908628Y-117329355D01*
X145168931Y-118069051D01*
X145251866Y-118129307D01*
X145462235Y-118236495D01*
X145686790Y-118309458D01*
X145686789Y-118309458D01*
X145919986Y-118346393D01*
X146156090Y-118346393D01*
X146389285Y-118309458D01*
X146613840Y-118236495D01*
X146824201Y-118129311D01*
X146824207Y-118129307D01*
X146907142Y-118069051D01*
X146907143Y-118069051D01*
X146167446Y-117329355D01*
X146231031Y-117312318D01*
X146345045Y-117246492D01*
X146438137Y-117153400D01*
X146503963Y-117039386D01*
X146521000Y-116975801D01*
X147260696Y-117715498D01*
X147260696Y-117715497D01*
X147320952Y-117632562D01*
X147320956Y-117632556D01*
X147428140Y-117422195D01*
X147501103Y-117197640D01*
X147538038Y-116964445D01*
X147538038Y-116728340D01*
X147538031Y-116728295D01*
X148987538Y-116728295D01*
X148987538Y-116964490D01*
X149024484Y-117197761D01*
X149097471Y-117422389D01*
X149186222Y-117596571D01*
X149204695Y-117632826D01*
X149343521Y-117823903D01*
X149510528Y-117990910D01*
X149701605Y-118129736D01*
X149787915Y-118173713D01*
X149912041Y-118236959D01*
X149912043Y-118236959D01*
X149912046Y-118236961D01*
X150032450Y-118276082D01*
X150136669Y-118309946D01*
X150369941Y-118346893D01*
X150369946Y-118346893D01*
X150606135Y-118346893D01*
X150839406Y-118309946D01*
X150840908Y-118309458D01*
X151064030Y-118236961D01*
X151274471Y-118129736D01*
X151465548Y-117990910D01*
X151632555Y-117823903D01*
X151771381Y-117632826D01*
X151878606Y-117422385D01*
X151951591Y-117197761D01*
X151955156Y-117175250D01*
X151988538Y-116964490D01*
X151988538Y-116728295D01*
X151951591Y-116495024D01*
X151883604Y-116285784D01*
X151878606Y-116270401D01*
X151878604Y-116270398D01*
X151878604Y-116270396D01*
X151771515Y-116060223D01*
X151771381Y-116059960D01*
X151632555Y-115868883D01*
X151465548Y-115701876D01*
X151274471Y-115563050D01*
X151064034Y-115455826D01*
X150839406Y-115382839D01*
X150606135Y-115345893D01*
X150606130Y-115345893D01*
X150369946Y-115345893D01*
X150369941Y-115345893D01*
X150136669Y-115382839D01*
X149912041Y-115455826D01*
X149701604Y-115563050D01*
X149665329Y-115589406D01*
X149510528Y-115701876D01*
X149510526Y-115701878D01*
X149510525Y-115701878D01*
X149343523Y-115868880D01*
X149343523Y-115868881D01*
X149343521Y-115868883D01*
X149283900Y-115950943D01*
X149204695Y-116059959D01*
X149097471Y-116270396D01*
X149024484Y-116495024D01*
X148987538Y-116728295D01*
X147538031Y-116728295D01*
X147501103Y-116495145D01*
X147428140Y-116270590D01*
X147320952Y-116060221D01*
X147260696Y-115977287D01*
X147260696Y-115977286D01*
X146521000Y-116716983D01*
X146503963Y-116653400D01*
X146438137Y-116539386D01*
X146345045Y-116446294D01*
X146231031Y-116380468D01*
X146167447Y-116363430D01*
X146907143Y-115623733D01*
X146907142Y-115623731D01*
X146824212Y-115563480D01*
X146613840Y-115456290D01*
X146389285Y-115383327D01*
X146389286Y-115383327D01*
X146156090Y-115346393D01*
X145919986Y-115346393D01*
X145686790Y-115383327D01*
X145462235Y-115456290D01*
X145251868Y-115563477D01*
X145168932Y-115623733D01*
X145908629Y-116363430D01*
X145845045Y-116380468D01*
X145731031Y-116446294D01*
X145637939Y-116539386D01*
X145572113Y-116653400D01*
X145555075Y-116716984D01*
X144815378Y-115977287D01*
X144755122Y-116060223D01*
X144647935Y-116270590D01*
X144574972Y-116495145D01*
X144538038Y-116728340D01*
X125385450Y-116728340D01*
X129413718Y-112117546D01*
X130637538Y-112117546D01*
X130637538Y-112275239D01*
X130668299Y-112429882D01*
X130668302Y-112429894D01*
X130728640Y-112575565D01*
X130728647Y-112575578D01*
X130816248Y-112706681D01*
X130816251Y-112706685D01*
X130927745Y-112818179D01*
X130927749Y-112818182D01*
X131058852Y-112905783D01*
X131058865Y-112905790D01*
X131204536Y-112966128D01*
X131204541Y-112966130D01*
X131359191Y-112996892D01*
X131359194Y-112996893D01*
X131359196Y-112996893D01*
X131516882Y-112996893D01*
X131516883Y-112996892D01*
X131671535Y-112966130D01*
X131817217Y-112905787D01*
X131948327Y-112818182D01*
X132059827Y-112706682D01*
X132147432Y-112575572D01*
X132207775Y-112429890D01*
X132227151Y-112332478D01*
X132238676Y-112274543D01*
X132271061Y-112212632D01*
X132272556Y-112211109D01*
X138164866Y-106318798D01*
X138164871Y-106318795D01*
X138175074Y-106308591D01*
X138175076Y-106308591D01*
X138286880Y-106196787D01*
X138365937Y-106059855D01*
X138395894Y-105948052D01*
X138406860Y-105907129D01*
X138406860Y-105749014D01*
X138406860Y-105745599D01*
X138407129Y-105741519D01*
X138417806Y-105712395D01*
X138426545Y-105682636D01*
X138429728Y-105679877D01*
X138431180Y-105675919D01*
X138455915Y-105657186D01*
X138479349Y-105636881D01*
X138483519Y-105636281D01*
X138486879Y-105633737D01*
X138517802Y-105631351D01*
X138548507Y-105626937D01*
X138552341Y-105628688D01*
X138556542Y-105628364D01*
X138583845Y-105643075D01*
X138612063Y-105655962D01*
X138614453Y-105659567D01*
X138618051Y-105661506D01*
X138629709Y-105682578D01*
X138648789Y-105711355D01*
X138649128Y-105712395D01*
X138662804Y-105754485D01*
X138759311Y-105943891D01*
X138884250Y-106115857D01*
X139034573Y-106266180D01*
X139206539Y-106391119D01*
X139206541Y-106391120D01*
X139206544Y-106391122D01*
X139395948Y-106487628D01*
X139598117Y-106553317D01*
X139808073Y-106586571D01*
X139808074Y-106586571D01*
X140020646Y-106586571D01*
X140020647Y-106586571D01*
X140230603Y-106553317D01*
X140432772Y-106487628D01*
X140622176Y-106391122D01*
X140708498Y-106328406D01*
X140794146Y-106266180D01*
X140794148Y-106266177D01*
X140794152Y-106266175D01*
X140944464Y-106115863D01*
X140944466Y-106115859D01*
X140944469Y-106115857D01*
X141069408Y-105943891D01*
X141069407Y-105943891D01*
X141069411Y-105943887D01*
X141073874Y-105935125D01*
X141121848Y-105884330D01*
X141189668Y-105867534D01*
X141255804Y-105890070D01*
X141294846Y-105935127D01*
X141299311Y-105943891D01*
X141424250Y-106115857D01*
X141574573Y-106266180D01*
X141746539Y-106391119D01*
X141746541Y-106391120D01*
X141746544Y-106391122D01*
X141935948Y-106487628D01*
X142138117Y-106553317D01*
X142348073Y-106586571D01*
X142348074Y-106586571D01*
X142560646Y-106586571D01*
X142560647Y-106586571D01*
X142770603Y-106553317D01*
X142972772Y-106487628D01*
X143162176Y-106391122D01*
X143248498Y-106328406D01*
X143334146Y-106266180D01*
X143334148Y-106266177D01*
X143334152Y-106266175D01*
X143484464Y-106115863D01*
X143484466Y-106115859D01*
X143484469Y-106115857D01*
X143609408Y-105943891D01*
X143609407Y-105943891D01*
X143609411Y-105943887D01*
X143613874Y-105935125D01*
X143661848Y-105884330D01*
X143729668Y-105867534D01*
X143795804Y-105890070D01*
X143834846Y-105935127D01*
X143839311Y-105943891D01*
X143964250Y-106115857D01*
X144114573Y-106266180D01*
X144286539Y-106391119D01*
X144286541Y-106391120D01*
X144286544Y-106391122D01*
X144475948Y-106487628D01*
X144678117Y-106553317D01*
X144888073Y-106586571D01*
X144888074Y-106586571D01*
X145100646Y-106586571D01*
X145100647Y-106586571D01*
X145310603Y-106553317D01*
X145512772Y-106487628D01*
X145702176Y-106391122D01*
X145788498Y-106328406D01*
X145874146Y-106266180D01*
X145874148Y-106266177D01*
X145874152Y-106266175D01*
X146024464Y-106115863D01*
X146024466Y-106115859D01*
X146024469Y-106115857D01*
X146149408Y-105943891D01*
X146149407Y-105943891D01*
X146149411Y-105943887D01*
X146153874Y-105935125D01*
X146201848Y-105884330D01*
X146269668Y-105867534D01*
X146335804Y-105890070D01*
X146374846Y-105935127D01*
X146379311Y-105943891D01*
X146504250Y-106115857D01*
X146654573Y-106266180D01*
X146826539Y-106391119D01*
X146826541Y-106391120D01*
X146826544Y-106391122D01*
X147015948Y-106487628D01*
X147218117Y-106553317D01*
X147428073Y-106586571D01*
X147428074Y-106586571D01*
X147640646Y-106586571D01*
X147640647Y-106586571D01*
X147850603Y-106553317D01*
X148052772Y-106487628D01*
X148242176Y-106391122D01*
X148328498Y-106328406D01*
X148414146Y-106266180D01*
X148414148Y-106266177D01*
X148414152Y-106266175D01*
X148564464Y-106115863D01*
X148564466Y-106115859D01*
X148564469Y-106115857D01*
X148689408Y-105943891D01*
X148689407Y-105943891D01*
X148689411Y-105943887D01*
X148693874Y-105935125D01*
X148741848Y-105884330D01*
X148809668Y-105867534D01*
X148875804Y-105890070D01*
X148914846Y-105935127D01*
X148919311Y-105943891D01*
X149044250Y-106115857D01*
X149194573Y-106266180D01*
X149366539Y-106391119D01*
X149366541Y-106391120D01*
X149366544Y-106391122D01*
X149555948Y-106487628D01*
X149758117Y-106553317D01*
X149968073Y-106586571D01*
X149968074Y-106586571D01*
X150180646Y-106586571D01*
X150180647Y-106586571D01*
X150390603Y-106553317D01*
X150592772Y-106487628D01*
X150782176Y-106391122D01*
X150868498Y-106328406D01*
X150954146Y-106266180D01*
X150954148Y-106266177D01*
X150954152Y-106266175D01*
X151104464Y-106115863D01*
X151104466Y-106115859D01*
X151104469Y-106115857D01*
X151229408Y-105943891D01*
X151229407Y-105943891D01*
X151229411Y-105943887D01*
X151233874Y-105935125D01*
X151281848Y-105884330D01*
X151349668Y-105867534D01*
X151415804Y-105890070D01*
X151454846Y-105935127D01*
X151459311Y-105943891D01*
X151584250Y-106115857D01*
X151734573Y-106266180D01*
X151906539Y-106391119D01*
X151906541Y-106391120D01*
X151906544Y-106391122D01*
X152095948Y-106487628D01*
X152298117Y-106553317D01*
X152508073Y-106586571D01*
X152508074Y-106586571D01*
X152720646Y-106586571D01*
X152720647Y-106586571D01*
X152930603Y-106553317D01*
X153132772Y-106487628D01*
X153322176Y-106391122D01*
X153408498Y-106328406D01*
X153494146Y-106266180D01*
X153494148Y-106266177D01*
X153494152Y-106266175D01*
X153644464Y-106115863D01*
X153644466Y-106115859D01*
X153644469Y-106115857D01*
X153769408Y-105943891D01*
X153769407Y-105943891D01*
X153769411Y-105943887D01*
X153773874Y-105935125D01*
X153821848Y-105884330D01*
X153889668Y-105867534D01*
X153955804Y-105890070D01*
X153994846Y-105935127D01*
X153999311Y-105943891D01*
X154124250Y-106115857D01*
X154274573Y-106266180D01*
X154446539Y-106391119D01*
X154446541Y-106391120D01*
X154446544Y-106391122D01*
X154635948Y-106487628D01*
X154838117Y-106553317D01*
X155048073Y-106586571D01*
X155048074Y-106586571D01*
X155260646Y-106586571D01*
X155260647Y-106586571D01*
X155470603Y-106553317D01*
X155672772Y-106487628D01*
X155862176Y-106391122D01*
X156034152Y-106266175D01*
X156147689Y-106152637D01*
X156209008Y-106119155D01*
X156278700Y-106124139D01*
X156334634Y-106166010D01*
X156351549Y-106196988D01*
X156400562Y-106328399D01*
X156400566Y-106328406D01*
X156486812Y-106443615D01*
X156486815Y-106443618D01*
X156602024Y-106529864D01*
X156602031Y-106529868D01*
X156736877Y-106580162D01*
X156736876Y-106580162D01*
X156743804Y-106580906D01*
X156796487Y-106586571D01*
X158592232Y-106586570D01*
X158651843Y-106580162D01*
X158786691Y-106529867D01*
X158901906Y-106443617D01*
X158988156Y-106328402D01*
X159038451Y-106193554D01*
X159044860Y-106133944D01*
X159044859Y-104338199D01*
X159038451Y-104278588D01*
X159037170Y-104275154D01*
X158988157Y-104143742D01*
X158988153Y-104143735D01*
X158901907Y-104028526D01*
X158901904Y-104028523D01*
X158786695Y-103942277D01*
X158786688Y-103942273D01*
X158651842Y-103891979D01*
X158651843Y-103891979D01*
X158592243Y-103885572D01*
X158592241Y-103885571D01*
X158592233Y-103885571D01*
X158592224Y-103885571D01*
X156796489Y-103885571D01*
X156796483Y-103885572D01*
X156736876Y-103891979D01*
X156602031Y-103942273D01*
X156602024Y-103942277D01*
X156486815Y-104028523D01*
X156486812Y-104028526D01*
X156400566Y-104143735D01*
X156400563Y-104143740D01*
X156351549Y-104275154D01*
X156309677Y-104331087D01*
X156244213Y-104355504D01*
X156175940Y-104340652D01*
X156147686Y-104319501D01*
X156034146Y-104205961D01*
X155905975Y-104112841D01*
X155863309Y-104057512D01*
X155854860Y-104012523D01*
X155854860Y-100197244D01*
X155864299Y-100149791D01*
X155914097Y-100029568D01*
X155944860Y-99874913D01*
X155944860Y-99717229D01*
X155944860Y-99717226D01*
X155944859Y-99717224D01*
X155940548Y-99695551D01*
X155914097Y-99562574D01*
X155900812Y-99530501D01*
X155853757Y-99416898D01*
X155853750Y-99416885D01*
X155766149Y-99285782D01*
X155766146Y-99285778D01*
X155727697Y-99247329D01*
X155694212Y-99186006D01*
X155699196Y-99116314D01*
X155727695Y-99071969D01*
X156132262Y-98667402D01*
X156193583Y-98633919D01*
X156263275Y-98638903D01*
X156267393Y-98640524D01*
X156395146Y-98693440D01*
X156400863Y-98695808D01*
X156555513Y-98726570D01*
X156555516Y-98726571D01*
X156555518Y-98726571D01*
X156713204Y-98726571D01*
X156713205Y-98726570D01*
X156867857Y-98695808D01*
X156980526Y-98649138D01*
X157013532Y-98635468D01*
X157013532Y-98635467D01*
X157013539Y-98635465D01*
X157144649Y-98547860D01*
X157256149Y-98436360D01*
X157343754Y-98305250D01*
X157351796Y-98285836D01*
X157404095Y-98159572D01*
X157404097Y-98159568D01*
X157434860Y-98004913D01*
X157434860Y-97847229D01*
X157434860Y-97847226D01*
X157434859Y-97847224D01*
X157404098Y-97692581D01*
X157404097Y-97692574D01*
X157396915Y-97675235D01*
X157343757Y-97546898D01*
X157343750Y-97546885D01*
X157256149Y-97415782D01*
X157256146Y-97415778D01*
X157144652Y-97304284D01*
X157144648Y-97304281D01*
X157013545Y-97216680D01*
X157013532Y-97216673D01*
X156867861Y-97156335D01*
X156867849Y-97156332D01*
X156713205Y-97125571D01*
X156713202Y-97125571D01*
X156555518Y-97125571D01*
X156555515Y-97125571D01*
X156400870Y-97156332D01*
X156400858Y-97156335D01*
X156255187Y-97216673D01*
X156255174Y-97216680D01*
X156123485Y-97304673D01*
X156056807Y-97325551D01*
X156054594Y-97325571D01*
X155945302Y-97325571D01*
X155792575Y-97366494D01*
X155792574Y-97366494D01*
X155792572Y-97366495D01*
X155792569Y-97366496D01*
X155742456Y-97395430D01*
X155742455Y-97395431D01*
X155719845Y-97408485D01*
X155655645Y-97445550D01*
X155655642Y-97445552D01*
X153293841Y-99807353D01*
X153293837Y-99807358D01*
X153254836Y-99874912D01*
X153254836Y-99874913D01*
X153214783Y-99944285D01*
X153214783Y-99944286D01*
X153173859Y-100097014D01*
X153173859Y-100097016D01*
X153173859Y-100265117D01*
X153173860Y-100265130D01*
X153173860Y-102726305D01*
X153154175Y-102793344D01*
X153152962Y-102795196D01*
X153064969Y-102926885D01*
X153064962Y-102926898D01*
X153004624Y-103072569D01*
X153004621Y-103072581D01*
X152973860Y-103227224D01*
X152973860Y-103384917D01*
X153004621Y-103539560D01*
X153004624Y-103539572D01*
X153064962Y-103685243D01*
X153064969Y-103685255D01*
X153102911Y-103742039D01*
X153123789Y-103808716D01*
X153105305Y-103876096D01*
X153053326Y-103922787D01*
X152984356Y-103933963D01*
X152961492Y-103928861D01*
X152930604Y-103918825D01*
X152930600Y-103918824D01*
X152769317Y-103893279D01*
X152720647Y-103885571D01*
X152508073Y-103885571D01*
X152459402Y-103893279D01*
X152298120Y-103918824D01*
X152095945Y-103984515D01*
X151906539Y-104081022D01*
X151734573Y-104205961D01*
X151584250Y-104356284D01*
X151459309Y-104528253D01*
X151454844Y-104537017D01*
X151406869Y-104587813D01*
X151339048Y-104604607D01*
X151272913Y-104582069D01*
X151233876Y-104537017D01*
X151229410Y-104528253D01*
X151104469Y-104356284D01*
X150954146Y-104205961D01*
X150782175Y-104081019D01*
X150782174Y-104081018D01*
X150742565Y-104060836D01*
X150691769Y-104012862D01*
X150674860Y-103950352D01*
X150674860Y-100896168D01*
X150694545Y-100829129D01*
X150711179Y-100808487D01*
X151139481Y-100380185D01*
X151587341Y-99932324D01*
X151648662Y-99898841D01*
X151662871Y-99896604D01*
X151663204Y-99896571D01*
X151725401Y-99884198D01*
X151817857Y-99865808D01*
X151963539Y-99805465D01*
X152094649Y-99717860D01*
X152206149Y-99606360D01*
X152293754Y-99475250D01*
X152354097Y-99329568D01*
X152384860Y-99174913D01*
X152384860Y-99017229D01*
X152384860Y-99017226D01*
X152384859Y-99017224D01*
X152363226Y-98908469D01*
X152354097Y-98862574D01*
X152354095Y-98862569D01*
X152293757Y-98716898D01*
X152293750Y-98716885D01*
X152215758Y-98600162D01*
X152194880Y-98533484D01*
X152194860Y-98531271D01*
X152194860Y-97161855D01*
X152214545Y-97094816D01*
X152231179Y-97074174D01*
X152371496Y-96933856D01*
X152371499Y-96933853D01*
X152480992Y-96769985D01*
X152556411Y-96587906D01*
X152568992Y-96524653D01*
X152594860Y-96394614D01*
X152594860Y-96197527D01*
X152556412Y-96004241D01*
X152556411Y-96004240D01*
X152556411Y-96004236D01*
X152520232Y-95916892D01*
X152480995Y-95822163D01*
X152480988Y-95822150D01*
X152371499Y-95658289D01*
X152371496Y-95658285D01*
X152232145Y-95518934D01*
X152232141Y-95518931D01*
X152068280Y-95409442D01*
X152068267Y-95409435D01*
X151886199Y-95334021D01*
X151886189Y-95334018D01*
X151692903Y-95295571D01*
X151692901Y-95295571D01*
X151495819Y-95295571D01*
X151495817Y-95295571D01*
X151302530Y-95334018D01*
X151302520Y-95334021D01*
X151120452Y-95409435D01*
X151120439Y-95409442D01*
X150956578Y-95518931D01*
X150956574Y-95518934D01*
X150817223Y-95658285D01*
X150817220Y-95658289D01*
X150707731Y-95822150D01*
X150707724Y-95822163D01*
X150632310Y-96004231D01*
X150632307Y-96004241D01*
X150593860Y-96197527D01*
X150593860Y-96197530D01*
X150593860Y-96394612D01*
X150593860Y-96394614D01*
X150593859Y-96394614D01*
X150632307Y-96587900D01*
X150632310Y-96587910D01*
X150707724Y-96769978D01*
X150707731Y-96769991D01*
X150817220Y-96933852D01*
X150817223Y-96933856D01*
X150957541Y-97074174D01*
X150991026Y-97135497D01*
X150993860Y-97161855D01*
X150993860Y-98503287D01*
X150974175Y-98570326D01*
X150965718Y-98581947D01*
X150962568Y-98585784D01*
X150874969Y-98716885D01*
X150874962Y-98716898D01*
X150814624Y-98862569D01*
X150814621Y-98862579D01*
X150786204Y-99005438D01*
X150753819Y-99067349D01*
X150752268Y-99068927D01*
X149593841Y-100227353D01*
X149593839Y-100227355D01*
X149572038Y-100265117D01*
X149559652Y-100286571D01*
X149524265Y-100347861D01*
X149520557Y-100354286D01*
X149514783Y-100364286D01*
X149473859Y-100517014D01*
X149473859Y-100517016D01*
X149473859Y-100685117D01*
X149473860Y-100685130D01*
X149473860Y-103950352D01*
X149454175Y-104017391D01*
X149406155Y-104060836D01*
X149366545Y-104081018D01*
X149366544Y-104081019D01*
X149194573Y-104205961D01*
X149044250Y-104356284D01*
X148919309Y-104528253D01*
X148914844Y-104537017D01*
X148866869Y-104587813D01*
X148799048Y-104604607D01*
X148732913Y-104582069D01*
X148693876Y-104537017D01*
X148689410Y-104528253D01*
X148564469Y-104356284D01*
X148414146Y-104205961D01*
X148242175Y-104081019D01*
X148242174Y-104081018D01*
X148202565Y-104060836D01*
X148151769Y-104012862D01*
X148134860Y-103950352D01*
X148134860Y-100886168D01*
X148154545Y-100819129D01*
X148171179Y-100798487D01*
X148906044Y-100063622D01*
X149684880Y-99284787D01*
X149763937Y-99147855D01*
X149804861Y-98995128D01*
X149804861Y-98837013D01*
X149804861Y-98829418D01*
X149804860Y-98829400D01*
X149804860Y-98285836D01*
X149824545Y-98218797D01*
X149825758Y-98216945D01*
X149913750Y-98085256D01*
X149913750Y-98085255D01*
X149913754Y-98085250D01*
X149974097Y-97939568D01*
X150004860Y-97784913D01*
X150004860Y-97627229D01*
X150004860Y-97627226D01*
X150004859Y-97627224D01*
X149974097Y-97472574D01*
X149962904Y-97445551D01*
X149913757Y-97326898D01*
X149913750Y-97326885D01*
X149852013Y-97234490D01*
X149831135Y-97167813D01*
X149849619Y-97100433D01*
X149867430Y-97077921D01*
X150001499Y-96943853D01*
X150110992Y-96779985D01*
X150186411Y-96597906D01*
X150200004Y-96529568D01*
X150224860Y-96404614D01*
X150224860Y-96207527D01*
X150186412Y-96014241D01*
X150186411Y-96014240D01*
X150186411Y-96014236D01*
X150168957Y-95972097D01*
X150110995Y-95832163D01*
X150110988Y-95832150D01*
X150001499Y-95668289D01*
X150001496Y-95668285D01*
X149862145Y-95528934D01*
X149862141Y-95528931D01*
X149698280Y-95419442D01*
X149698267Y-95419435D01*
X149516199Y-95344021D01*
X149516189Y-95344018D01*
X149322903Y-95305571D01*
X149322901Y-95305571D01*
X149125819Y-95305571D01*
X149125817Y-95305571D01*
X148932530Y-95344018D01*
X148932520Y-95344021D01*
X148750452Y-95419435D01*
X148750439Y-95419442D01*
X148586578Y-95528931D01*
X148586574Y-95528934D01*
X148447223Y-95668285D01*
X148447220Y-95668289D01*
X148337731Y-95832150D01*
X148337724Y-95832163D01*
X148262310Y-96014231D01*
X148262307Y-96014241D01*
X148223860Y-96207527D01*
X148223860Y-96207530D01*
X148223860Y-96404612D01*
X148223860Y-96404614D01*
X148223859Y-96404614D01*
X148262307Y-96597900D01*
X148262310Y-96597910D01*
X148337724Y-96779978D01*
X148337731Y-96779991D01*
X148447220Y-96943852D01*
X148447223Y-96943856D01*
X148557307Y-97053940D01*
X148590792Y-97115263D01*
X148585808Y-97184955D01*
X148572728Y-97210512D01*
X148494969Y-97326885D01*
X148494962Y-97326898D01*
X148434624Y-97472569D01*
X148434621Y-97472581D01*
X148403860Y-97627224D01*
X148403860Y-97784917D01*
X148434621Y-97939560D01*
X148434624Y-97939572D01*
X148494962Y-98085243D01*
X148494969Y-98085256D01*
X148582962Y-98216945D01*
X148603840Y-98283622D01*
X148603860Y-98285836D01*
X148603860Y-98615973D01*
X148584175Y-98683012D01*
X148567541Y-98703654D01*
X147053841Y-100217353D01*
X147053839Y-100217356D01*
X147013869Y-100286588D01*
X147013868Y-100286589D01*
X146996191Y-100317207D01*
X146974783Y-100354286D01*
X146933859Y-100507014D01*
X146933859Y-100507016D01*
X146933859Y-100675117D01*
X146933860Y-100675130D01*
X146933860Y-103950352D01*
X146914175Y-104017391D01*
X146866155Y-104060836D01*
X146826545Y-104081018D01*
X146826544Y-104081019D01*
X146654573Y-104205961D01*
X146504250Y-104356284D01*
X146379309Y-104528253D01*
X146374844Y-104537017D01*
X146326869Y-104587813D01*
X146259048Y-104604607D01*
X146192913Y-104582069D01*
X146153876Y-104537017D01*
X146149410Y-104528253D01*
X146024469Y-104356284D01*
X145874146Y-104205961D01*
X145702175Y-104081019D01*
X145702174Y-104081018D01*
X145662565Y-104060836D01*
X145611769Y-104012862D01*
X145594860Y-103950352D01*
X145594860Y-100646168D01*
X145614545Y-100579129D01*
X145631179Y-100558487D01*
X146257340Y-99932326D01*
X146909024Y-99280642D01*
X146970345Y-99247159D01*
X146972512Y-99246708D01*
X146973201Y-99246571D01*
X146973202Y-99246571D01*
X147127857Y-99215808D01*
X147273539Y-99155465D01*
X147404649Y-99067860D01*
X147516149Y-98956360D01*
X147603754Y-98825250D01*
X147664097Y-98679568D01*
X147694860Y-98524913D01*
X147694860Y-98367229D01*
X147694860Y-98367226D01*
X147694859Y-98367224D01*
X147682638Y-98305787D01*
X147664097Y-98212574D01*
X147642143Y-98159572D01*
X147603757Y-98066898D01*
X147603750Y-98066885D01*
X147515758Y-97935196D01*
X147494880Y-97868518D01*
X147494860Y-97866305D01*
X147494860Y-97181855D01*
X147514545Y-97114816D01*
X147531179Y-97094174D01*
X147671496Y-96953856D01*
X147671499Y-96953853D01*
X147780992Y-96789985D01*
X147856411Y-96607906D01*
X147894860Y-96414612D01*
X147894860Y-96217530D01*
X147894860Y-96217527D01*
X147856412Y-96024241D01*
X147856411Y-96024240D01*
X147856411Y-96024236D01*
X147838150Y-95980150D01*
X147780995Y-95842163D01*
X147780988Y-95842150D01*
X147671499Y-95678289D01*
X147671496Y-95678285D01*
X147532145Y-95538934D01*
X147532141Y-95538931D01*
X147368280Y-95429442D01*
X147368267Y-95429435D01*
X147186199Y-95354021D01*
X147186189Y-95354018D01*
X146992903Y-95315571D01*
X146992901Y-95315571D01*
X146795819Y-95315571D01*
X146795817Y-95315571D01*
X146602530Y-95354018D01*
X146602520Y-95354021D01*
X146420452Y-95429435D01*
X146420439Y-95429442D01*
X146256578Y-95538931D01*
X146256574Y-95538934D01*
X146117223Y-95678285D01*
X146117220Y-95678289D01*
X146007731Y-95842150D01*
X146007724Y-95842163D01*
X145932310Y-96024231D01*
X145932307Y-96024241D01*
X145893860Y-96217527D01*
X145893860Y-96217530D01*
X145893860Y-96414612D01*
X145893860Y-96414614D01*
X145893859Y-96414614D01*
X145932307Y-96607900D01*
X145932310Y-96607910D01*
X146007724Y-96789978D01*
X146007731Y-96789991D01*
X146117220Y-96953852D01*
X146117223Y-96953856D01*
X146257541Y-97094174D01*
X146291026Y-97155497D01*
X146293860Y-97181855D01*
X146293860Y-97866305D01*
X146274175Y-97933344D01*
X146272962Y-97935196D01*
X146184969Y-98066885D01*
X146184962Y-98066898D01*
X146124624Y-98212569D01*
X146124621Y-98212579D01*
X146093722Y-98367919D01*
X146061337Y-98429830D01*
X146059786Y-98431408D01*
X145092857Y-99398337D01*
X145031534Y-99431822D01*
X144961842Y-99426838D01*
X144905909Y-99384966D01*
X144902074Y-99379547D01*
X144866149Y-99325782D01*
X144866146Y-99325778D01*
X144754652Y-99214284D01*
X144754648Y-99214281D01*
X144623545Y-99126680D01*
X144623532Y-99126673D01*
X144477861Y-99066335D01*
X144477849Y-99066332D01*
X144323205Y-99035571D01*
X144323202Y-99035571D01*
X144165518Y-99035571D01*
X144165515Y-99035571D01*
X144010870Y-99066332D01*
X144010858Y-99066335D01*
X143866496Y-99126132D01*
X143819044Y-99135571D01*
X142082095Y-99135571D01*
X142015056Y-99115886D01*
X141969301Y-99063082D01*
X141959357Y-98993924D01*
X141988382Y-98930368D01*
X142013204Y-98908469D01*
X142120150Y-98837009D01*
X142148327Y-98818182D01*
X142259827Y-98706682D01*
X142347432Y-98575572D01*
X142407775Y-98429890D01*
X142438538Y-98275235D01*
X142438538Y-98117551D01*
X142438538Y-98117548D01*
X142438537Y-98117546D01*
X142428460Y-98066885D01*
X142407775Y-97962896D01*
X142401988Y-97948924D01*
X142347435Y-97817220D01*
X142347428Y-97817207D01*
X142259827Y-97686104D01*
X142259824Y-97686100D01*
X142148330Y-97574606D01*
X142148326Y-97574603D01*
X142017223Y-97487002D01*
X142017210Y-97486995D01*
X141871539Y-97426657D01*
X141871527Y-97426654D01*
X141716883Y-97395893D01*
X141716880Y-97395893D01*
X141559196Y-97395893D01*
X141559193Y-97395893D01*
X141404548Y-97426654D01*
X141398714Y-97428424D01*
X141397911Y-97425778D01*
X141340094Y-97431789D01*
X141277725Y-97400295D01*
X141242283Y-97340082D01*
X141238538Y-97309837D01*
X141238538Y-96667496D01*
X141258223Y-96600457D01*
X141311027Y-96554702D01*
X141380185Y-96544758D01*
X141443741Y-96573783D01*
X141477097Y-96620041D01*
X141496754Y-96667496D01*
X141499967Y-96675252D01*
X141499969Y-96675256D01*
X141587570Y-96806359D01*
X141587573Y-96806363D01*
X141699067Y-96917857D01*
X141699071Y-96917860D01*
X141830174Y-97005461D01*
X141830187Y-97005468D01*
X141975858Y-97065806D01*
X141975863Y-97065808D01*
X142113621Y-97093210D01*
X142130513Y-97096570D01*
X142130516Y-97096571D01*
X142130518Y-97096571D01*
X142288204Y-97096571D01*
X142288205Y-97096570D01*
X142442857Y-97065808D01*
X142588539Y-97005465D01*
X142588545Y-97005461D01*
X142720235Y-96917469D01*
X142786913Y-96896591D01*
X142789126Y-96896571D01*
X143718576Y-96896571D01*
X143785615Y-96916256D01*
X143806257Y-96932890D01*
X143946574Y-97073207D01*
X143946578Y-97073210D01*
X144110439Y-97182699D01*
X144110452Y-97182706D01*
X144292520Y-97258120D01*
X144292525Y-97258122D01*
X144292529Y-97258122D01*
X144292530Y-97258123D01*
X144485816Y-97296571D01*
X144485819Y-97296571D01*
X144682903Y-97296571D01*
X144812942Y-97270703D01*
X144876195Y-97258122D01*
X145058274Y-97182703D01*
X145222142Y-97073210D01*
X145361499Y-96933853D01*
X145470992Y-96769985D01*
X145546411Y-96587906D01*
X145558992Y-96524653D01*
X145584860Y-96394614D01*
X145584860Y-96197527D01*
X145546412Y-96004241D01*
X145546411Y-96004240D01*
X145546411Y-96004236D01*
X145510232Y-95916892D01*
X145470995Y-95822163D01*
X145470988Y-95822150D01*
X145361499Y-95658289D01*
X145361496Y-95658285D01*
X145222145Y-95518934D01*
X145222141Y-95518931D01*
X145058280Y-95409442D01*
X145058267Y-95409435D01*
X144876199Y-95334021D01*
X144876189Y-95334018D01*
X144682903Y-95295571D01*
X144682901Y-95295571D01*
X144485819Y-95295571D01*
X144485817Y-95295571D01*
X144292530Y-95334018D01*
X144292520Y-95334021D01*
X144110452Y-95409435D01*
X144110439Y-95409442D01*
X143946578Y-95518931D01*
X143946574Y-95518934D01*
X143806257Y-95659252D01*
X143744934Y-95692737D01*
X143718576Y-95695571D01*
X142789126Y-95695571D01*
X142722087Y-95675886D01*
X142720235Y-95674673D01*
X142588545Y-95586680D01*
X142588532Y-95586673D01*
X142442861Y-95526335D01*
X142442849Y-95526332D01*
X142288205Y-95495571D01*
X142288202Y-95495571D01*
X142130518Y-95495571D01*
X142130515Y-95495571D01*
X141975870Y-95526332D01*
X141975858Y-95526335D01*
X141830187Y-95586673D01*
X141830174Y-95586680D01*
X141699071Y-95674281D01*
X141699067Y-95674284D01*
X141587573Y-95785778D01*
X141587570Y-95785782D01*
X141499969Y-95916885D01*
X141499962Y-95916898D01*
X141477099Y-95972097D01*
X141433258Y-96026501D01*
X141366964Y-96048566D01*
X141299265Y-96031287D01*
X141251654Y-95980150D01*
X141238538Y-95924645D01*
X141238538Y-89620393D01*
X144582538Y-89620393D01*
X144582538Y-94372393D01*
X144582539Y-94372402D01*
X144594090Y-94479843D01*
X144594092Y-94479855D01*
X144605298Y-94531365D01*
X144639421Y-94633890D01*
X144639424Y-94633896D01*
X144717209Y-94754930D01*
X144717217Y-94754941D01*
X144762961Y-94807733D01*
X144762964Y-94807736D01*
X144762968Y-94807740D01*
X144871702Y-94901960D01*
X144871705Y-94901961D01*
X144871706Y-94901962D01*
X144965963Y-94945009D01*
X145002579Y-94961731D01*
X145069618Y-94981416D01*
X145069622Y-94981417D01*
X145212038Y-95001893D01*
X145212041Y-95001893D01*
X150664028Y-95001893D01*
X150664038Y-95001893D01*
X150771494Y-94990340D01*
X150823005Y-94979134D01*
X150857235Y-94967740D01*
X150925535Y-94945009D01*
X150925539Y-94945006D01*
X150925542Y-94945006D01*
X151046581Y-94867218D01*
X151099385Y-94821463D01*
X151193605Y-94712729D01*
X151253376Y-94581852D01*
X151273061Y-94514813D01*
X151273062Y-94514809D01*
X151293538Y-94372393D01*
X151293538Y-89620393D01*
X151281985Y-89512937D01*
X151270779Y-89461426D01*
X151270675Y-89461115D01*
X151236654Y-89358895D01*
X151236651Y-89358889D01*
X151158866Y-89237855D01*
X151158863Y-89237850D01*
X151158858Y-89237844D01*
X151113114Y-89185052D01*
X151113110Y-89185049D01*
X151113108Y-89185046D01*
X151004374Y-89090826D01*
X151004371Y-89090824D01*
X151004369Y-89090823D01*
X150873503Y-89031057D01*
X150873498Y-89031055D01*
X150873497Y-89031055D01*
X150806458Y-89011370D01*
X150806460Y-89011370D01*
X150806455Y-89011369D01*
X150744385Y-89002445D01*
X150664038Y-88990893D01*
X145212038Y-88990893D01*
X145212029Y-88990893D01*
X145212028Y-88990894D01*
X145104587Y-89002445D01*
X145104575Y-89002447D01*
X145053065Y-89013653D01*
X144950540Y-89047776D01*
X144950534Y-89047779D01*
X144829500Y-89125564D01*
X144829489Y-89125572D01*
X144776697Y-89171316D01*
X144682471Y-89280057D01*
X144682468Y-89280061D01*
X144622702Y-89410927D01*
X144603014Y-89477975D01*
X144597987Y-89512942D01*
X144582538Y-89620393D01*
X141238538Y-89620393D01*
X141238538Y-86236923D01*
X141238539Y-86236910D01*
X141238539Y-86068809D01*
X141238539Y-86068807D01*
X141198008Y-85917546D01*
X144437538Y-85917546D01*
X144437538Y-86075239D01*
X144468299Y-86229882D01*
X144468302Y-86229894D01*
X144528640Y-86375565D01*
X144528647Y-86375578D01*
X144616248Y-86506681D01*
X144616251Y-86506685D01*
X144727745Y-86618179D01*
X144727749Y-86618182D01*
X144858852Y-86705783D01*
X144858865Y-86705790D01*
X145004536Y-86766128D01*
X145004541Y-86766130D01*
X145159191Y-86796892D01*
X145159194Y-86796893D01*
X145159196Y-86796893D01*
X145316882Y-86796893D01*
X145316883Y-86796892D01*
X145471535Y-86766130D01*
X145617217Y-86705787D01*
X145730410Y-86630154D01*
X145748913Y-86617791D01*
X145815591Y-86596913D01*
X145817804Y-86596893D01*
X149474594Y-86596893D01*
X149541633Y-86616578D01*
X149543485Y-86617791D01*
X149675174Y-86705783D01*
X149675187Y-86705790D01*
X149820858Y-86766128D01*
X149820863Y-86766130D01*
X149975513Y-86796892D01*
X149975516Y-86796893D01*
X149975518Y-86796893D01*
X150133204Y-86796893D01*
X150133205Y-86796892D01*
X150287857Y-86766130D01*
X150433539Y-86705787D01*
X150564649Y-86618182D01*
X150676149Y-86506682D01*
X150763754Y-86375572D01*
X150824097Y-86229890D01*
X150854860Y-86075235D01*
X150854860Y-85917551D01*
X150854860Y-85917548D01*
X150854859Y-85917546D01*
X153587538Y-85917546D01*
X153587538Y-86075239D01*
X153618299Y-86229882D01*
X153618302Y-86229894D01*
X153678640Y-86375565D01*
X153678647Y-86375578D01*
X153766248Y-86506681D01*
X153766251Y-86506685D01*
X153877745Y-86618179D01*
X153877749Y-86618182D01*
X154008852Y-86705783D01*
X154008865Y-86705790D01*
X154154536Y-86766128D01*
X154154541Y-86766130D01*
X154309191Y-86796892D01*
X154309194Y-86796893D01*
X154309196Y-86796893D01*
X154466882Y-86796893D01*
X154466883Y-86796892D01*
X154621535Y-86766130D01*
X154767217Y-86705787D01*
X154880410Y-86630154D01*
X154898913Y-86617791D01*
X154965591Y-86596913D01*
X154967804Y-86596893D01*
X158513538Y-86596893D01*
X158580577Y-86616578D01*
X158626332Y-86669382D01*
X158637538Y-86720893D01*
X158637538Y-86875239D01*
X158668299Y-87029882D01*
X158668302Y-87029894D01*
X158728640Y-87175565D01*
X158728647Y-87175578D01*
X158816640Y-87307267D01*
X158837518Y-87373944D01*
X158837538Y-87376158D01*
X158837538Y-97016627D01*
X158817853Y-97083666D01*
X158816640Y-97085518D01*
X158728647Y-97217207D01*
X158728640Y-97217220D01*
X158668302Y-97362891D01*
X158668299Y-97362903D01*
X158637538Y-97517546D01*
X158637538Y-97675239D01*
X158668299Y-97829882D01*
X158668302Y-97829894D01*
X158728640Y-97975565D01*
X158728647Y-97975578D01*
X158816248Y-98106681D01*
X158816251Y-98106685D01*
X158927745Y-98218179D01*
X158927749Y-98218182D01*
X159058852Y-98305783D01*
X159058865Y-98305790D01*
X159204536Y-98366128D01*
X159204541Y-98366130D01*
X159315025Y-98388106D01*
X159337729Y-98392623D01*
X159365852Y-98407333D01*
X159394741Y-98420527D01*
X159396598Y-98423416D01*
X159399640Y-98425008D01*
X159415346Y-98452590D01*
X159432515Y-98479305D01*
X159433175Y-98483899D01*
X159434214Y-98485723D01*
X159437538Y-98514240D01*
X159437538Y-98565502D01*
X159417853Y-98632541D01*
X159365049Y-98678296D01*
X159337730Y-98687119D01*
X159190868Y-98716332D01*
X159190858Y-98716335D01*
X159045187Y-98776673D01*
X159045174Y-98776680D01*
X158914071Y-98864281D01*
X158914067Y-98864284D01*
X158802573Y-98975778D01*
X158802570Y-98975782D01*
X158714969Y-99106885D01*
X158714962Y-99106898D01*
X158654624Y-99252569D01*
X158654621Y-99252581D01*
X158623860Y-99407224D01*
X158623860Y-99564917D01*
X158654621Y-99719560D01*
X158654624Y-99719572D01*
X158714962Y-99865243D01*
X158714969Y-99865256D01*
X158802962Y-99996945D01*
X158823840Y-100063622D01*
X158823860Y-100065836D01*
X158823860Y-102639401D01*
X158823859Y-102639419D01*
X158823859Y-102805125D01*
X158823858Y-102805125D01*
X158864784Y-102957860D01*
X158864785Y-102957861D01*
X158887927Y-102997943D01*
X158887928Y-102997945D01*
X158943835Y-103094780D01*
X158943841Y-103094788D01*
X159062709Y-103213656D01*
X159062715Y-103213661D01*
X159517541Y-103668487D01*
X159551026Y-103729810D01*
X159553860Y-103756168D01*
X159553860Y-116231271D01*
X159534175Y-116298310D01*
X159532962Y-116300162D01*
X159454969Y-116416885D01*
X159454962Y-116416898D01*
X159394624Y-116562569D01*
X159394621Y-116562581D01*
X159363860Y-116717224D01*
X159363860Y-116874917D01*
X159394621Y-117029560D01*
X159394624Y-117029572D01*
X159454962Y-117175243D01*
X159454969Y-117175256D01*
X159542570Y-117306359D01*
X159542573Y-117306363D01*
X159654067Y-117417857D01*
X159654071Y-117417860D01*
X159785174Y-117505461D01*
X159785187Y-117505468D01*
X159930858Y-117565806D01*
X159930863Y-117565808D01*
X160085513Y-117596570D01*
X160085516Y-117596571D01*
X160085518Y-117596571D01*
X160243204Y-117596571D01*
X160243205Y-117596570D01*
X160397857Y-117565808D01*
X160543539Y-117505465D01*
X160674649Y-117417860D01*
X160786149Y-117306360D01*
X160873754Y-117175250D01*
X160882805Y-117153400D01*
X160921943Y-117058910D01*
X160934097Y-117029568D01*
X160964860Y-116874913D01*
X160964860Y-116717229D01*
X160964860Y-116717226D01*
X160964859Y-116717224D01*
X160934097Y-116562574D01*
X160885933Y-116446294D01*
X160873757Y-116416898D01*
X160873750Y-116416885D01*
X160786151Y-116285784D01*
X160783002Y-116281947D01*
X160755693Y-116217635D01*
X160754860Y-116203287D01*
X160754860Y-103545130D01*
X160754861Y-103545117D01*
X160754861Y-103377016D01*
X160754861Y-103377014D01*
X160713937Y-103224286D01*
X160661551Y-103133551D01*
X160634880Y-103087355D01*
X160523076Y-102975551D01*
X160523073Y-102975549D01*
X160061179Y-102513655D01*
X160027694Y-102452332D01*
X160024860Y-102425974D01*
X160024860Y-101616961D01*
X160044545Y-101549922D01*
X160097349Y-101504167D01*
X160124669Y-101495344D01*
X160178172Y-101484701D01*
X160271535Y-101466130D01*
X160415894Y-101406335D01*
X160417210Y-101405790D01*
X160417210Y-101405789D01*
X160417217Y-101405787D01*
X160548327Y-101318182D01*
X160659827Y-101206682D01*
X160747432Y-101075572D01*
X160807775Y-100929890D01*
X160838538Y-100775235D01*
X160838538Y-100617551D01*
X160838538Y-100617548D01*
X160838537Y-100617546D01*
X160834014Y-100594806D01*
X160807775Y-100462896D01*
X160791998Y-100424806D01*
X160747435Y-100317220D01*
X160747428Y-100317207D01*
X160659436Y-100185518D01*
X160638558Y-100118840D01*
X160638538Y-100116627D01*
X160638538Y-99530501D01*
X161237538Y-99530501D01*
X161237538Y-104462284D01*
X161271646Y-104589580D01*
X161292752Y-104626136D01*
X161337538Y-104703707D01*
X161430724Y-104796893D01*
X161515187Y-104845658D01*
X161544292Y-104862462D01*
X161544852Y-104862785D01*
X161672146Y-104896893D01*
X161672148Y-104896893D01*
X163303928Y-104896893D01*
X163303930Y-104896893D01*
X163431224Y-104862785D01*
X163545352Y-104796893D01*
X163638538Y-104703707D01*
X163704430Y-104589579D01*
X163738538Y-104462285D01*
X163738538Y-99530501D01*
X163704430Y-99403207D01*
X163638538Y-99289079D01*
X163545352Y-99195893D01*
X163475322Y-99155461D01*
X163431225Y-99130001D01*
X163367577Y-99112947D01*
X163303930Y-99095893D01*
X161803930Y-99095893D01*
X161672146Y-99095893D01*
X161544850Y-99130001D01*
X161430724Y-99195893D01*
X161430721Y-99195895D01*
X161337540Y-99289076D01*
X161337538Y-99289079D01*
X161271646Y-99403205D01*
X161237538Y-99530501D01*
X160638538Y-99530501D01*
X160638538Y-92944691D01*
X160658223Y-92877652D01*
X160711027Y-92831897D01*
X160780185Y-92821953D01*
X160835423Y-92844373D01*
X160881228Y-92877652D01*
X160904016Y-92894208D01*
X161032413Y-92959630D01*
X161100431Y-92994288D01*
X161100434Y-92994289D01*
X161205259Y-93028348D01*
X161310087Y-93062408D01*
X161527816Y-93096893D01*
X161527817Y-93096893D01*
X161748259Y-93096893D01*
X161748260Y-93096893D01*
X161965989Y-93062408D01*
X162175644Y-92994288D01*
X162372060Y-92894208D01*
X162550403Y-92764635D01*
X162706280Y-92608758D01*
X162835853Y-92430415D01*
X162935933Y-92233999D01*
X163004053Y-92024344D01*
X163038538Y-91806615D01*
X163038538Y-91586171D01*
X163004053Y-91368442D01*
X162935933Y-91158787D01*
X162935933Y-91158786D01*
X162901275Y-91090768D01*
X162835853Y-90962371D01*
X162819298Y-90939585D01*
X162706285Y-90784034D01*
X162706281Y-90784029D01*
X162550401Y-90628149D01*
X162550396Y-90628145D01*
X162372063Y-90498580D01*
X162372062Y-90498579D01*
X162372060Y-90498578D01*
X162272981Y-90448094D01*
X162175644Y-90398497D01*
X162175641Y-90398496D01*
X161965990Y-90330378D01*
X161857124Y-90313135D01*
X161748260Y-90295893D01*
X161527816Y-90295893D01*
X161455239Y-90307388D01*
X161310085Y-90330378D01*
X161100434Y-90398496D01*
X161100431Y-90398497D01*
X160904013Y-90498579D01*
X160835422Y-90548413D01*
X160769616Y-90571892D01*
X160701562Y-90556066D01*
X160652868Y-90505960D01*
X160638538Y-90448094D01*
X160638538Y-89844691D01*
X160658223Y-89777652D01*
X160711027Y-89731897D01*
X160780185Y-89721953D01*
X160835423Y-89744373D01*
X160881228Y-89777652D01*
X160904016Y-89794208D01*
X161032413Y-89859630D01*
X161100431Y-89894288D01*
X161100434Y-89894289D01*
X161205259Y-89928348D01*
X161310087Y-89962408D01*
X161527816Y-89996893D01*
X161527817Y-89996893D01*
X161748259Y-89996893D01*
X161748260Y-89996893D01*
X161965989Y-89962408D01*
X162175644Y-89894288D01*
X162372060Y-89794208D01*
X162550403Y-89664635D01*
X162706280Y-89508758D01*
X162835853Y-89330415D01*
X162935933Y-89133999D01*
X163004053Y-88924344D01*
X163038538Y-88706615D01*
X163038538Y-88486171D01*
X163004053Y-88268442D01*
X162935933Y-88058787D01*
X162935933Y-88058786D01*
X162866823Y-87923153D01*
X162835853Y-87862371D01*
X162799315Y-87812080D01*
X162706285Y-87684034D01*
X162706281Y-87684029D01*
X162550401Y-87528149D01*
X162550396Y-87528145D01*
X162372063Y-87398580D01*
X162372062Y-87398579D01*
X162372060Y-87398578D01*
X162290901Y-87357225D01*
X162175644Y-87298497D01*
X162175641Y-87298496D01*
X161965990Y-87230378D01*
X161849520Y-87211931D01*
X161748260Y-87195893D01*
X161527816Y-87195893D01*
X161370011Y-87220886D01*
X161300718Y-87211931D01*
X161247266Y-87166935D01*
X161226627Y-87100183D01*
X161245352Y-87032869D01*
X161262928Y-87010737D01*
X161618777Y-86654890D01*
X161680100Y-86621405D01*
X161706458Y-86618571D01*
X162525691Y-86618571D01*
X162525707Y-86618572D01*
X162533303Y-86618572D01*
X162691414Y-86618572D01*
X162691417Y-86618572D01*
X162844145Y-86577648D01*
X162929784Y-86528204D01*
X162967064Y-86506681D01*
X162981069Y-86498595D01*
X162981068Y-86498595D01*
X162981076Y-86498591D01*
X163092880Y-86386787D01*
X163092880Y-86386785D01*
X163103084Y-86376582D01*
X163103088Y-86376577D01*
X163486544Y-85993121D01*
X163486549Y-85993117D01*
X163496752Y-85982913D01*
X163496754Y-85982913D01*
X163608558Y-85871109D01*
X163678566Y-85749851D01*
X163687615Y-85734178D01*
X163728539Y-85581450D01*
X163728539Y-85423336D01*
X163728539Y-85415741D01*
X163728538Y-85415723D01*
X163728538Y-85407184D01*
X163748223Y-85340145D01*
X163779650Y-85306868D01*
X163910111Y-85212083D01*
X164043728Y-85078466D01*
X164154798Y-84925592D01*
X164240585Y-84757225D01*
X164298978Y-84577511D01*
X164303222Y-84550716D01*
X164328538Y-84390879D01*
X164328538Y-84201906D01*
X164298978Y-84015274D01*
X164271884Y-83931890D01*
X164240585Y-83835561D01*
X164240583Y-83835558D01*
X164240583Y-83835556D01*
X164183866Y-83724244D01*
X164154798Y-83667194D01*
X164043728Y-83514320D01*
X163910111Y-83380703D01*
X163757237Y-83269633D01*
X163750609Y-83266256D01*
X163588874Y-83183847D01*
X163409156Y-83125452D01*
X163222524Y-83095893D01*
X163222519Y-83095893D01*
X163033557Y-83095893D01*
X163033552Y-83095893D01*
X162846919Y-83125452D01*
X162667201Y-83183847D01*
X162498838Y-83269633D01*
X162480592Y-83282890D01*
X162345965Y-83380703D01*
X162345963Y-83380705D01*
X162345962Y-83380705D01*
X162212350Y-83514317D01*
X162212350Y-83514318D01*
X162212348Y-83514320D01*
X162164648Y-83579972D01*
X162101278Y-83667193D01*
X162015492Y-83835556D01*
X161975969Y-83957196D01*
X161936531Y-84014871D01*
X161872172Y-84042069D01*
X161803326Y-84030154D01*
X161751850Y-83982909D01*
X161740107Y-83957196D01*
X161729687Y-83925127D01*
X161700585Y-83835561D01*
X161700583Y-83835558D01*
X161700583Y-83835556D01*
X161643866Y-83724244D01*
X161614798Y-83667194D01*
X161503728Y-83514320D01*
X161370111Y-83380703D01*
X161217237Y-83269633D01*
X161210609Y-83266256D01*
X161048874Y-83183847D01*
X160869156Y-83125452D01*
X160682524Y-83095893D01*
X160682519Y-83095893D01*
X160493557Y-83095893D01*
X160493552Y-83095893D01*
X160306919Y-83125452D01*
X160127201Y-83183847D01*
X159958838Y-83269633D01*
X159940592Y-83282890D01*
X159805965Y-83380703D01*
X159805963Y-83380705D01*
X159805962Y-83380705D01*
X159672350Y-83514317D01*
X159672350Y-83514318D01*
X159672348Y-83514320D01*
X159624648Y-83579972D01*
X159561278Y-83667193D01*
X159475492Y-83835556D01*
X159417097Y-84015274D01*
X159387538Y-84201906D01*
X159387538Y-84390879D01*
X159417097Y-84577511D01*
X159475492Y-84757229D01*
X159561278Y-84925592D01*
X159614618Y-84999008D01*
X159638098Y-85064813D01*
X159622273Y-85132867D01*
X159572168Y-85181562D01*
X159514300Y-85195893D01*
X159359193Y-85195893D01*
X159204548Y-85226654D01*
X159204536Y-85226657D01*
X159058865Y-85286995D01*
X159058852Y-85287002D01*
X158927163Y-85374995D01*
X158860485Y-85395873D01*
X158858272Y-85395893D01*
X154967804Y-85395893D01*
X154900765Y-85376208D01*
X154898913Y-85374995D01*
X154767223Y-85287002D01*
X154767210Y-85286995D01*
X154621539Y-85226657D01*
X154621527Y-85226654D01*
X154466883Y-85195893D01*
X154466880Y-85195893D01*
X154309196Y-85195893D01*
X154309193Y-85195893D01*
X154154548Y-85226654D01*
X154154536Y-85226657D01*
X154008865Y-85286995D01*
X154008852Y-85287002D01*
X153877749Y-85374603D01*
X153877745Y-85374606D01*
X153766251Y-85486100D01*
X153766248Y-85486104D01*
X153678647Y-85617207D01*
X153678640Y-85617220D01*
X153618302Y-85762891D01*
X153618299Y-85762903D01*
X153587538Y-85917546D01*
X150854859Y-85917546D01*
X150845328Y-85869633D01*
X150824097Y-85762896D01*
X150808587Y-85725452D01*
X150763757Y-85617220D01*
X150763750Y-85617207D01*
X150676149Y-85486104D01*
X150676146Y-85486100D01*
X150564652Y-85374606D01*
X150564648Y-85374603D01*
X150433545Y-85287002D01*
X150433532Y-85286995D01*
X150287861Y-85226657D01*
X150287849Y-85226654D01*
X150133205Y-85195893D01*
X150133202Y-85195893D01*
X149975518Y-85195893D01*
X149975515Y-85195893D01*
X149820870Y-85226654D01*
X149820858Y-85226657D01*
X149675187Y-85286995D01*
X149675174Y-85287002D01*
X149543485Y-85374995D01*
X149476807Y-85395873D01*
X149474594Y-85395893D01*
X145817804Y-85395893D01*
X145750765Y-85376208D01*
X145748913Y-85374995D01*
X145617223Y-85287002D01*
X145617210Y-85286995D01*
X145471539Y-85226657D01*
X145471527Y-85226654D01*
X145316883Y-85195893D01*
X145316880Y-85195893D01*
X145159196Y-85195893D01*
X145159193Y-85195893D01*
X145004548Y-85226654D01*
X145004536Y-85226657D01*
X144858865Y-85286995D01*
X144858852Y-85287002D01*
X144727749Y-85374603D01*
X144727745Y-85374606D01*
X144616251Y-85486100D01*
X144616248Y-85486104D01*
X144528647Y-85617207D01*
X144528640Y-85617220D01*
X144468302Y-85762891D01*
X144468299Y-85762903D01*
X144437538Y-85917546D01*
X141198008Y-85917546D01*
X141197615Y-85916079D01*
X141160780Y-85852279D01*
X141158087Y-85847615D01*
X141158085Y-85847610D01*
X141118562Y-85779154D01*
X141118559Y-85779150D01*
X141118558Y-85779148D01*
X141006754Y-85667344D01*
X141006753Y-85667343D01*
X141002423Y-85663013D01*
X141002412Y-85663003D01*
X137674842Y-82335433D01*
X137641357Y-82274110D01*
X137640920Y-82272017D01*
X137629097Y-82212574D01*
X137582790Y-82100778D01*
X137568757Y-82066898D01*
X137568750Y-82066885D01*
X137481149Y-81935782D01*
X137481146Y-81935778D01*
X137369652Y-81824284D01*
X137369648Y-81824281D01*
X137238545Y-81736680D01*
X137238532Y-81736673D01*
X137092861Y-81676335D01*
X137092849Y-81676332D01*
X136938205Y-81645571D01*
X136938202Y-81645571D01*
X136780518Y-81645571D01*
X136780515Y-81645571D01*
X136625870Y-81676332D01*
X136625858Y-81676335D01*
X136480187Y-81736673D01*
X136480174Y-81736680D01*
X136349071Y-81824281D01*
X136349067Y-81824284D01*
X136237573Y-81935778D01*
X136237570Y-81935782D01*
X136149969Y-82066885D01*
X136149962Y-82066898D01*
X136089624Y-82212569D01*
X136089621Y-82212581D01*
X136058860Y-82367224D01*
X136058860Y-82524917D01*
X136089621Y-82679560D01*
X136089624Y-82679572D01*
X136149962Y-82825243D01*
X136149969Y-82825256D01*
X136237570Y-82956359D01*
X136237573Y-82956363D01*
X136349067Y-83067857D01*
X136349071Y-83067860D01*
X136480174Y-83155461D01*
X136480187Y-83155468D01*
X136586103Y-83199339D01*
X136625863Y-83215808D01*
X136780513Y-83246570D01*
X136780516Y-83246571D01*
X136780518Y-83246571D01*
X136836148Y-83246571D01*
X136903187Y-83266256D01*
X136923829Y-83282890D01*
X138588668Y-84947729D01*
X138622153Y-85009052D01*
X138617169Y-85078744D01*
X138604089Y-85104300D01*
X138528650Y-85217202D01*
X138528640Y-85217220D01*
X138468302Y-85362891D01*
X138468299Y-85362903D01*
X138437538Y-85517546D01*
X138437538Y-85584762D01*
X138417853Y-85651801D01*
X138365049Y-85697556D01*
X138295891Y-85707500D01*
X138294141Y-85707236D01*
X138222519Y-85695893D01*
X138033557Y-85695893D01*
X138033552Y-85695893D01*
X137846919Y-85725452D01*
X137667201Y-85783847D01*
X137498838Y-85869633D01*
X137432890Y-85917548D01*
X137345965Y-85980703D01*
X137345963Y-85980705D01*
X137345962Y-85980705D01*
X137212350Y-86114317D01*
X137212350Y-86114318D01*
X137212348Y-86114320D01*
X137180278Y-86158460D01*
X137101278Y-86267193D01*
X137015492Y-86435556D01*
X136975969Y-86557196D01*
X136936531Y-86614871D01*
X136872172Y-86642069D01*
X136803326Y-86630154D01*
X136751850Y-86582909D01*
X136740107Y-86557196D01*
X136700583Y-86435556D01*
X136614797Y-86267193D01*
X136503728Y-86114320D01*
X136370111Y-85980703D01*
X136217237Y-85869633D01*
X136183178Y-85852279D01*
X136048874Y-85783847D01*
X135869156Y-85725452D01*
X135682524Y-85695893D01*
X135682519Y-85695893D01*
X135493557Y-85695893D01*
X135493552Y-85695893D01*
X135306919Y-85725452D01*
X135127201Y-85783847D01*
X134958838Y-85869633D01*
X134892890Y-85917548D01*
X134805965Y-85980703D01*
X134805963Y-85980705D01*
X134805962Y-85980705D01*
X134672350Y-86114317D01*
X134672350Y-86114318D01*
X134672348Y-86114320D01*
X134640278Y-86158460D01*
X134561278Y-86267193D01*
X134475492Y-86435556D01*
X134417097Y-86615274D01*
X134387538Y-86801906D01*
X134387538Y-86990879D01*
X134417097Y-87177511D01*
X134475492Y-87357229D01*
X134561278Y-87525592D01*
X134672348Y-87678466D01*
X134805965Y-87812083D01*
X134958839Y-87923153D01*
X135038385Y-87963683D01*
X135127201Y-88008938D01*
X135127203Y-88008938D01*
X135127206Y-88008940D01*
X135223535Y-88040239D01*
X135306919Y-88067333D01*
X135493552Y-88096893D01*
X135493557Y-88096893D01*
X135682524Y-88096893D01*
X135869156Y-88067333D01*
X135869162Y-88067331D01*
X136048870Y-88008940D01*
X136217237Y-87923153D01*
X136370111Y-87812083D01*
X136503728Y-87678466D01*
X136614798Y-87525592D01*
X136700585Y-87357225D01*
X136740107Y-87235588D01*
X136779545Y-87177914D01*
X136843904Y-87150716D01*
X136912750Y-87162631D01*
X136964226Y-87209875D01*
X136975969Y-87235589D01*
X137015492Y-87357229D01*
X137101278Y-87525592D01*
X137212348Y-87678466D01*
X137345965Y-87812083D01*
X137498839Y-87923153D01*
X137578385Y-87963683D01*
X137667201Y-88008938D01*
X137667203Y-88008938D01*
X137667206Y-88008940D01*
X137771014Y-88042669D01*
X137846913Y-88067331D01*
X137846914Y-88067331D01*
X137846920Y-88067333D01*
X137932938Y-88080956D01*
X137996070Y-88110884D01*
X138033002Y-88170196D01*
X138037538Y-88203429D01*
X138037538Y-88275239D01*
X138068299Y-88429882D01*
X138068302Y-88429894D01*
X138128640Y-88575565D01*
X138128647Y-88575578D01*
X138216248Y-88706681D01*
X138216251Y-88706685D01*
X138327745Y-88818179D01*
X138327749Y-88818182D01*
X138458852Y-88905783D01*
X138458865Y-88905790D01*
X138604536Y-88966128D01*
X138604541Y-88966130D01*
X138759191Y-88996892D01*
X138759194Y-88996893D01*
X138759196Y-88996893D01*
X138916881Y-88996893D01*
X138932602Y-88993765D01*
X138989347Y-88982478D01*
X139058937Y-88988705D01*
X139114115Y-89031567D01*
X139137360Y-89097456D01*
X139137538Y-89104095D01*
X139137538Y-99340755D01*
X139137538Y-99478743D01*
X139137538Y-99478745D01*
X139137537Y-99478745D01*
X139164456Y-99614071D01*
X139164459Y-99614081D01*
X139217260Y-99741556D01*
X139293925Y-99856294D01*
X139293926Y-99856295D01*
X139720246Y-100282613D01*
X139783439Y-100345806D01*
X139817819Y-100380186D01*
X139932542Y-100456842D01*
X139932549Y-100456846D01*
X140004312Y-100486571D01*
X140060031Y-100509651D01*
X140086951Y-100515005D01*
X140184433Y-100534396D01*
X140195366Y-100536571D01*
X140195367Y-100536571D01*
X143819044Y-100536571D01*
X143866496Y-100546010D01*
X144010858Y-100605806D01*
X144010863Y-100605808D01*
X144165513Y-100636570D01*
X144165516Y-100636571D01*
X144269860Y-100636571D01*
X144336899Y-100656256D01*
X144382654Y-100709060D01*
X144393860Y-100760571D01*
X144393860Y-103950352D01*
X144374175Y-104017391D01*
X144326155Y-104060836D01*
X144286545Y-104081018D01*
X144286544Y-104081019D01*
X144114573Y-104205961D01*
X143964250Y-104356284D01*
X143839309Y-104528253D01*
X143834844Y-104537017D01*
X143786869Y-104587813D01*
X143719048Y-104604607D01*
X143652913Y-104582069D01*
X143613876Y-104537017D01*
X143609410Y-104528253D01*
X143484469Y-104356284D01*
X143334146Y-104205961D01*
X143162180Y-104081022D01*
X142972774Y-103984515D01*
X142972773Y-103984514D01*
X142972772Y-103984514D01*
X142770603Y-103918825D01*
X142770601Y-103918824D01*
X142770600Y-103918824D01*
X142609317Y-103893279D01*
X142560647Y-103885571D01*
X142348073Y-103885571D01*
X142299402Y-103893279D01*
X142138120Y-103918824D01*
X141935945Y-103984515D01*
X141746539Y-104081022D01*
X141574573Y-104205961D01*
X141424250Y-104356284D01*
X141299309Y-104528253D01*
X141294844Y-104537017D01*
X141246869Y-104587813D01*
X141179048Y-104604607D01*
X141112913Y-104582069D01*
X141073876Y-104537017D01*
X141069410Y-104528253D01*
X140944469Y-104356284D01*
X140794146Y-104205961D01*
X140622180Y-104081022D01*
X140432774Y-103984515D01*
X140432773Y-103984514D01*
X140432772Y-103984514D01*
X140230603Y-103918825D01*
X140230601Y-103918824D01*
X140230600Y-103918824D01*
X140069317Y-103893279D01*
X140020647Y-103885571D01*
X139808073Y-103885571D01*
X139759402Y-103893279D01*
X139598120Y-103918824D01*
X139395945Y-103984515D01*
X139206539Y-104081022D01*
X139034573Y-104205961D01*
X138884250Y-104356284D01*
X138759311Y-104528250D01*
X138662804Y-104717656D01*
X138648791Y-104760784D01*
X138609353Y-104818460D01*
X138544995Y-104845658D01*
X138476148Y-104833743D01*
X138424673Y-104786499D01*
X138406860Y-104722466D01*
X138406860Y-103914168D01*
X138426545Y-103847129D01*
X138443179Y-103826487D01*
X138734652Y-103535014D01*
X139259022Y-103010643D01*
X139320343Y-102977160D01*
X139322510Y-102976709D01*
X139380445Y-102965184D01*
X139477857Y-102945808D01*
X139623539Y-102885465D01*
X139754649Y-102797860D01*
X139866149Y-102686360D01*
X139953754Y-102555250D01*
X140014097Y-102409568D01*
X140044860Y-102254913D01*
X140044860Y-102097229D01*
X140044860Y-102097226D01*
X140044859Y-102097224D01*
X140028611Y-102015542D01*
X140014097Y-101942574D01*
X139974336Y-101846582D01*
X139953757Y-101796898D01*
X139953750Y-101796885D01*
X139866149Y-101665782D01*
X139866146Y-101665778D01*
X139754652Y-101554284D01*
X139754648Y-101554281D01*
X139623545Y-101466680D01*
X139623532Y-101466673D01*
X139477861Y-101406335D01*
X139477849Y-101406332D01*
X139323205Y-101375571D01*
X139323202Y-101375571D01*
X139165518Y-101375571D01*
X139165515Y-101375571D01*
X139010870Y-101406332D01*
X139010858Y-101406335D01*
X138865187Y-101466673D01*
X138865174Y-101466680D01*
X138734071Y-101554281D01*
X138734067Y-101554284D01*
X138622573Y-101665778D01*
X138622570Y-101665782D01*
X138534969Y-101796885D01*
X138534962Y-101796898D01*
X138474624Y-101942569D01*
X138474621Y-101942579D01*
X138443721Y-102097921D01*
X138411336Y-102159832D01*
X138409785Y-102161410D01*
X137325841Y-103245353D01*
X137325840Y-103245355D01*
X137278950Y-103326571D01*
X137246783Y-103382286D01*
X137205859Y-103535014D01*
X137205859Y-103535016D01*
X137205859Y-103703117D01*
X137205860Y-103703130D01*
X137205860Y-105527974D01*
X137186175Y-105595013D01*
X137169541Y-105615655D01*
X131423377Y-111361818D01*
X131362054Y-111395303D01*
X131359888Y-111395754D01*
X131204546Y-111426654D01*
X131204536Y-111426657D01*
X131058865Y-111486995D01*
X131058852Y-111487002D01*
X130927749Y-111574603D01*
X130927745Y-111574606D01*
X130816251Y-111686100D01*
X130816248Y-111686104D01*
X130728647Y-111817207D01*
X130728640Y-111817220D01*
X130668302Y-111962891D01*
X130668299Y-111962903D01*
X130637538Y-112117546D01*
X129413718Y-112117546D01*
X132086974Y-109057712D01*
X132105103Y-109042956D01*
X132130163Y-109008278D01*
X132158305Y-108976067D01*
X132163963Y-108964536D01*
X132174777Y-108946542D01*
X132182288Y-108936149D01*
X132182292Y-108936144D01*
X132197522Y-108896164D01*
X132216370Y-108857764D01*
X132220886Y-108834835D01*
X132229207Y-108812993D01*
X132233571Y-108770431D01*
X132241837Y-108728464D01*
X132240264Y-108705148D01*
X132242649Y-108681896D01*
X132235848Y-108639654D01*
X132232971Y-108596978D01*
X132225418Y-108574865D01*
X132221703Y-108551787D01*
X132206544Y-108517972D01*
X132205845Y-108516383D01*
X132203917Y-108511917D01*
X132190376Y-108472268D01*
X132180367Y-108457350D01*
X132175846Y-108446875D01*
X132175815Y-108446628D01*
X132175460Y-108445970D01*
X131879083Y-107743935D01*
X131877077Y-107738876D01*
X131595469Y-106980542D01*
X131593687Y-106975399D01*
X131507997Y-106709420D01*
X131345639Y-106205462D01*
X131344085Y-106200249D01*
X131343190Y-106196988D01*
X131130064Y-105420162D01*
X131128741Y-105414887D01*
X131112228Y-105342358D01*
X130949150Y-104626099D01*
X130948074Y-104620841D01*
X130803279Y-103824962D01*
X130802425Y-103819605D01*
X130801981Y-103816360D01*
X130692696Y-103018123D01*
X130692085Y-103012787D01*
X130617633Y-102207235D01*
X130617256Y-102201874D01*
X130578232Y-101393856D01*
X130578090Y-101388419D01*
X130577286Y-101204009D01*
X130574564Y-100579473D01*
X130574659Y-100574107D01*
X130606640Y-99765760D01*
X130606969Y-99760415D01*
X130626226Y-99530179D01*
X133758860Y-99530179D01*
X133758860Y-104461963D01*
X133775914Y-104525610D01*
X133792968Y-104589258D01*
X133814260Y-104626136D01*
X133858860Y-104703385D01*
X133952046Y-104796571D01*
X134066174Y-104862463D01*
X134193468Y-104896571D01*
X134193470Y-104896571D01*
X135825250Y-104896571D01*
X135825252Y-104896571D01*
X135952546Y-104862463D01*
X136066674Y-104796571D01*
X136159860Y-104703385D01*
X136225752Y-104589257D01*
X136259860Y-104461963D01*
X136259860Y-99530179D01*
X136225752Y-99402885D01*
X136159860Y-99288757D01*
X136066674Y-99195571D01*
X135997202Y-99155461D01*
X135952547Y-99129679D01*
X135867503Y-99106892D01*
X135825252Y-99095571D01*
X134325252Y-99095571D01*
X134193468Y-99095571D01*
X134066172Y-99129679D01*
X133952046Y-99195571D01*
X133952043Y-99195573D01*
X133858862Y-99288754D01*
X133858860Y-99288757D01*
X133792968Y-99402883D01*
X133758860Y-99530179D01*
X130626226Y-99530179D01*
X130674399Y-98954214D01*
X130674963Y-98948877D01*
X130777704Y-98146468D01*
X130778513Y-98141094D01*
X130782585Y-98117548D01*
X130916366Y-97343985D01*
X130917396Y-97338717D01*
X131090103Y-96548412D01*
X131091378Y-96543135D01*
X131298610Y-95761141D01*
X131300091Y-95756010D01*
X131541447Y-94983853D01*
X131543166Y-94978752D01*
X131818153Y-94217994D01*
X131820111Y-94212929D01*
X131912363Y-93988983D01*
X132128224Y-93464967D01*
X132130402Y-93459994D01*
X132455775Y-92759161D01*
X132456334Y-92757977D01*
X132460251Y-92749777D01*
X132475057Y-92727763D01*
X132485933Y-92696027D01*
X132489025Y-92689558D01*
X132489180Y-92689384D01*
X132489604Y-92688362D01*
X132501236Y-92664685D01*
X132505795Y-92641575D01*
X132510142Y-92625396D01*
X132517785Y-92603099D01*
X132520123Y-92568957D01*
X132526746Y-92535394D01*
X132524606Y-92503507D01*
X132524971Y-92498189D01*
X132525181Y-92495119D01*
X132525181Y-92495115D01*
X132526791Y-92471622D01*
X132521720Y-92445732D01*
X132519690Y-92430222D01*
X132517925Y-92403905D01*
X132507605Y-92373658D01*
X132501463Y-92342295D01*
X132486418Y-92311560D01*
X132475371Y-92279180D01*
X132462256Y-92259617D01*
X132453881Y-92245087D01*
X132443524Y-92223930D01*
X132426195Y-92204052D01*
X132426194Y-92204051D01*
X132421039Y-92198138D01*
X132401987Y-92169719D01*
X132377925Y-92148682D01*
X121107944Y-79221071D01*
X122289500Y-79221071D01*
X122309980Y-79363526D01*
X122309981Y-79363530D01*
X122369767Y-79494441D01*
X122369768Y-79494442D01*
X122369769Y-79494444D01*
X122407388Y-79541127D01*
X122407391Y-79541130D01*
X122407396Y-79541136D01*
X123656688Y-80790425D01*
X123889304Y-81023041D01*
X123889308Y-81023044D01*
X123889310Y-81023046D01*
X123935986Y-81060662D01*
X124066900Y-81120449D01*
X124066901Y-81120449D01*
X124066903Y-81120450D01*
X124209360Y-81140931D01*
X124351817Y-81120450D01*
X124482733Y-81060662D01*
X124529416Y-81023043D01*
X124558443Y-80994016D01*
X124619766Y-80960531D01*
X124689458Y-80965515D01*
X124733805Y-80994016D01*
X124835321Y-81095532D01*
X124835325Y-81095535D01*
X124982806Y-81194080D01*
X124982819Y-81194087D01*
X125105723Y-81244994D01*
X125146694Y-81261965D01*
X125146696Y-81261965D01*
X125146701Y-81261967D01*
X125320664Y-81296570D01*
X125320667Y-81296571D01*
X125320669Y-81296571D01*
X125498053Y-81296571D01*
X125498054Y-81296570D01*
X125556042Y-81285035D01*
X125672018Y-81261967D01*
X125672021Y-81261965D01*
X125672026Y-81261965D01*
X125835907Y-81194084D01*
X125983395Y-81095535D01*
X126108824Y-80970106D01*
X126207373Y-80822618D01*
X126275254Y-80658737D01*
X126309860Y-80484762D01*
X126309860Y-80307380D01*
X126309860Y-80307377D01*
X126309859Y-80307375D01*
X126275256Y-80133412D01*
X126275253Y-80133403D01*
X126207376Y-79969530D01*
X126207369Y-79969517D01*
X126108824Y-79822036D01*
X126108821Y-79822032D01*
X126007304Y-79720515D01*
X125973819Y-79659192D01*
X125978803Y-79589500D01*
X126007311Y-79545146D01*
X126007459Y-79544997D01*
X126011330Y-79541127D01*
X126048951Y-79494444D01*
X126108739Y-79363528D01*
X126129220Y-79221071D01*
X126108739Y-79078614D01*
X126078951Y-79013389D01*
X126048952Y-78947700D01*
X126048951Y-78947699D01*
X126048951Y-78947698D01*
X126011332Y-78901015D01*
X126011327Y-78901010D01*
X126011323Y-78901005D01*
X124529419Y-77419104D01*
X124529413Y-77419099D01*
X124529409Y-77419095D01*
X124482733Y-77381479D01*
X124351819Y-77321692D01*
X124351815Y-77321691D01*
X124209360Y-77301211D01*
X124066904Y-77321691D01*
X124066900Y-77321692D01*
X123935989Y-77381478D01*
X123889294Y-77419107D01*
X122407393Y-78901011D01*
X122407384Y-78901021D01*
X122369768Y-78947697D01*
X122309981Y-79078611D01*
X122309980Y-79078615D01*
X122289500Y-79221071D01*
X121107944Y-79221071D01*
X120041561Y-77997840D01*
X120004494Y-77952662D01*
X119998316Y-77948233D01*
X119993327Y-77942511D01*
X119946388Y-77910945D01*
X119944849Y-77909910D01*
X119897382Y-77875888D01*
X119890273Y-77873211D01*
X119883974Y-77868975D01*
X119883970Y-77868973D01*
X119883969Y-77868972D01*
X119837251Y-77852959D01*
X119828732Y-77849684D01*
X119430887Y-77679673D01*
X119421108Y-77674978D01*
X119037727Y-77469821D01*
X119028396Y-77464290D01*
X118664413Y-77226414D01*
X118655601Y-77220088D01*
X118349811Y-76979629D01*
X118349805Y-76979624D01*
X118313791Y-76951305D01*
X118305581Y-76944246D01*
X118294144Y-76933508D01*
X126900477Y-76933508D01*
X127464627Y-77497658D01*
X127511262Y-77535238D01*
X127642041Y-77594964D01*
X127642046Y-77594965D01*
X127784360Y-77615425D01*
X127926673Y-77594965D01*
X127926678Y-77594964D01*
X128057457Y-77535238D01*
X128104092Y-77497658D01*
X128104096Y-77497654D01*
X128668243Y-76933508D01*
X127784360Y-76049625D01*
X126900477Y-76933508D01*
X118294144Y-76933508D01*
X118136052Y-76785084D01*
X117988576Y-76646627D01*
X117981003Y-76638866D01*
X117691222Y-76314681D01*
X117684358Y-76306293D01*
X117424007Y-75958009D01*
X117417902Y-75949049D01*
X117397718Y-75916452D01*
X117188997Y-75579363D01*
X117183697Y-75569902D01*
X117125242Y-75453937D01*
X116987972Y-75181618D01*
X116983521Y-75171733D01*
X116869151Y-74884887D01*
X116822481Y-74767834D01*
X116818909Y-74757595D01*
X116804646Y-74710126D01*
X116693778Y-74341148D01*
X116691123Y-74330671D01*
X116602862Y-73904865D01*
X116601134Y-73894197D01*
X116550425Y-73462315D01*
X116549635Y-73451529D01*
X116536864Y-73016867D01*
X116537020Y-73006030D01*
X116538155Y-72986541D01*
X116556319Y-72674427D01*
X117937538Y-72674427D01*
X117937538Y-73018358D01*
X117971248Y-73360642D01*
X118038346Y-73697965D01*
X118125673Y-73985844D01*
X118138188Y-74027098D01*
X118268279Y-74341167D01*
X118269808Y-74344857D01*
X118269810Y-74344862D01*
X118431931Y-74648168D01*
X118431942Y-74648186D01*
X118623013Y-74934144D01*
X118623023Y-74934158D01*
X118841214Y-75200025D01*
X119084405Y-75443216D01*
X119084410Y-75443220D01*
X119084411Y-75443221D01*
X119350278Y-75661412D01*
X119636251Y-75852493D01*
X119636260Y-75852498D01*
X119636262Y-75852499D01*
X119939568Y-76014620D01*
X119939570Y-76014620D01*
X119939576Y-76014624D01*
X120257333Y-76146243D01*
X120586460Y-76246083D01*
X120923788Y-76313182D01*
X121266069Y-76346893D01*
X121266072Y-76346893D01*
X121610004Y-76346893D01*
X121610007Y-76346893D01*
X121952288Y-76313182D01*
X122289616Y-76246083D01*
X122618743Y-76146243D01*
X122936500Y-76014624D01*
X123239825Y-75852493D01*
X123473927Y-75696071D01*
X125865005Y-75696071D01*
X125885465Y-75838384D01*
X125885466Y-75838389D01*
X125945192Y-75969168D01*
X125982772Y-76015803D01*
X126546923Y-76579954D01*
X127430806Y-75696071D01*
X128137914Y-75696071D01*
X129021797Y-76579954D01*
X129585943Y-76015807D01*
X129585947Y-76015803D01*
X129623527Y-75969168D01*
X129683253Y-75838389D01*
X129683254Y-75838384D01*
X129703714Y-75696071D01*
X129683254Y-75553757D01*
X129683253Y-75553752D01*
X129623527Y-75422973D01*
X129585947Y-75376338D01*
X129021797Y-74812188D01*
X128137914Y-75696071D01*
X127430806Y-75696071D01*
X126546923Y-74812188D01*
X125982776Y-75376334D01*
X125982772Y-75376338D01*
X125945192Y-75422973D01*
X125885466Y-75553752D01*
X125885465Y-75553757D01*
X125865005Y-75696071D01*
X123473927Y-75696071D01*
X123525798Y-75661412D01*
X123791665Y-75443221D01*
X124034866Y-75200020D01*
X124253057Y-74934153D01*
X124444138Y-74648180D01*
X124498387Y-74546685D01*
X124545452Y-74458634D01*
X126900477Y-74458634D01*
X127784360Y-75342517D01*
X128668243Y-74458634D01*
X128104092Y-73894483D01*
X128057457Y-73856903D01*
X127926678Y-73797177D01*
X127926673Y-73797176D01*
X127784360Y-73776716D01*
X127642046Y-73797176D01*
X127642041Y-73797177D01*
X127511262Y-73856903D01*
X127464627Y-73894483D01*
X127464623Y-73894487D01*
X126900477Y-74458634D01*
X124545452Y-74458634D01*
X124604151Y-74348819D01*
X124605174Y-74346903D01*
X124606269Y-74344855D01*
X124737888Y-74027098D01*
X124837728Y-73697971D01*
X124904827Y-73360643D01*
X124938538Y-73018362D01*
X124938538Y-72674424D01*
X124904827Y-72332143D01*
X124837728Y-71994815D01*
X124737888Y-71665688D01*
X124606269Y-71347931D01*
X124604300Y-71344248D01*
X124444144Y-71044617D01*
X124444143Y-71044615D01*
X124444138Y-71044606D01*
X124253057Y-70758633D01*
X124034866Y-70492766D01*
X124034865Y-70492765D01*
X124034861Y-70492760D01*
X123791670Y-70249569D01*
X123525803Y-70031378D01*
X123525802Y-70031377D01*
X123525798Y-70031374D01*
X123239825Y-69840293D01*
X123239820Y-69840290D01*
X123239813Y-69840286D01*
X122936507Y-69678165D01*
X122936502Y-69678163D01*
X122618744Y-69546543D01*
X122289610Y-69446701D01*
X121952286Y-69379603D01*
X121952287Y-69379603D01*
X121694494Y-69354214D01*
X121610007Y-69345893D01*
X121266069Y-69345893D01*
X121188004Y-69353581D01*
X120923788Y-69379603D01*
X120586465Y-69446701D01*
X120257331Y-69546543D01*
X119939573Y-69678163D01*
X119939568Y-69678165D01*
X119636262Y-69840286D01*
X119636244Y-69840297D01*
X119350286Y-70031368D01*
X119350272Y-70031378D01*
X119084405Y-70249569D01*
X118841214Y-70492760D01*
X118623023Y-70758627D01*
X118623013Y-70758641D01*
X118431942Y-71044599D01*
X118431931Y-71044617D01*
X118269810Y-71347923D01*
X118269808Y-71347928D01*
X118138188Y-71665686D01*
X118038346Y-71994820D01*
X117971248Y-72332143D01*
X117947632Y-72571939D01*
X117938548Y-72664175D01*
X117937538Y-72674427D01*
X116556319Y-72674427D01*
X116562284Y-72571937D01*
X116563388Y-72561148D01*
X116582960Y-72427711D01*
X116626491Y-72130927D01*
X116628526Y-72120307D01*
X116728996Y-71697215D01*
X116731948Y-71686824D01*
X116869007Y-71274137D01*
X116872871Y-71264008D01*
X116908828Y-71180860D01*
X117045466Y-70864889D01*
X117050187Y-70855164D01*
X117257009Y-70472647D01*
X117262557Y-70463377D01*
X117502023Y-70100388D01*
X117508368Y-70091630D01*
X117778634Y-69750967D01*
X117785716Y-69742800D01*
X118084724Y-69427057D01*
X118092501Y-69419534D01*
X118417942Y-69131145D01*
X118426363Y-69124317D01*
X118471679Y-69090746D01*
X118775764Y-68865472D01*
X118784732Y-68859417D01*
X119155434Y-68632089D01*
X119164869Y-68626856D01*
X119554031Y-68432790D01*
X119563919Y-68428388D01*
X119968523Y-68269085D01*
X119978755Y-68265565D01*
X120395767Y-68142221D01*
X120406245Y-68139616D01*
X120832415Y-68053194D01*
X120843103Y-68051510D01*
X121275208Y-68002663D01*
X121285982Y-68001920D01*
X121720714Y-67991023D01*
X121731516Y-67991225D01*
X122165511Y-68018361D01*
X122176288Y-68019510D01*
X122399250Y-68053197D01*
X122606230Y-68084469D01*
X122616875Y-68086557D01*
X122920395Y-68160016D01*
X123039488Y-68188839D01*
X123049909Y-68191849D01*
X123461968Y-68330675D01*
X123472086Y-68334584D01*
X123498290Y-68346050D01*
X123870452Y-68508896D01*
X123880173Y-68513667D01*
X124261789Y-68722132D01*
X124271051Y-68727732D01*
X124632982Y-68968747D01*
X124641728Y-68975141D01*
X124981205Y-69246861D01*
X124989369Y-69254003D01*
X125303783Y-69554334D01*
X125311292Y-69562162D01*
X125598269Y-69888837D01*
X125605064Y-69897292D01*
X125862394Y-70247798D01*
X125868425Y-70256814D01*
X126094130Y-70628455D01*
X126099350Y-70637964D01*
X126291714Y-71027913D01*
X126296083Y-71037841D01*
X126450568Y-71435226D01*
X126451250Y-71437023D01*
X126457259Y-71453219D01*
X126458432Y-71456522D01*
X126476764Y-71510572D01*
X126476767Y-71510578D01*
X126480755Y-71516550D01*
X126483252Y-71523279D01*
X126517263Y-71571217D01*
X126518226Y-71572659D01*
X126518249Y-71572692D01*
X126549957Y-71620169D01*
X126549959Y-71620170D01*
X126549960Y-71620172D01*
X126555354Y-71624905D01*
X126559508Y-71630759D01*
X126604802Y-71668289D01*
X126649018Y-71707083D01*
X126649019Y-71707083D01*
X126649020Y-71707084D01*
X126655778Y-71711602D01*
X126655364Y-71712220D01*
X126666657Y-71719541D01*
X131345551Y-75596393D01*
X140780886Y-83414352D01*
X140791474Y-83427360D01*
X140831455Y-83456253D01*
X140869445Y-83487731D01*
X140884692Y-83494726D01*
X140898286Y-83504550D01*
X140944383Y-83522111D01*
X140989226Y-83542684D01*
X141005762Y-83545494D01*
X141021436Y-83551465D01*
X141070513Y-83556497D01*
X141119147Y-83564762D01*
X141123720Y-83564333D01*
X141147950Y-83564437D01*
X141152533Y-83564908D01*
X141201246Y-83557065D01*
X141250356Y-83552462D01*
X141266079Y-83546628D01*
X141282642Y-83543962D01*
X141323950Y-83525443D01*
X141325763Y-83524649D01*
X141328613Y-83523426D01*
X141373911Y-83506622D01*
X141383232Y-83500006D01*
X141395360Y-83494807D01*
X141395552Y-83494783D01*
X141395990Y-83494539D01*
X142090509Y-83201339D01*
X142095536Y-83199345D01*
X142853917Y-82917723D01*
X142859003Y-82915960D01*
X143629002Y-82667894D01*
X143634157Y-82666358D01*
X144414291Y-82452327D01*
X144419508Y-82451017D01*
X145208299Y-82271427D01*
X145213629Y-82270337D01*
X146009477Y-82125547D01*
X146014802Y-82124698D01*
X146816314Y-82014966D01*
X146821640Y-82014355D01*
X147627201Y-81939904D01*
X147632556Y-81939527D01*
X148440578Y-81900502D01*
X148446008Y-81900360D01*
X149254959Y-81896834D01*
X149260327Y-81896929D01*
X150068669Y-81928909D01*
X150074020Y-81929238D01*
X150880214Y-81996666D01*
X150885560Y-81997232D01*
X151687959Y-82099968D01*
X151693337Y-82100777D01*
X152490441Y-82238627D01*
X152495726Y-82239661D01*
X153286023Y-82412363D01*
X153291288Y-82413634D01*
X154073283Y-82620865D01*
X154078437Y-82622353D01*
X154850539Y-82863687D01*
X154855687Y-82865421D01*
X155616477Y-83140416D01*
X155621520Y-83142366D01*
X156369473Y-83450471D01*
X156374433Y-83452643D01*
X157075380Y-83778065D01*
X157078624Y-83779571D01*
X157080021Y-83780230D01*
X157087429Y-83783782D01*
X157112391Y-83800114D01*
X157141320Y-83809622D01*
X157148573Y-83813100D01*
X157148739Y-83813250D01*
X157149633Y-83813614D01*
X157169749Y-83823496D01*
X157204215Y-83830296D01*
X157237585Y-83841265D01*
X157268577Y-83842995D01*
X157299040Y-83849006D01*
X157334094Y-83846653D01*
X157369165Y-83848612D01*
X157399552Y-83842261D01*
X157430529Y-83840183D01*
X157430533Y-83840182D01*
X157456559Y-83831302D01*
X157456561Y-83831301D01*
X157463774Y-83828840D01*
X157498161Y-83821654D01*
X157525871Y-83807653D01*
X157555254Y-83797629D01*
X157584434Y-83778065D01*
X157615786Y-83762226D01*
X157638925Y-83741533D01*
X157664715Y-83724244D01*
X157682827Y-83703525D01*
X157693511Y-83692720D01*
X161701649Y-80108508D01*
X172650477Y-80108508D01*
X173214627Y-80672658D01*
X173261262Y-80710238D01*
X173392041Y-80769964D01*
X173392046Y-80769965D01*
X173534360Y-80790425D01*
X173676673Y-80769965D01*
X173676678Y-80769964D01*
X173807457Y-80710238D01*
X173854092Y-80672658D01*
X173854096Y-80672654D01*
X174418243Y-80108508D01*
X173534360Y-79224625D01*
X172650477Y-80108508D01*
X161701649Y-80108508D01*
X163085445Y-78871071D01*
X171615005Y-78871071D01*
X171635465Y-79013384D01*
X171635466Y-79013389D01*
X171695192Y-79144168D01*
X171732772Y-79190803D01*
X172296923Y-79754954D01*
X173180806Y-78871071D01*
X173887914Y-78871071D01*
X174771797Y-79754954D01*
X175335943Y-79190807D01*
X175335947Y-79190803D01*
X175373527Y-79144168D01*
X175433253Y-79013389D01*
X175433254Y-79013384D01*
X175453714Y-78871071D01*
X175433254Y-78728757D01*
X175433253Y-78728752D01*
X175373527Y-78597973D01*
X175335947Y-78551338D01*
X174771797Y-77987188D01*
X173887914Y-78871071D01*
X173180806Y-78871071D01*
X172296923Y-77987188D01*
X171732776Y-78551334D01*
X171732772Y-78551338D01*
X171695192Y-78597973D01*
X171635466Y-78728752D01*
X171635465Y-78728757D01*
X171615005Y-78871071D01*
X163085445Y-78871071D01*
X164469241Y-77633634D01*
X172650477Y-77633634D01*
X173534360Y-78517517D01*
X174418243Y-77633634D01*
X173854092Y-77069483D01*
X173807457Y-77031903D01*
X173676678Y-76972177D01*
X173676673Y-76972176D01*
X173534360Y-76951716D01*
X173392046Y-76972176D01*
X173392041Y-76972177D01*
X173261262Y-77031903D01*
X173214627Y-77069483D01*
X173214623Y-77069487D01*
X172650477Y-77633634D01*
X164469241Y-77633634D01*
X165616521Y-76607697D01*
X168237538Y-76607697D01*
X168237538Y-76785088D01*
X168272141Y-76959051D01*
X168272144Y-76959060D01*
X168340021Y-77122933D01*
X168340028Y-77122946D01*
X168438573Y-77270427D01*
X168438576Y-77270431D01*
X168563999Y-77395854D01*
X168564003Y-77395857D01*
X168711484Y-77494402D01*
X168711497Y-77494409D01*
X168810069Y-77535238D01*
X168875372Y-77562287D01*
X168875374Y-77562287D01*
X168875379Y-77562289D01*
X169049342Y-77596892D01*
X169049345Y-77596893D01*
X169049347Y-77596893D01*
X169226731Y-77596893D01*
X169226732Y-77596892D01*
X169284720Y-77585357D01*
X169400696Y-77562289D01*
X169400699Y-77562287D01*
X169400704Y-77562287D01*
X169564585Y-77494406D01*
X169712073Y-77395857D01*
X169726094Y-77381835D01*
X169787413Y-77348352D01*
X169857104Y-77353334D01*
X169901455Y-77381836D01*
X169917982Y-77398363D01*
X169917986Y-77398366D01*
X169917988Y-77398368D01*
X169964664Y-77435984D01*
X170095578Y-77495771D01*
X170095579Y-77495771D01*
X170095581Y-77495772D01*
X170238038Y-77516253D01*
X170380495Y-77495772D01*
X170391392Y-77490795D01*
X170438071Y-77469478D01*
X170474790Y-77452708D01*
X170511411Y-77435984D01*
X170558094Y-77398365D01*
X172040008Y-75916449D01*
X172077629Y-75869766D01*
X172137417Y-75738850D01*
X172157898Y-75596393D01*
X172137417Y-75453936D01*
X172132521Y-75443216D01*
X172077630Y-75323022D01*
X172077629Y-75323021D01*
X172077629Y-75323020D01*
X172040010Y-75276337D01*
X172040005Y-75276332D01*
X172040001Y-75276327D01*
X170558097Y-73794426D01*
X170558091Y-73794421D01*
X170558087Y-73794417D01*
X170511411Y-73756801D01*
X170380497Y-73697014D01*
X170380493Y-73697013D01*
X170238038Y-73676533D01*
X170095582Y-73697013D01*
X170095578Y-73697014D01*
X169964667Y-73756800D01*
X169917972Y-73794429D01*
X168436071Y-75276333D01*
X168436062Y-75276343D01*
X168398446Y-75323019D01*
X168338659Y-75453933D01*
X168338658Y-75453937D01*
X168318178Y-75596393D01*
X168338658Y-75738848D01*
X168338659Y-75738852D01*
X168398445Y-75869763D01*
X168398446Y-75869764D01*
X168398447Y-75869766D01*
X168436066Y-75916449D01*
X168436069Y-75916452D01*
X168436074Y-75916458D01*
X168452592Y-75932976D01*
X168486077Y-75994299D01*
X168481093Y-76063991D01*
X168452597Y-76108333D01*
X168438577Y-76122354D01*
X168438571Y-76122361D01*
X168340028Y-76269839D01*
X168340021Y-76269852D01*
X168272144Y-76433725D01*
X168272141Y-76433734D01*
X168237538Y-76607697D01*
X165616521Y-76607697D01*
X168064391Y-74418729D01*
X170015002Y-72674427D01*
X172937538Y-72674427D01*
X172937538Y-73018358D01*
X172971248Y-73360642D01*
X173038346Y-73697965D01*
X173125673Y-73985844D01*
X173138188Y-74027098D01*
X173268279Y-74341167D01*
X173269808Y-74344857D01*
X173269810Y-74344862D01*
X173431931Y-74648168D01*
X173431942Y-74648186D01*
X173623013Y-74934144D01*
X173623023Y-74934158D01*
X173841214Y-75200025D01*
X174084405Y-75443216D01*
X174084410Y-75443220D01*
X174084411Y-75443221D01*
X174350278Y-75661412D01*
X174636251Y-75852493D01*
X174636260Y-75852498D01*
X174636262Y-75852499D01*
X174939568Y-76014620D01*
X174939570Y-76014620D01*
X174939576Y-76014624D01*
X175257333Y-76146243D01*
X175586460Y-76246083D01*
X175923788Y-76313182D01*
X176266069Y-76346893D01*
X176266072Y-76346893D01*
X176610004Y-76346893D01*
X176610007Y-76346893D01*
X176952288Y-76313182D01*
X177289616Y-76246083D01*
X177618743Y-76146243D01*
X177936500Y-76014624D01*
X178239825Y-75852493D01*
X178525798Y-75661412D01*
X178791665Y-75443221D01*
X179034866Y-75200020D01*
X179253057Y-74934153D01*
X179444138Y-74648180D01*
X179606269Y-74344855D01*
X179737888Y-74027098D01*
X179837728Y-73697971D01*
X179904827Y-73360643D01*
X179938538Y-73018362D01*
X179938538Y-72674424D01*
X179904827Y-72332143D01*
X179837728Y-71994815D01*
X179737888Y-71665688D01*
X179606269Y-71347931D01*
X179604300Y-71344248D01*
X179444144Y-71044617D01*
X179444143Y-71044615D01*
X179444138Y-71044606D01*
X179253057Y-70758633D01*
X179034866Y-70492766D01*
X179034865Y-70492765D01*
X179034861Y-70492760D01*
X178791670Y-70249569D01*
X178525803Y-70031378D01*
X178525802Y-70031377D01*
X178525798Y-70031374D01*
X178239825Y-69840293D01*
X178239820Y-69840290D01*
X178239813Y-69840286D01*
X177936507Y-69678165D01*
X177936502Y-69678163D01*
X177618744Y-69546543D01*
X177289610Y-69446701D01*
X176952286Y-69379603D01*
X176952287Y-69379603D01*
X176694494Y-69354214D01*
X176610007Y-69345893D01*
X176266069Y-69345893D01*
X176188004Y-69353581D01*
X175923788Y-69379603D01*
X175586465Y-69446701D01*
X175257331Y-69546543D01*
X174939573Y-69678163D01*
X174939568Y-69678165D01*
X174636262Y-69840286D01*
X174636244Y-69840297D01*
X174350286Y-70031368D01*
X174350272Y-70031378D01*
X174084405Y-70249569D01*
X173841214Y-70492760D01*
X173623023Y-70758627D01*
X173623013Y-70758641D01*
X173431942Y-71044599D01*
X173431931Y-71044617D01*
X173269810Y-71347923D01*
X173269808Y-71347928D01*
X173138188Y-71665686D01*
X173038346Y-71994820D01*
X172971248Y-72332143D01*
X172947632Y-72571939D01*
X172938548Y-72664175D01*
X172937538Y-72674427D01*
X170015002Y-72674427D01*
X170121775Y-72578947D01*
X170529968Y-72213927D01*
X171294608Y-71530160D01*
X171343596Y-71486462D01*
X171343766Y-71486202D01*
X171343997Y-71485996D01*
X171379859Y-71431182D01*
X171415882Y-71376272D01*
X171415882Y-71376270D01*
X171415886Y-71376265D01*
X171415909Y-71376217D01*
X171415997Y-71375948D01*
X171416149Y-71375718D01*
X171435719Y-71316178D01*
X171435723Y-71316172D01*
X171437513Y-71311114D01*
X171453467Y-71268992D01*
X171592834Y-70901026D01*
X171597049Y-70891203D01*
X171786115Y-70498383D01*
X171791152Y-70488981D01*
X172013457Y-70113966D01*
X172019298Y-70105020D01*
X172225153Y-69817662D01*
X172273167Y-69750638D01*
X172279764Y-69742222D01*
X172563319Y-69411086D01*
X172570600Y-69403293D01*
X172881697Y-69097915D01*
X172889655Y-69090752D01*
X173225978Y-68813396D01*
X173234510Y-68806960D01*
X173593539Y-68559710D01*
X173602611Y-68554025D01*
X173981658Y-68338727D01*
X173991175Y-68333854D01*
X174370190Y-68160016D01*
X174387401Y-68152122D01*
X174397329Y-68148078D01*
X174807770Y-68001268D01*
X174818013Y-67998097D01*
X174845445Y-67990888D01*
X175239608Y-67887302D01*
X175250071Y-67885032D01*
X175679678Y-67811082D01*
X175690300Y-67809725D01*
X176124677Y-67773178D01*
X176135354Y-67772742D01*
X176571290Y-67773870D01*
G37*
%TD.AperFunction*%
%TD*%
M02*
