%TF.GenerationSoftware,KiCad,Pcbnew,9.0.0-9.0.0-2~ubuntu22.04.1*%
%TF.CreationDate,2025-03-12T10:46:36+01:00*%
%TF.ProjectId,nano_drone,6e616e6f-5f64-4726-9f6e-652e6b696361,rev?*%
%TF.SameCoordinates,Original*%
%TF.FileFunction,Profile,NP*%
%FSLAX46Y46*%
G04 Gerber Fmt 4.6, Leading zero omitted, Abs format (unit mm)*
G04 Created by KiCad (PCBNEW 9.0.0-9.0.0-2~ubuntu22.04.1) date 2025-03-12 10:46:36*
%MOMM*%
%LPD*%
G01*
G04 APERTURE LIST*
%TA.AperFunction,Profile*%
%ADD10C,0.050000*%
%TD*%
%TA.AperFunction,Profile*%
%ADD11C,0.100000*%
%TD*%
G04 APERTURE END LIST*
D10*
X171173308Y-129894029D02*
X156731277Y-117781312D01*
X126801676Y-129724864D02*
G75*
G02*
X119603592Y-122585695I-5378676J1775264D01*
G01*
X141138038Y-83060297D02*
G75*
G02*
X157331287Y-83345197I7793262J-17385103D01*
G01*
D11*
X179488038Y-127896393D02*
G75*
G02*
X173488038Y-127896393I-3000000J0D01*
G01*
X173488038Y-127896393D02*
G75*
G02*
X179488038Y-127896393I3000000J0D01*
G01*
D10*
X178109360Y-122546071D02*
X165995791Y-108461229D01*
D11*
X124488038Y-127896393D02*
G75*
G02*
X118488038Y-127896393I-3000000J0D01*
G01*
X118488038Y-127896393D02*
G75*
G02*
X124488038Y-127896393I3000000J0D01*
G01*
D10*
X132022958Y-92503154D02*
X119659360Y-78321071D01*
X170961252Y-71156832D02*
G75*
G02*
X178159367Y-78296092I5378748J-1775268D01*
G01*
X126929577Y-71287406D02*
X141138038Y-83060297D01*
X178159360Y-78296071D02*
X166280711Y-92267990D01*
X166280711Y-92267990D02*
G75*
G02*
X165995792Y-108461229I-17384881J-7793240D01*
G01*
X178109360Y-122546071D02*
G75*
G02*
X171173309Y-129894029I-1521530J-5511359D01*
G01*
X161738038Y-99596393D02*
X163238038Y-99596393D01*
X163238038Y-104396393D01*
X161738038Y-104396393D01*
X161738038Y-99596393D01*
X134259360Y-99596071D02*
X135759360Y-99596071D01*
X135759360Y-104396071D01*
X134259360Y-104396071D01*
X134259360Y-99596071D01*
D11*
X124438038Y-72846393D02*
G75*
G02*
X118438038Y-72846393I-3000000J0D01*
G01*
X118438038Y-72846393D02*
G75*
G02*
X124438038Y-72846393I3000000J0D01*
G01*
D10*
X131738038Y-108696393D02*
G75*
G02*
X132022955Y-92503153I17384882J7793243D01*
G01*
D11*
X179438038Y-72846393D02*
G75*
G02*
X173438038Y-72846393I-3000000J0D01*
G01*
X173438038Y-72846393D02*
G75*
G02*
X179438038Y-72846393I3000000J0D01*
G01*
D10*
X156731277Y-117781312D02*
G75*
G02*
X140538024Y-117496421I-7793277J17384912D01*
G01*
X119603568Y-122585625D02*
X131738038Y-108696393D01*
X170961252Y-71156832D02*
X157331277Y-83345217D01*
X119659360Y-78321071D02*
G75*
G02*
X126929579Y-71287405I1971530J5236361D01*
G01*
X126801676Y-129724864D02*
X140538038Y-117496393D01*
M02*
