M48
; DRILL file {KiCad 9.0.0-9.0.0-2~ubuntu22.04.1} date 2025-03-12T10:46:31+0100
; FORMAT={-:-/ absolute / metric / decimal}
; #@! TF.CreationDate,2025-03-12T10:46:31+01:00
; #@! TF.GenerationSoftware,Kicad,Pcbnew,9.0.0-9.0.0-2~ubuntu22.04.1
; #@! TF.FileFunction,Plated,1,2,PTH
FMAT,2
METRIC
; #@! TA.AperFunction,Plated,PTH,ComponentDrill
T1C0.200
; #@! TA.AperFunction,Plated,PTH,ViaDrill
T2C0.300
; #@! TA.AperFunction,Plated,PTH,ComponentDrill
T3C0.800
; #@! TA.AperFunction,Plated,PTH,ComponentDrill
T4C0.900
; #@! TA.AperFunction,Plated,PTH,ComponentDrill
T5C1.000
%
G90
G05
T1
X146.388Y-91.286
X146.388Y-92.686
X147.088Y-90.586
X147.088Y-91.986
X147.088Y-93.386
X147.763Y-91.286
X147.763Y-92.686
X148.488Y-90.586
X148.488Y-91.986
X148.488Y-93.386
X149.188Y-91.286
X149.188Y-92.686
T2
X125.409Y-80.396
X129.438Y-123.896
X131.438Y-112.196
X133.109Y-114.546
X134.309Y-83.921
X135.284Y-91.296
X136.859Y-82.446
X138.738Y-112.796
X138.838Y-88.196
X139.238Y-85.596
X139.244Y-102.176
X141.438Y-112.796
X141.638Y-98.196
X142.209Y-96.296
X144.244Y-99.836
X145.238Y-85.996
X146.894Y-98.446
X149.204Y-97.706
X150.054Y-85.996
X151.584Y-99.096
X153.774Y-103.306
X154.388Y-85.996
X155.144Y-99.796
X156.634Y-97.926
X159.424Y-99.486
X159.438Y-85.996
X159.438Y-86.796
X159.438Y-97.596
X160.038Y-100.696
X160.164Y-116.796
X162.959Y-116.046
X166.284Y-84.896
X169.138Y-76.696
X172.738Y-120.196
T3
X135.588Y-86.896
X138.128Y-86.896
X160.588Y-84.296
X163.128Y-84.296
T4
X161.638Y-88.596
X161.638Y-91.696
T5
X139.914Y-105.236
X142.454Y-105.236
X144.994Y-105.236
X146.038Y-116.846
X147.534Y-105.236
X150.074Y-105.236
X150.488Y-116.846
X152.614Y-105.236
X155.154Y-105.236
X157.694Y-105.236
M30
