%TF.GenerationSoftware,KiCad,Pcbnew,9.0.0-9.0.0-2~ubuntu22.04.1*%
%TF.CreationDate,2025-03-12T10:46:36+01:00*%
%TF.ProjectId,nano_drone,6e616e6f-5f64-4726-9f6e-652e6b696361,rev?*%
%TF.SameCoordinates,Original*%
%TF.FileFunction,Legend,Top*%
%TF.FilePolarity,Positive*%
%FSLAX46Y46*%
G04 Gerber Fmt 4.6, Leading zero omitted, Abs format (unit mm)*
G04 Created by KiCad (PCBNEW 9.0.0-9.0.0-2~ubuntu22.04.1) date 2025-03-12 10:46:36*
%MOMM*%
%LPD*%
G01*
G04 APERTURE LIST*
%ADD10C,0.200000*%
%ADD11C,0.300000*%
%ADD12C,0.990000*%
%ADD13C,0.100000*%
%ADD14C,0.150000*%
%ADD15C,0.118517*%
%ADD16C,0.120000*%
G04 APERTURE END LIST*
D10*
X132194360Y-112706071D02*
X132624360Y-113626071D01*
X132654360Y-108531071D02*
X132654360Y-112601071D01*
X132634360Y-112706071D02*
X133154360Y-112696071D01*
X137484360Y-108496071D02*
X136754360Y-108026071D01*
D11*
X125434360Y-70121071D02*
X124584360Y-70771071D01*
D10*
X132624360Y-113626071D02*
X133154360Y-112696071D01*
X136754360Y-108966071D02*
X137484360Y-108496071D01*
D11*
X173159364Y-129908566D02*
X171859356Y-128783575D01*
X118816487Y-76166575D02*
G75*
G02*
X124959361Y-70346070I2778963J3218925D01*
G01*
X125446860Y-129658571D02*
X124271860Y-130583571D01*
X172359360Y-71071071D02*
X173434356Y-70246065D01*
X124290610Y-130589821D02*
X125128110Y-131202321D01*
X172284360Y-130571071D02*
X173134360Y-129921071D01*
X179593801Y-124699785D02*
G75*
G02*
X172750510Y-130432070I-3170901J-3165485D01*
G01*
X125128110Y-131202321D02*
X125474985Y-129649196D01*
D12*
X133179360Y-108496071D02*
G75*
G02*
X132189360Y-108496071I-495000J0D01*
G01*
X132189360Y-108496071D02*
G75*
G02*
X133179360Y-108496071I495000J0D01*
G01*
D11*
X173396860Y-70233571D02*
X172571860Y-69708571D01*
D10*
X136754360Y-108506071D02*
X136754360Y-108966071D01*
X132634360Y-112706071D02*
X132194360Y-112706071D01*
X133104360Y-108496071D02*
X136754360Y-108506071D01*
D11*
X124730899Y-130916692D02*
G75*
G02*
X118999538Y-124159458I-3185099J3107692D01*
G01*
X173037786Y-69784490D02*
G75*
G02*
X178909416Y-76721149I3224214J-3224210D01*
G01*
X125809360Y-71546071D02*
X125434360Y-70121071D01*
X171834360Y-128808571D02*
X172284360Y-130583571D01*
X172584360Y-69721071D02*
X172359360Y-71071071D01*
D10*
X136754360Y-108026071D02*
X136754360Y-108506071D01*
D11*
X124584360Y-70796071D02*
X125809360Y-71546071D01*
D13*
X138024360Y-103006071D02*
X139124360Y-103006071D01*
X139524360Y-103006071D02*
X140624360Y-103006071D01*
X141024360Y-103006071D02*
X142124360Y-103006071D01*
X142524360Y-103006071D02*
X143624360Y-103006071D01*
X144024360Y-103006071D02*
X145124360Y-103006071D01*
X145524360Y-103006071D02*
X146624360Y-103006071D01*
X147024360Y-103006071D02*
X148124360Y-103006071D01*
X148524360Y-103006071D02*
X149624360Y-103006071D01*
X150024360Y-103006071D02*
X151124360Y-103006071D01*
X151524360Y-103006071D02*
X152624360Y-103006071D01*
X153024360Y-103006071D02*
X154124360Y-103006071D01*
X154524360Y-103006071D02*
X155624360Y-103006071D01*
X156024360Y-103006071D02*
X157124360Y-103006071D01*
X157524360Y-103006071D02*
X158624360Y-103006071D01*
X159024360Y-103006071D02*
X159514360Y-103006071D01*
X159514360Y-103006071D02*
X159514360Y-104106071D01*
X159514360Y-104506071D02*
X159514360Y-105606071D01*
X159514360Y-106006071D02*
X159514360Y-107106071D01*
X159514360Y-107506071D02*
X159514360Y-108606071D01*
X159514360Y-109006071D02*
X159514360Y-110106071D01*
X159514360Y-110506071D02*
X159514360Y-111606071D01*
X159514360Y-112006071D02*
X159514360Y-113106071D01*
X159514360Y-113506071D02*
X159514360Y-114606071D01*
X159514360Y-115006071D02*
X159514360Y-116106071D01*
X159514360Y-116506071D02*
X159514360Y-117606071D01*
X159514360Y-117626071D02*
X158414360Y-117626071D01*
X158014360Y-117626071D02*
X156914360Y-117626071D01*
X156514360Y-117626071D02*
X155414360Y-117626071D01*
X155014360Y-117626071D02*
X153914360Y-117626071D01*
X153514360Y-117626071D02*
X152414360Y-117626071D01*
X152014360Y-117626071D02*
X150914360Y-117626071D01*
X150514360Y-117626071D02*
X149414360Y-117626071D01*
X149014360Y-117626071D02*
X147914360Y-117626071D01*
X147514360Y-117626071D02*
X146414360Y-117626071D01*
X146014360Y-117626071D02*
X144914360Y-117626071D01*
X144514360Y-117626071D02*
X143414360Y-117626071D01*
X143014360Y-117626071D02*
X141914360Y-117626071D01*
X141514360Y-117626071D02*
X140414360Y-117626071D01*
X140014360Y-117626071D02*
X138914360Y-117626071D01*
X138514360Y-117626071D02*
X138024360Y-117626071D01*
X138024360Y-117626071D02*
X138024360Y-116526071D01*
X138024360Y-116126071D02*
X138024360Y-115026071D01*
X138024360Y-114626071D02*
X138024360Y-113526071D01*
X138024360Y-113126071D02*
X138024360Y-112026071D01*
X138024360Y-111626071D02*
X138024360Y-110526071D01*
X138024360Y-110126071D02*
X138024360Y-109026071D01*
X138024360Y-108626071D02*
X138024360Y-107526071D01*
X138024360Y-107126071D02*
X138024360Y-106026071D01*
X138024360Y-105626071D02*
X138024360Y-104526071D01*
X138024360Y-104126071D02*
X138024360Y-103026071D01*
D14*
X143661139Y-108145890D02*
X143661139Y-107145890D01*
X143661139Y-107145890D02*
X143994472Y-107860175D01*
X143994472Y-107860175D02*
X144327805Y-107145890D01*
X144327805Y-107145890D02*
X144327805Y-108145890D01*
X144946853Y-108145890D02*
X144851615Y-108098271D01*
X144851615Y-108098271D02*
X144803996Y-108050651D01*
X144803996Y-108050651D02*
X144756377Y-107955413D01*
X144756377Y-107955413D02*
X144756377Y-107669699D01*
X144756377Y-107669699D02*
X144803996Y-107574461D01*
X144803996Y-107574461D02*
X144851615Y-107526842D01*
X144851615Y-107526842D02*
X144946853Y-107479223D01*
X144946853Y-107479223D02*
X145089710Y-107479223D01*
X145089710Y-107479223D02*
X145184948Y-107526842D01*
X145184948Y-107526842D02*
X145232567Y-107574461D01*
X145232567Y-107574461D02*
X145280186Y-107669699D01*
X145280186Y-107669699D02*
X145280186Y-107955413D01*
X145280186Y-107955413D02*
X145232567Y-108050651D01*
X145232567Y-108050651D02*
X145184948Y-108098271D01*
X145184948Y-108098271D02*
X145089710Y-108145890D01*
X145089710Y-108145890D02*
X144946853Y-108145890D01*
X146137329Y-108145890D02*
X146137329Y-107145890D01*
X146137329Y-108098271D02*
X146042091Y-108145890D01*
X146042091Y-108145890D02*
X145851615Y-108145890D01*
X145851615Y-108145890D02*
X145756377Y-108098271D01*
X145756377Y-108098271D02*
X145708758Y-108050651D01*
X145708758Y-108050651D02*
X145661139Y-107955413D01*
X145661139Y-107955413D02*
X145661139Y-107669699D01*
X145661139Y-107669699D02*
X145708758Y-107574461D01*
X145708758Y-107574461D02*
X145756377Y-107526842D01*
X145756377Y-107526842D02*
X145851615Y-107479223D01*
X145851615Y-107479223D02*
X146042091Y-107479223D01*
X146042091Y-107479223D02*
X146137329Y-107526842D01*
X147042091Y-107479223D02*
X147042091Y-108145890D01*
X146613520Y-107479223D02*
X146613520Y-108003032D01*
X146613520Y-108003032D02*
X146661139Y-108098271D01*
X146661139Y-108098271D02*
X146756377Y-108145890D01*
X146756377Y-108145890D02*
X146899234Y-108145890D01*
X146899234Y-108145890D02*
X146994472Y-108098271D01*
X146994472Y-108098271D02*
X147042091Y-108050651D01*
X147661139Y-108145890D02*
X147565901Y-108098271D01*
X147565901Y-108098271D02*
X147518282Y-108003032D01*
X147518282Y-108003032D02*
X147518282Y-107145890D01*
X148423044Y-108098271D02*
X148327806Y-108145890D01*
X148327806Y-108145890D02*
X148137330Y-108145890D01*
X148137330Y-108145890D02*
X148042092Y-108098271D01*
X148042092Y-108098271D02*
X147994473Y-108003032D01*
X147994473Y-108003032D02*
X147994473Y-107622080D01*
X147994473Y-107622080D02*
X148042092Y-107526842D01*
X148042092Y-107526842D02*
X148137330Y-107479223D01*
X148137330Y-107479223D02*
X148327806Y-107479223D01*
X148327806Y-107479223D02*
X148423044Y-107526842D01*
X148423044Y-107526842D02*
X148470663Y-107622080D01*
X148470663Y-107622080D02*
X148470663Y-107717318D01*
X148470663Y-107717318D02*
X147994473Y-107812556D01*
X150184949Y-107193509D02*
X150089711Y-107145890D01*
X150089711Y-107145890D02*
X149946854Y-107145890D01*
X149946854Y-107145890D02*
X149803997Y-107193509D01*
X149803997Y-107193509D02*
X149708759Y-107288747D01*
X149708759Y-107288747D02*
X149661140Y-107383985D01*
X149661140Y-107383985D02*
X149613521Y-107574461D01*
X149613521Y-107574461D02*
X149613521Y-107717318D01*
X149613521Y-107717318D02*
X149661140Y-107907794D01*
X149661140Y-107907794D02*
X149708759Y-108003032D01*
X149708759Y-108003032D02*
X149803997Y-108098271D01*
X149803997Y-108098271D02*
X149946854Y-108145890D01*
X149946854Y-108145890D02*
X150042092Y-108145890D01*
X150042092Y-108145890D02*
X150184949Y-108098271D01*
X150184949Y-108098271D02*
X150232568Y-108050651D01*
X150232568Y-108050651D02*
X150232568Y-107717318D01*
X150232568Y-107717318D02*
X150042092Y-107717318D01*
X150851616Y-107669699D02*
X150851616Y-108145890D01*
X150518283Y-107145890D02*
X150851616Y-107669699D01*
X150851616Y-107669699D02*
X151184949Y-107145890D01*
X151518283Y-107764937D02*
X152280188Y-107764937D01*
X152803997Y-108145890D02*
X152994473Y-108145890D01*
X152994473Y-108145890D02*
X153089711Y-108098271D01*
X153089711Y-108098271D02*
X153137330Y-108050651D01*
X153137330Y-108050651D02*
X153232568Y-107907794D01*
X153232568Y-107907794D02*
X153280187Y-107717318D01*
X153280187Y-107717318D02*
X153280187Y-107336366D01*
X153280187Y-107336366D02*
X153232568Y-107241128D01*
X153232568Y-107241128D02*
X153184949Y-107193509D01*
X153184949Y-107193509D02*
X153089711Y-107145890D01*
X153089711Y-107145890D02*
X152899235Y-107145890D01*
X152899235Y-107145890D02*
X152803997Y-107193509D01*
X152803997Y-107193509D02*
X152756378Y-107241128D01*
X152756378Y-107241128D02*
X152708759Y-107336366D01*
X152708759Y-107336366D02*
X152708759Y-107574461D01*
X152708759Y-107574461D02*
X152756378Y-107669699D01*
X152756378Y-107669699D02*
X152803997Y-107717318D01*
X152803997Y-107717318D02*
X152899235Y-107764937D01*
X152899235Y-107764937D02*
X153089711Y-107764937D01*
X153089711Y-107764937D02*
X153184949Y-107717318D01*
X153184949Y-107717318D02*
X153232568Y-107669699D01*
X153232568Y-107669699D02*
X153280187Y-107574461D01*
X154232568Y-108145890D02*
X153661140Y-108145890D01*
X153946854Y-108145890D02*
X153946854Y-107145890D01*
X153946854Y-107145890D02*
X153851616Y-107288747D01*
X153851616Y-107288747D02*
X153756378Y-107383985D01*
X153756378Y-107383985D02*
X153661140Y-107431604D01*
D11*
X133536013Y-105866899D02*
X134536013Y-105866899D01*
X134536013Y-105866899D02*
X133536013Y-107366899D01*
X133536013Y-107366899D02*
X134536013Y-107366899D01*
X136164134Y-107182613D02*
X136164134Y-107896899D01*
X136664134Y-106396899D02*
X136164134Y-107182613D01*
X136164134Y-107182613D02*
X135664134Y-106396899D01*
X134262706Y-110266899D02*
X133262706Y-111766899D01*
X133262706Y-110266899D02*
X134262706Y-111766899D01*
D14*
X168705965Y-116877363D02*
X168604950Y-116911035D01*
X168604950Y-116911035D02*
X168470263Y-116911035D01*
X168470263Y-116911035D02*
X168268232Y-116911035D01*
X168268232Y-116911035D02*
X168167217Y-116944707D01*
X168167217Y-116944707D02*
X168099874Y-117012050D01*
X168301904Y-117146737D02*
X168200889Y-117180409D01*
X168200889Y-117180409D02*
X168066202Y-117180409D01*
X168066202Y-117180409D02*
X167897843Y-117079394D01*
X167897843Y-117079394D02*
X167662141Y-116843691D01*
X167662141Y-116843691D02*
X167561126Y-116675333D01*
X167561126Y-116675333D02*
X167561126Y-116540646D01*
X167561126Y-116540646D02*
X167594797Y-116439630D01*
X167594797Y-116439630D02*
X167729484Y-116304943D01*
X167729484Y-116304943D02*
X167830500Y-116271272D01*
X167830500Y-116271272D02*
X167965187Y-116271272D01*
X167965187Y-116271272D02*
X168133545Y-116372287D01*
X168133545Y-116372287D02*
X168369248Y-116607989D01*
X168369248Y-116607989D02*
X168470263Y-116776348D01*
X168470263Y-116776348D02*
X168470263Y-116911035D01*
X168470263Y-116911035D02*
X168436591Y-117012050D01*
X168436591Y-117012050D02*
X168301904Y-117146737D01*
X168133545Y-115900882D02*
X168571278Y-115463150D01*
X168571278Y-115463150D02*
X168604950Y-115968226D01*
X168604950Y-115968226D02*
X168705965Y-115867211D01*
X168705965Y-115867211D02*
X168806980Y-115833539D01*
X168806980Y-115833539D02*
X168874324Y-115833539D01*
X168874324Y-115833539D02*
X168975339Y-115867211D01*
X168975339Y-115867211D02*
X169143698Y-116035569D01*
X169143698Y-116035569D02*
X169177370Y-116136585D01*
X169177370Y-116136585D02*
X169177370Y-116203928D01*
X169177370Y-116203928D02*
X169143698Y-116304943D01*
X169143698Y-116304943D02*
X168941667Y-116506974D01*
X168941667Y-116506974D02*
X168840652Y-116540646D01*
X168840652Y-116540646D02*
X168773309Y-116540646D01*
X133237606Y-86821569D02*
X132530500Y-86114462D01*
X132530500Y-86114462D02*
X132698858Y-85946103D01*
X132698858Y-85946103D02*
X132833545Y-85878760D01*
X132833545Y-85878760D02*
X132968232Y-85878760D01*
X132968232Y-85878760D02*
X133069248Y-85912432D01*
X133069248Y-85912432D02*
X133237606Y-86013447D01*
X133237606Y-86013447D02*
X133338622Y-86114462D01*
X133338622Y-86114462D02*
X133439637Y-86282821D01*
X133439637Y-86282821D02*
X133473309Y-86383836D01*
X133473309Y-86383836D02*
X133473309Y-86518523D01*
X133473309Y-86518523D02*
X133405965Y-86653210D01*
X133405965Y-86653210D02*
X133237606Y-86821569D01*
X133271278Y-85508371D02*
X133271278Y-85441027D01*
X133271278Y-85441027D02*
X133304950Y-85340012D01*
X133304950Y-85340012D02*
X133473309Y-85171653D01*
X133473309Y-85171653D02*
X133574324Y-85137981D01*
X133574324Y-85137981D02*
X133641667Y-85137981D01*
X133641667Y-85137981D02*
X133742683Y-85171653D01*
X133742683Y-85171653D02*
X133810026Y-85238997D01*
X133810026Y-85238997D02*
X133877370Y-85373684D01*
X133877370Y-85373684D02*
X133877370Y-86181806D01*
X133877370Y-86181806D02*
X134315102Y-85744073D01*
X139714179Y-98362737D02*
X139237988Y-98696070D01*
X139714179Y-98934165D02*
X138714179Y-98934165D01*
X138714179Y-98934165D02*
X138714179Y-98553213D01*
X138714179Y-98553213D02*
X138761798Y-98457975D01*
X138761798Y-98457975D02*
X138809417Y-98410356D01*
X138809417Y-98410356D02*
X138904655Y-98362737D01*
X138904655Y-98362737D02*
X139047512Y-98362737D01*
X139047512Y-98362737D02*
X139142750Y-98410356D01*
X139142750Y-98410356D02*
X139190369Y-98457975D01*
X139190369Y-98457975D02*
X139237988Y-98553213D01*
X139237988Y-98553213D02*
X139237988Y-98934165D01*
X138809417Y-97981784D02*
X138761798Y-97934165D01*
X138761798Y-97934165D02*
X138714179Y-97838927D01*
X138714179Y-97838927D02*
X138714179Y-97600832D01*
X138714179Y-97600832D02*
X138761798Y-97505594D01*
X138761798Y-97505594D02*
X138809417Y-97457975D01*
X138809417Y-97457975D02*
X138904655Y-97410356D01*
X138904655Y-97410356D02*
X138999893Y-97410356D01*
X138999893Y-97410356D02*
X139142750Y-97457975D01*
X139142750Y-97457975D02*
X139714179Y-98029403D01*
X139714179Y-98029403D02*
X139714179Y-97410356D01*
X134040842Y-115315764D02*
X134747949Y-114608658D01*
X134747949Y-114608658D02*
X134916308Y-114777016D01*
X134916308Y-114777016D02*
X134983651Y-114911703D01*
X134983651Y-114911703D02*
X134983651Y-115046390D01*
X134983651Y-115046390D02*
X134949979Y-115147406D01*
X134949979Y-115147406D02*
X134848964Y-115315764D01*
X134848964Y-115315764D02*
X134747949Y-115416780D01*
X134747949Y-115416780D02*
X134579590Y-115517795D01*
X134579590Y-115517795D02*
X134478575Y-115551467D01*
X134478575Y-115551467D02*
X134343888Y-115551467D01*
X134343888Y-115551467D02*
X134209201Y-115484123D01*
X134209201Y-115484123D02*
X134040842Y-115315764D01*
X135791773Y-115652482D02*
X135455056Y-115315764D01*
X135455056Y-115315764D02*
X135084666Y-115618810D01*
X135084666Y-115618810D02*
X135152010Y-115618810D01*
X135152010Y-115618810D02*
X135253025Y-115652482D01*
X135253025Y-115652482D02*
X135421384Y-115820841D01*
X135421384Y-115820841D02*
X135455056Y-115921856D01*
X135455056Y-115921856D02*
X135455056Y-115989199D01*
X135455056Y-115989199D02*
X135421384Y-116090215D01*
X135421384Y-116090215D02*
X135253025Y-116258573D01*
X135253025Y-116258573D02*
X135152010Y-116292245D01*
X135152010Y-116292245D02*
X135084666Y-116292245D01*
X135084666Y-116292245D02*
X134983651Y-116258573D01*
X134983651Y-116258573D02*
X134815292Y-116090215D01*
X134815292Y-116090215D02*
X134781621Y-115989199D01*
X134781621Y-115989199D02*
X134781621Y-115921856D01*
X163147562Y-98003593D02*
X163290419Y-98051212D01*
X163290419Y-98051212D02*
X163528514Y-98051212D01*
X163528514Y-98051212D02*
X163623752Y-98003593D01*
X163623752Y-98003593D02*
X163671371Y-97955973D01*
X163671371Y-97955973D02*
X163718990Y-97860735D01*
X163718990Y-97860735D02*
X163718990Y-97765497D01*
X163718990Y-97765497D02*
X163671371Y-97670259D01*
X163671371Y-97670259D02*
X163623752Y-97622640D01*
X163623752Y-97622640D02*
X163528514Y-97575021D01*
X163528514Y-97575021D02*
X163338038Y-97527402D01*
X163338038Y-97527402D02*
X163242800Y-97479783D01*
X163242800Y-97479783D02*
X163195181Y-97432164D01*
X163195181Y-97432164D02*
X163147562Y-97336926D01*
X163147562Y-97336926D02*
X163147562Y-97241688D01*
X163147562Y-97241688D02*
X163195181Y-97146450D01*
X163195181Y-97146450D02*
X163242800Y-97098831D01*
X163242800Y-97098831D02*
X163338038Y-97051212D01*
X163338038Y-97051212D02*
X163576133Y-97051212D01*
X163576133Y-97051212D02*
X163718990Y-97098831D01*
X164718990Y-97955973D02*
X164671371Y-98003593D01*
X164671371Y-98003593D02*
X164528514Y-98051212D01*
X164528514Y-98051212D02*
X164433276Y-98051212D01*
X164433276Y-98051212D02*
X164290419Y-98003593D01*
X164290419Y-98003593D02*
X164195181Y-97908354D01*
X164195181Y-97908354D02*
X164147562Y-97813116D01*
X164147562Y-97813116D02*
X164099943Y-97622640D01*
X164099943Y-97622640D02*
X164099943Y-97479783D01*
X164099943Y-97479783D02*
X164147562Y-97289307D01*
X164147562Y-97289307D02*
X164195181Y-97194069D01*
X164195181Y-97194069D02*
X164290419Y-97098831D01*
X164290419Y-97098831D02*
X164433276Y-97051212D01*
X164433276Y-97051212D02*
X164528514Y-97051212D01*
X164528514Y-97051212D02*
X164671371Y-97098831D01*
X164671371Y-97098831D02*
X164718990Y-97146450D01*
X165623752Y-98051212D02*
X165147562Y-98051212D01*
X165147562Y-98051212D02*
X165147562Y-97051212D01*
X163913095Y-109777438D02*
X163817857Y-109729819D01*
X163817857Y-109729819D02*
X163675000Y-109729819D01*
X163675000Y-109729819D02*
X163532143Y-109777438D01*
X163532143Y-109777438D02*
X163436905Y-109872676D01*
X163436905Y-109872676D02*
X163389286Y-109967914D01*
X163389286Y-109967914D02*
X163341667Y-110158390D01*
X163341667Y-110158390D02*
X163341667Y-110301247D01*
X163341667Y-110301247D02*
X163389286Y-110491723D01*
X163389286Y-110491723D02*
X163436905Y-110586961D01*
X163436905Y-110586961D02*
X163532143Y-110682200D01*
X163532143Y-110682200D02*
X163675000Y-110729819D01*
X163675000Y-110729819D02*
X163770238Y-110729819D01*
X163770238Y-110729819D02*
X163913095Y-110682200D01*
X163913095Y-110682200D02*
X163960714Y-110634580D01*
X163960714Y-110634580D02*
X163960714Y-110301247D01*
X163960714Y-110301247D02*
X163770238Y-110301247D01*
X164389286Y-110729819D02*
X164389286Y-109729819D01*
X164389286Y-109729819D02*
X164960714Y-110729819D01*
X164960714Y-110729819D02*
X164960714Y-109729819D01*
X165436905Y-110729819D02*
X165436905Y-109729819D01*
X165436905Y-109729819D02*
X165675000Y-109729819D01*
X165675000Y-109729819D02*
X165817857Y-109777438D01*
X165817857Y-109777438D02*
X165913095Y-109872676D01*
X165913095Y-109872676D02*
X165960714Y-109967914D01*
X165960714Y-109967914D02*
X166008333Y-110158390D01*
X166008333Y-110158390D02*
X166008333Y-110301247D01*
X166008333Y-110301247D02*
X165960714Y-110491723D01*
X165960714Y-110491723D02*
X165913095Y-110586961D01*
X165913095Y-110586961D02*
X165817857Y-110682200D01*
X165817857Y-110682200D02*
X165675000Y-110729819D01*
X165675000Y-110729819D02*
X165436905Y-110729819D01*
X137776133Y-101351212D02*
X137776133Y-102160735D01*
X137776133Y-102160735D02*
X137823752Y-102255973D01*
X137823752Y-102255973D02*
X137871371Y-102303593D01*
X137871371Y-102303593D02*
X137966609Y-102351212D01*
X137966609Y-102351212D02*
X138157085Y-102351212D01*
X138157085Y-102351212D02*
X138252323Y-102303593D01*
X138252323Y-102303593D02*
X138299942Y-102255973D01*
X138299942Y-102255973D02*
X138347561Y-102160735D01*
X138347561Y-102160735D02*
X138347561Y-101351212D01*
X139347561Y-102351212D02*
X138776133Y-102351212D01*
X139061847Y-102351212D02*
X139061847Y-101351212D01*
X139061847Y-101351212D02*
X138966609Y-101494069D01*
X138966609Y-101494069D02*
X138871371Y-101589307D01*
X138871371Y-101589307D02*
X138776133Y-101636926D01*
X172876396Y-83272245D02*
X172303977Y-83171230D01*
X172472335Y-83676306D02*
X171765229Y-82969199D01*
X171765229Y-82969199D02*
X172034603Y-82699825D01*
X172034603Y-82699825D02*
X172135618Y-82666153D01*
X172135618Y-82666153D02*
X172202961Y-82666153D01*
X172202961Y-82666153D02*
X172303977Y-82699825D01*
X172303977Y-82699825D02*
X172404992Y-82800840D01*
X172404992Y-82800840D02*
X172438664Y-82901856D01*
X172438664Y-82901856D02*
X172438664Y-82969199D01*
X172438664Y-82969199D02*
X172404992Y-83070214D01*
X172404992Y-83070214D02*
X172135618Y-83339588D01*
X173549831Y-82598810D02*
X173145770Y-83002871D01*
X173347801Y-82800840D02*
X172640694Y-82093734D01*
X172640694Y-82093734D02*
X172674366Y-82262092D01*
X172674366Y-82262092D02*
X172674366Y-82396779D01*
X172674366Y-82396779D02*
X172640694Y-82497795D01*
X173179442Y-81689672D02*
X173179442Y-81622329D01*
X173179442Y-81622329D02*
X173213114Y-81521314D01*
X173213114Y-81521314D02*
X173381473Y-81352955D01*
X173381473Y-81352955D02*
X173482488Y-81319283D01*
X173482488Y-81319283D02*
X173549832Y-81319283D01*
X173549832Y-81319283D02*
X173650847Y-81352955D01*
X173650847Y-81352955D02*
X173718190Y-81420298D01*
X173718190Y-81420298D02*
X173785534Y-81554985D01*
X173785534Y-81554985D02*
X173785534Y-82363107D01*
X173785534Y-82363107D02*
X174223267Y-81925375D01*
X139664179Y-95562737D02*
X139187988Y-95896070D01*
X139664179Y-96134165D02*
X138664179Y-96134165D01*
X138664179Y-96134165D02*
X138664179Y-95753213D01*
X138664179Y-95753213D02*
X138711798Y-95657975D01*
X138711798Y-95657975D02*
X138759417Y-95610356D01*
X138759417Y-95610356D02*
X138854655Y-95562737D01*
X138854655Y-95562737D02*
X138997512Y-95562737D01*
X138997512Y-95562737D02*
X139092750Y-95610356D01*
X139092750Y-95610356D02*
X139140369Y-95657975D01*
X139140369Y-95657975D02*
X139187988Y-95753213D01*
X139187988Y-95753213D02*
X139187988Y-96134165D01*
X139664179Y-94610356D02*
X139664179Y-95181784D01*
X139664179Y-94896070D02*
X138664179Y-94896070D01*
X138664179Y-94896070D02*
X138807036Y-94991308D01*
X138807036Y-94991308D02*
X138902274Y-95086546D01*
X138902274Y-95086546D02*
X138949893Y-95181784D01*
X160738990Y-86227402D02*
X160881847Y-86275021D01*
X160881847Y-86275021D02*
X160929466Y-86322640D01*
X160929466Y-86322640D02*
X160977085Y-86417878D01*
X160977085Y-86417878D02*
X160977085Y-86560735D01*
X160977085Y-86560735D02*
X160929466Y-86655973D01*
X160929466Y-86655973D02*
X160881847Y-86703593D01*
X160881847Y-86703593D02*
X160786609Y-86751212D01*
X160786609Y-86751212D02*
X160405657Y-86751212D01*
X160405657Y-86751212D02*
X160405657Y-85751212D01*
X160405657Y-85751212D02*
X160738990Y-85751212D01*
X160738990Y-85751212D02*
X160834228Y-85798831D01*
X160834228Y-85798831D02*
X160881847Y-85846450D01*
X160881847Y-85846450D02*
X160929466Y-85941688D01*
X160929466Y-85941688D02*
X160929466Y-86036926D01*
X160929466Y-86036926D02*
X160881847Y-86132164D01*
X160881847Y-86132164D02*
X160834228Y-86179783D01*
X160834228Y-86179783D02*
X160738990Y-86227402D01*
X160738990Y-86227402D02*
X160405657Y-86227402D01*
X161548514Y-86751212D02*
X161453276Y-86703593D01*
X161453276Y-86703593D02*
X161405657Y-86655973D01*
X161405657Y-86655973D02*
X161358038Y-86560735D01*
X161358038Y-86560735D02*
X161358038Y-86275021D01*
X161358038Y-86275021D02*
X161405657Y-86179783D01*
X161405657Y-86179783D02*
X161453276Y-86132164D01*
X161453276Y-86132164D02*
X161548514Y-86084545D01*
X161548514Y-86084545D02*
X161691371Y-86084545D01*
X161691371Y-86084545D02*
X161786609Y-86132164D01*
X161786609Y-86132164D02*
X161834228Y-86179783D01*
X161834228Y-86179783D02*
X161881847Y-86275021D01*
X161881847Y-86275021D02*
X161881847Y-86560735D01*
X161881847Y-86560735D02*
X161834228Y-86655973D01*
X161834228Y-86655973D02*
X161786609Y-86703593D01*
X161786609Y-86703593D02*
X161691371Y-86751212D01*
X161691371Y-86751212D02*
X161548514Y-86751212D01*
X162453276Y-86751212D02*
X162358038Y-86703593D01*
X162358038Y-86703593D02*
X162310419Y-86655973D01*
X162310419Y-86655973D02*
X162262800Y-86560735D01*
X162262800Y-86560735D02*
X162262800Y-86275021D01*
X162262800Y-86275021D02*
X162310419Y-86179783D01*
X162310419Y-86179783D02*
X162358038Y-86132164D01*
X162358038Y-86132164D02*
X162453276Y-86084545D01*
X162453276Y-86084545D02*
X162596133Y-86084545D01*
X162596133Y-86084545D02*
X162691371Y-86132164D01*
X162691371Y-86132164D02*
X162738990Y-86179783D01*
X162738990Y-86179783D02*
X162786609Y-86275021D01*
X162786609Y-86275021D02*
X162786609Y-86560735D01*
X162786609Y-86560735D02*
X162738990Y-86655973D01*
X162738990Y-86655973D02*
X162691371Y-86703593D01*
X162691371Y-86703593D02*
X162596133Y-86751212D01*
X162596133Y-86751212D02*
X162453276Y-86751212D01*
X163072324Y-86084545D02*
X163453276Y-86084545D01*
X163215181Y-85751212D02*
X163215181Y-86608354D01*
X163215181Y-86608354D02*
X163262800Y-86703593D01*
X163262800Y-86703593D02*
X163358038Y-86751212D01*
X163358038Y-86751212D02*
X163453276Y-86751212D01*
X133367693Y-91105651D02*
X133320074Y-91153271D01*
X133320074Y-91153271D02*
X133177217Y-91200890D01*
X133177217Y-91200890D02*
X133081979Y-91200890D01*
X133081979Y-91200890D02*
X132939122Y-91153271D01*
X132939122Y-91153271D02*
X132843884Y-91058032D01*
X132843884Y-91058032D02*
X132796265Y-90962794D01*
X132796265Y-90962794D02*
X132748646Y-90772318D01*
X132748646Y-90772318D02*
X132748646Y-90629461D01*
X132748646Y-90629461D02*
X132796265Y-90438985D01*
X132796265Y-90438985D02*
X132843884Y-90343747D01*
X132843884Y-90343747D02*
X132939122Y-90248509D01*
X132939122Y-90248509D02*
X133081979Y-90200890D01*
X133081979Y-90200890D02*
X133177217Y-90200890D01*
X133177217Y-90200890D02*
X133320074Y-90248509D01*
X133320074Y-90248509D02*
X133367693Y-90296128D01*
X134320074Y-91200890D02*
X133748646Y-91200890D01*
X134034360Y-91200890D02*
X134034360Y-90200890D01*
X134034360Y-90200890D02*
X133939122Y-90343747D01*
X133939122Y-90343747D02*
X133843884Y-90438985D01*
X133843884Y-90438985D02*
X133748646Y-90486604D01*
X139892857Y-91463059D02*
X139416666Y-91796392D01*
X139892857Y-92034487D02*
X138892857Y-92034487D01*
X138892857Y-92034487D02*
X138892857Y-91653535D01*
X138892857Y-91653535D02*
X138940476Y-91558297D01*
X138940476Y-91558297D02*
X138988095Y-91510678D01*
X138988095Y-91510678D02*
X139083333Y-91463059D01*
X139083333Y-91463059D02*
X139226190Y-91463059D01*
X139226190Y-91463059D02*
X139321428Y-91510678D01*
X139321428Y-91510678D02*
X139369047Y-91558297D01*
X139369047Y-91558297D02*
X139416666Y-91653535D01*
X139416666Y-91653535D02*
X139416666Y-92034487D01*
X139226190Y-90605916D02*
X139892857Y-90605916D01*
X138845238Y-90844011D02*
X139559523Y-91082106D01*
X139559523Y-91082106D02*
X139559523Y-90463059D01*
X127251396Y-116822245D02*
X126678977Y-116721230D01*
X126847335Y-117226306D02*
X126140229Y-116519199D01*
X126140229Y-116519199D02*
X126409603Y-116249825D01*
X126409603Y-116249825D02*
X126510618Y-116216153D01*
X126510618Y-116216153D02*
X126577961Y-116216153D01*
X126577961Y-116216153D02*
X126678977Y-116249825D01*
X126678977Y-116249825D02*
X126779992Y-116350840D01*
X126779992Y-116350840D02*
X126813664Y-116451856D01*
X126813664Y-116451856D02*
X126813664Y-116519199D01*
X126813664Y-116519199D02*
X126779992Y-116620214D01*
X126779992Y-116620214D02*
X126510618Y-116889588D01*
X127924831Y-116148810D02*
X127520770Y-116552871D01*
X127722801Y-116350840D02*
X127015694Y-115643734D01*
X127015694Y-115643734D02*
X127049366Y-115812092D01*
X127049366Y-115812092D02*
X127049366Y-115946779D01*
X127049366Y-115946779D02*
X127015694Y-116047795D01*
X127655458Y-115003970D02*
X127722801Y-114936627D01*
X127722801Y-114936627D02*
X127823816Y-114902955D01*
X127823816Y-114902955D02*
X127891160Y-114902955D01*
X127891160Y-114902955D02*
X127992175Y-114936627D01*
X127992175Y-114936627D02*
X128160534Y-115037642D01*
X128160534Y-115037642D02*
X128328893Y-115206001D01*
X128328893Y-115206001D02*
X128429908Y-115374359D01*
X128429908Y-115374359D02*
X128463580Y-115475375D01*
X128463580Y-115475375D02*
X128463580Y-115542718D01*
X128463580Y-115542718D02*
X128429908Y-115643733D01*
X128429908Y-115643733D02*
X128362564Y-115711077D01*
X128362564Y-115711077D02*
X128261549Y-115744749D01*
X128261549Y-115744749D02*
X128194206Y-115744749D01*
X128194206Y-115744749D02*
X128093190Y-115711077D01*
X128093190Y-115711077D02*
X127924832Y-115610062D01*
X127924832Y-115610062D02*
X127756473Y-115441703D01*
X127756473Y-115441703D02*
X127655458Y-115273344D01*
X127655458Y-115273344D02*
X127621786Y-115172329D01*
X127621786Y-115172329D02*
X127621786Y-115104985D01*
X127621786Y-115104985D02*
X127655458Y-115003970D01*
X139171371Y-115255973D02*
X139123752Y-115303593D01*
X139123752Y-115303593D02*
X138980895Y-115351212D01*
X138980895Y-115351212D02*
X138885657Y-115351212D01*
X138885657Y-115351212D02*
X138742800Y-115303593D01*
X138742800Y-115303593D02*
X138647562Y-115208354D01*
X138647562Y-115208354D02*
X138599943Y-115113116D01*
X138599943Y-115113116D02*
X138552324Y-114922640D01*
X138552324Y-114922640D02*
X138552324Y-114779783D01*
X138552324Y-114779783D02*
X138599943Y-114589307D01*
X138599943Y-114589307D02*
X138647562Y-114494069D01*
X138647562Y-114494069D02*
X138742800Y-114398831D01*
X138742800Y-114398831D02*
X138885657Y-114351212D01*
X138885657Y-114351212D02*
X138980895Y-114351212D01*
X138980895Y-114351212D02*
X139123752Y-114398831D01*
X139123752Y-114398831D02*
X139171371Y-114446450D01*
X139504705Y-114351212D02*
X140123752Y-114351212D01*
X140123752Y-114351212D02*
X139790419Y-114732164D01*
X139790419Y-114732164D02*
X139933276Y-114732164D01*
X139933276Y-114732164D02*
X140028514Y-114779783D01*
X140028514Y-114779783D02*
X140076133Y-114827402D01*
X140076133Y-114827402D02*
X140123752Y-114922640D01*
X140123752Y-114922640D02*
X140123752Y-115160735D01*
X140123752Y-115160735D02*
X140076133Y-115255973D01*
X140076133Y-115255973D02*
X140028514Y-115303593D01*
X140028514Y-115303593D02*
X139933276Y-115351212D01*
X139933276Y-115351212D02*
X139647562Y-115351212D01*
X139647562Y-115351212D02*
X139552324Y-115303593D01*
X139552324Y-115303593D02*
X139504705Y-115255973D01*
X125081161Y-118877010D02*
X124508742Y-118775995D01*
X124677100Y-119281071D02*
X123969994Y-118573964D01*
X123969994Y-118573964D02*
X124239368Y-118304590D01*
X124239368Y-118304590D02*
X124340383Y-118270918D01*
X124340383Y-118270918D02*
X124407726Y-118270918D01*
X124407726Y-118270918D02*
X124508742Y-118304590D01*
X124508742Y-118304590D02*
X124609757Y-118405605D01*
X124609757Y-118405605D02*
X124643429Y-118506621D01*
X124643429Y-118506621D02*
X124643429Y-118573964D01*
X124643429Y-118573964D02*
X124609757Y-118674979D01*
X124609757Y-118674979D02*
X124340383Y-118944353D01*
X125754596Y-118203575D02*
X125350535Y-118607636D01*
X125552566Y-118405605D02*
X124845459Y-117698499D01*
X124845459Y-117698499D02*
X124879131Y-117866857D01*
X124879131Y-117866857D02*
X124879131Y-118001544D01*
X124879131Y-118001544D02*
X124845459Y-118102560D01*
X125889284Y-117126079D02*
X126360688Y-117597483D01*
X125451551Y-117025063D02*
X125788268Y-117698498D01*
X125788268Y-117698498D02*
X126226001Y-117260766D01*
X141921371Y-109405973D02*
X141873752Y-109453593D01*
X141873752Y-109453593D02*
X141730895Y-109501212D01*
X141730895Y-109501212D02*
X141635657Y-109501212D01*
X141635657Y-109501212D02*
X141492800Y-109453593D01*
X141492800Y-109453593D02*
X141397562Y-109358354D01*
X141397562Y-109358354D02*
X141349943Y-109263116D01*
X141349943Y-109263116D02*
X141302324Y-109072640D01*
X141302324Y-109072640D02*
X141302324Y-108929783D01*
X141302324Y-108929783D02*
X141349943Y-108739307D01*
X141349943Y-108739307D02*
X141397562Y-108644069D01*
X141397562Y-108644069D02*
X141492800Y-108548831D01*
X141492800Y-108548831D02*
X141635657Y-108501212D01*
X141635657Y-108501212D02*
X141730895Y-108501212D01*
X141730895Y-108501212D02*
X141873752Y-108548831D01*
X141873752Y-108548831D02*
X141921371Y-108596450D01*
X142778514Y-108834545D02*
X142778514Y-109501212D01*
X142540419Y-108453593D02*
X142302324Y-109167878D01*
X142302324Y-109167878D02*
X142921371Y-109167878D01*
X164019904Y-122324825D02*
X164120919Y-121752406D01*
X163615843Y-121920764D02*
X164322950Y-121213658D01*
X164322950Y-121213658D02*
X164592324Y-121483032D01*
X164592324Y-121483032D02*
X164625996Y-121584047D01*
X164625996Y-121584047D02*
X164625996Y-121651390D01*
X164625996Y-121651390D02*
X164592324Y-121752406D01*
X164592324Y-121752406D02*
X164491309Y-121853421D01*
X164491309Y-121853421D02*
X164390293Y-121887093D01*
X164390293Y-121887093D02*
X164322950Y-121887093D01*
X164322950Y-121887093D02*
X164221935Y-121853421D01*
X164221935Y-121853421D02*
X163952561Y-121584047D01*
X164356622Y-122661543D02*
X164491309Y-122796230D01*
X164491309Y-122796230D02*
X164592324Y-122829902D01*
X164592324Y-122829902D02*
X164659667Y-122829902D01*
X164659667Y-122829902D02*
X164828026Y-122796230D01*
X164828026Y-122796230D02*
X164996385Y-122695215D01*
X164996385Y-122695215D02*
X165265759Y-122425841D01*
X165265759Y-122425841D02*
X165299431Y-122324825D01*
X165299431Y-122324825D02*
X165299431Y-122257482D01*
X165299431Y-122257482D02*
X165265759Y-122156467D01*
X165265759Y-122156467D02*
X165131072Y-122021780D01*
X165131072Y-122021780D02*
X165030057Y-121988108D01*
X165030057Y-121988108D02*
X164962713Y-121988108D01*
X164962713Y-121988108D02*
X164861698Y-122021780D01*
X164861698Y-122021780D02*
X164693339Y-122190138D01*
X164693339Y-122190138D02*
X164659667Y-122291154D01*
X164659667Y-122291154D02*
X164659667Y-122358497D01*
X164659667Y-122358497D02*
X164693339Y-122459512D01*
X164693339Y-122459512D02*
X164828026Y-122594199D01*
X164828026Y-122594199D02*
X164929041Y-122627871D01*
X164929041Y-122627871D02*
X164996385Y-122627871D01*
X164996385Y-122627871D02*
X165097400Y-122594199D01*
X138054704Y-111927402D02*
X137721371Y-111927402D01*
X137721371Y-112451212D02*
X137721371Y-111451212D01*
X137721371Y-111451212D02*
X138197561Y-111451212D01*
X139102323Y-112451212D02*
X138530895Y-112451212D01*
X138816609Y-112451212D02*
X138816609Y-111451212D01*
X138816609Y-111451212D02*
X138721371Y-111594069D01*
X138721371Y-111594069D02*
X138626133Y-111689307D01*
X138626133Y-111689307D02*
X138530895Y-111736926D01*
X136054704Y-84351212D02*
X136054704Y-85065497D01*
X136054704Y-85065497D02*
X136007085Y-85208354D01*
X136007085Y-85208354D02*
X135911847Y-85303593D01*
X135911847Y-85303593D02*
X135768990Y-85351212D01*
X135768990Y-85351212D02*
X135673752Y-85351212D01*
X136530895Y-85351212D02*
X136530895Y-84351212D01*
X136530895Y-84351212D02*
X136911847Y-84351212D01*
X136911847Y-84351212D02*
X137007085Y-84398831D01*
X137007085Y-84398831D02*
X137054704Y-84446450D01*
X137054704Y-84446450D02*
X137102323Y-84541688D01*
X137102323Y-84541688D02*
X137102323Y-84684545D01*
X137102323Y-84684545D02*
X137054704Y-84779783D01*
X137054704Y-84779783D02*
X137007085Y-84827402D01*
X137007085Y-84827402D02*
X136911847Y-84875021D01*
X136911847Y-84875021D02*
X136530895Y-84875021D01*
X138054704Y-85351212D02*
X137483276Y-85351212D01*
X137768990Y-85351212D02*
X137768990Y-84351212D01*
X137768990Y-84351212D02*
X137673752Y-84494069D01*
X137673752Y-84494069D02*
X137578514Y-84589307D01*
X137578514Y-84589307D02*
X137483276Y-84636926D01*
X165458185Y-123663107D02*
X165559200Y-123090688D01*
X165054124Y-123259046D02*
X165761231Y-122551940D01*
X165761231Y-122551940D02*
X166030605Y-122821314D01*
X166030605Y-122821314D02*
X166064277Y-122922329D01*
X166064277Y-122922329D02*
X166064277Y-122989672D01*
X166064277Y-122989672D02*
X166030605Y-123090688D01*
X166030605Y-123090688D02*
X165929590Y-123191703D01*
X165929590Y-123191703D02*
X165828574Y-123225375D01*
X165828574Y-123225375D02*
X165761231Y-123225375D01*
X165761231Y-123225375D02*
X165660216Y-123191703D01*
X165660216Y-123191703D02*
X165390842Y-122922329D01*
X166131620Y-124336542D02*
X165727559Y-123932481D01*
X165929590Y-124134512D02*
X166636696Y-123427405D01*
X166636696Y-123427405D02*
X166468338Y-123461077D01*
X166468338Y-123461077D02*
X166333651Y-123461077D01*
X166333651Y-123461077D02*
X166232635Y-123427405D01*
X167074429Y-123865138D02*
X167512162Y-124302871D01*
X167512162Y-124302871D02*
X167007086Y-124336543D01*
X167007086Y-124336543D02*
X167108101Y-124437558D01*
X167108101Y-124437558D02*
X167141773Y-124538573D01*
X167141773Y-124538573D02*
X167141773Y-124605917D01*
X167141773Y-124605917D02*
X167108101Y-124706932D01*
X167108101Y-124706932D02*
X166939742Y-124875291D01*
X166939742Y-124875291D02*
X166838727Y-124908962D01*
X166838727Y-124908962D02*
X166771384Y-124908962D01*
X166771384Y-124908962D02*
X166670368Y-124875291D01*
X166670368Y-124875291D02*
X166468338Y-124673260D01*
X166468338Y-124673260D02*
X166434666Y-124572245D01*
X166434666Y-124572245D02*
X166434666Y-124504901D01*
X130433185Y-76463107D02*
X130534200Y-75890688D01*
X130029124Y-76059046D02*
X130736231Y-75351940D01*
X130736231Y-75351940D02*
X131005605Y-75621314D01*
X131005605Y-75621314D02*
X131039277Y-75722329D01*
X131039277Y-75722329D02*
X131039277Y-75789672D01*
X131039277Y-75789672D02*
X131005605Y-75890688D01*
X131005605Y-75890688D02*
X130904590Y-75991703D01*
X130904590Y-75991703D02*
X130803574Y-76025375D01*
X130803574Y-76025375D02*
X130736231Y-76025375D01*
X130736231Y-76025375D02*
X130635216Y-75991703D01*
X130635216Y-75991703D02*
X130365842Y-75722329D01*
X131106620Y-77136542D02*
X130702559Y-76732481D01*
X130904590Y-76934512D02*
X131611696Y-76227405D01*
X131611696Y-76227405D02*
X131443338Y-76261077D01*
X131443338Y-76261077D02*
X131308651Y-76261077D01*
X131308651Y-76261077D02*
X131207635Y-76227405D01*
X131780055Y-77809978D02*
X131375994Y-77405917D01*
X131578025Y-77607947D02*
X132285132Y-76900840D01*
X132285132Y-76900840D02*
X132116773Y-76934512D01*
X132116773Y-76934512D02*
X131982086Y-76934512D01*
X131982086Y-76934512D02*
X131881071Y-76900840D01*
X163841502Y-92100890D02*
X163508169Y-91624699D01*
X163270074Y-92100890D02*
X163270074Y-91100890D01*
X163270074Y-91100890D02*
X163651026Y-91100890D01*
X163651026Y-91100890D02*
X163746264Y-91148509D01*
X163746264Y-91148509D02*
X163793883Y-91196128D01*
X163793883Y-91196128D02*
X163841502Y-91291366D01*
X163841502Y-91291366D02*
X163841502Y-91434223D01*
X163841502Y-91434223D02*
X163793883Y-91529461D01*
X163793883Y-91529461D02*
X163746264Y-91577080D01*
X163746264Y-91577080D02*
X163651026Y-91624699D01*
X163651026Y-91624699D02*
X163270074Y-91624699D01*
X164174836Y-91100890D02*
X164841502Y-92100890D01*
X164841502Y-91100890D02*
X164174836Y-92100890D01*
X165412931Y-91100890D02*
X165508169Y-91100890D01*
X165508169Y-91100890D02*
X165603407Y-91148509D01*
X165603407Y-91148509D02*
X165651026Y-91196128D01*
X165651026Y-91196128D02*
X165698645Y-91291366D01*
X165698645Y-91291366D02*
X165746264Y-91481842D01*
X165746264Y-91481842D02*
X165746264Y-91719937D01*
X165746264Y-91719937D02*
X165698645Y-91910413D01*
X165698645Y-91910413D02*
X165651026Y-92005651D01*
X165651026Y-92005651D02*
X165603407Y-92053271D01*
X165603407Y-92053271D02*
X165508169Y-92100890D01*
X165508169Y-92100890D02*
X165412931Y-92100890D01*
X165412931Y-92100890D02*
X165317693Y-92053271D01*
X165317693Y-92053271D02*
X165270074Y-92005651D01*
X165270074Y-92005651D02*
X165222455Y-91910413D01*
X165222455Y-91910413D02*
X165174836Y-91719937D01*
X165174836Y-91719937D02*
X165174836Y-91481842D01*
X165174836Y-91481842D02*
X165222455Y-91291366D01*
X165222455Y-91291366D02*
X165270074Y-91196128D01*
X165270074Y-91196128D02*
X165317693Y-91148509D01*
X165317693Y-91148509D02*
X165412931Y-91100890D01*
X133041502Y-94050890D02*
X132708169Y-93574699D01*
X132470074Y-94050890D02*
X132470074Y-93050890D01*
X132470074Y-93050890D02*
X132851026Y-93050890D01*
X132851026Y-93050890D02*
X132946264Y-93098509D01*
X132946264Y-93098509D02*
X132993883Y-93146128D01*
X132993883Y-93146128D02*
X133041502Y-93241366D01*
X133041502Y-93241366D02*
X133041502Y-93384223D01*
X133041502Y-93384223D02*
X132993883Y-93479461D01*
X132993883Y-93479461D02*
X132946264Y-93527080D01*
X132946264Y-93527080D02*
X132851026Y-93574699D01*
X132851026Y-93574699D02*
X132470074Y-93574699D01*
X133374836Y-93050890D02*
X134041502Y-94050890D01*
X134041502Y-93050890D02*
X133374836Y-94050890D01*
X134946264Y-94050890D02*
X134374836Y-94050890D01*
X134660550Y-94050890D02*
X134660550Y-93050890D01*
X134660550Y-93050890D02*
X134565312Y-93193747D01*
X134565312Y-93193747D02*
X134470074Y-93288985D01*
X134470074Y-93288985D02*
X134374836Y-93336604D01*
X166159643Y-77852685D02*
X166058628Y-77886357D01*
X166058628Y-77886357D02*
X165923941Y-77886357D01*
X165923941Y-77886357D02*
X165721910Y-77886357D01*
X165721910Y-77886357D02*
X165620895Y-77920029D01*
X165620895Y-77920029D02*
X165553552Y-77987372D01*
X165755582Y-78122059D02*
X165654567Y-78155731D01*
X165654567Y-78155731D02*
X165519880Y-78155731D01*
X165519880Y-78155731D02*
X165351521Y-78054716D01*
X165351521Y-78054716D02*
X165115819Y-77819013D01*
X165115819Y-77819013D02*
X165014804Y-77650655D01*
X165014804Y-77650655D02*
X165014804Y-77515968D01*
X165014804Y-77515968D02*
X165048475Y-77414952D01*
X165048475Y-77414952D02*
X165183162Y-77280265D01*
X165183162Y-77280265D02*
X165284178Y-77246594D01*
X165284178Y-77246594D02*
X165418865Y-77246594D01*
X165418865Y-77246594D02*
X165587223Y-77347609D01*
X165587223Y-77347609D02*
X165822926Y-77583311D01*
X165822926Y-77583311D02*
X165923941Y-77751670D01*
X165923941Y-77751670D02*
X165923941Y-77886357D01*
X165923941Y-77886357D02*
X165890269Y-77987372D01*
X165890269Y-77987372D02*
X165755582Y-78122059D01*
X165688239Y-76909876D02*
X165688239Y-76842533D01*
X165688239Y-76842533D02*
X165721910Y-76741517D01*
X165721910Y-76741517D02*
X165890269Y-76573159D01*
X165890269Y-76573159D02*
X165991284Y-76539487D01*
X165991284Y-76539487D02*
X166058628Y-76539487D01*
X166058628Y-76539487D02*
X166159643Y-76573159D01*
X166159643Y-76573159D02*
X166226987Y-76640502D01*
X166226987Y-76640502D02*
X166294330Y-76775189D01*
X166294330Y-76775189D02*
X166294330Y-77583311D01*
X166294330Y-77583311D02*
X166732063Y-77145578D01*
X163223752Y-95403593D02*
X163366609Y-95451212D01*
X163366609Y-95451212D02*
X163604704Y-95451212D01*
X163604704Y-95451212D02*
X163699942Y-95403593D01*
X163699942Y-95403593D02*
X163747561Y-95355973D01*
X163747561Y-95355973D02*
X163795180Y-95260735D01*
X163795180Y-95260735D02*
X163795180Y-95165497D01*
X163795180Y-95165497D02*
X163747561Y-95070259D01*
X163747561Y-95070259D02*
X163699942Y-95022640D01*
X163699942Y-95022640D02*
X163604704Y-94975021D01*
X163604704Y-94975021D02*
X163414228Y-94927402D01*
X163414228Y-94927402D02*
X163318990Y-94879783D01*
X163318990Y-94879783D02*
X163271371Y-94832164D01*
X163271371Y-94832164D02*
X163223752Y-94736926D01*
X163223752Y-94736926D02*
X163223752Y-94641688D01*
X163223752Y-94641688D02*
X163271371Y-94546450D01*
X163271371Y-94546450D02*
X163318990Y-94498831D01*
X163318990Y-94498831D02*
X163414228Y-94451212D01*
X163414228Y-94451212D02*
X163652323Y-94451212D01*
X163652323Y-94451212D02*
X163795180Y-94498831D01*
X164223752Y-95451212D02*
X164223752Y-94451212D01*
X164223752Y-94451212D02*
X164461847Y-94451212D01*
X164461847Y-94451212D02*
X164604704Y-94498831D01*
X164604704Y-94498831D02*
X164699942Y-94594069D01*
X164699942Y-94594069D02*
X164747561Y-94689307D01*
X164747561Y-94689307D02*
X164795180Y-94879783D01*
X164795180Y-94879783D02*
X164795180Y-95022640D01*
X164795180Y-95022640D02*
X164747561Y-95213116D01*
X164747561Y-95213116D02*
X164699942Y-95308354D01*
X164699942Y-95308354D02*
X164604704Y-95403593D01*
X164604704Y-95403593D02*
X164461847Y-95451212D01*
X164461847Y-95451212D02*
X164223752Y-95451212D01*
X165176133Y-95165497D02*
X165652323Y-95165497D01*
X165080895Y-95451212D02*
X165414228Y-94451212D01*
X165414228Y-94451212D02*
X165747561Y-95451212D01*
X163149943Y-87951212D02*
X163721371Y-87951212D01*
X163435657Y-88951212D02*
X163435657Y-87951212D01*
X163959467Y-87951212D02*
X164626133Y-88951212D01*
X164626133Y-87951212D02*
X163959467Y-88951212D01*
X165197562Y-87951212D02*
X165292800Y-87951212D01*
X165292800Y-87951212D02*
X165388038Y-87998831D01*
X165388038Y-87998831D02*
X165435657Y-88046450D01*
X165435657Y-88046450D02*
X165483276Y-88141688D01*
X165483276Y-88141688D02*
X165530895Y-88332164D01*
X165530895Y-88332164D02*
X165530895Y-88570259D01*
X165530895Y-88570259D02*
X165483276Y-88760735D01*
X165483276Y-88760735D02*
X165435657Y-88855973D01*
X165435657Y-88855973D02*
X165388038Y-88903593D01*
X165388038Y-88903593D02*
X165292800Y-88951212D01*
X165292800Y-88951212D02*
X165197562Y-88951212D01*
X165197562Y-88951212D02*
X165102324Y-88903593D01*
X165102324Y-88903593D02*
X165054705Y-88855973D01*
X165054705Y-88855973D02*
X165007086Y-88760735D01*
X165007086Y-88760735D02*
X164959467Y-88570259D01*
X164959467Y-88570259D02*
X164959467Y-88332164D01*
X164959467Y-88332164D02*
X165007086Y-88141688D01*
X165007086Y-88141688D02*
X165054705Y-88046450D01*
X165054705Y-88046450D02*
X165102324Y-87998831D01*
X165102324Y-87998831D02*
X165197562Y-87951212D01*
X126545965Y-80662363D02*
X126444950Y-80696035D01*
X126444950Y-80696035D02*
X126310263Y-80696035D01*
X126310263Y-80696035D02*
X126108232Y-80696035D01*
X126108232Y-80696035D02*
X126007217Y-80729707D01*
X126007217Y-80729707D02*
X125939874Y-80797050D01*
X126141904Y-80931737D02*
X126040889Y-80965409D01*
X126040889Y-80965409D02*
X125906202Y-80965409D01*
X125906202Y-80965409D02*
X125737843Y-80864394D01*
X125737843Y-80864394D02*
X125502141Y-80628691D01*
X125502141Y-80628691D02*
X125401126Y-80460333D01*
X125401126Y-80460333D02*
X125401126Y-80325646D01*
X125401126Y-80325646D02*
X125434797Y-80224630D01*
X125434797Y-80224630D02*
X125569484Y-80089943D01*
X125569484Y-80089943D02*
X125670500Y-80056272D01*
X125670500Y-80056272D02*
X125805187Y-80056272D01*
X125805187Y-80056272D02*
X125973545Y-80157287D01*
X125973545Y-80157287D02*
X126209248Y-80392989D01*
X126209248Y-80392989D02*
X126310263Y-80561348D01*
X126310263Y-80561348D02*
X126310263Y-80696035D01*
X126310263Y-80696035D02*
X126276591Y-80797050D01*
X126276591Y-80797050D02*
X126141904Y-80931737D01*
X127118385Y-79955256D02*
X126714324Y-80359317D01*
X126916354Y-80157287D02*
X126209248Y-79450180D01*
X126209248Y-79450180D02*
X126242919Y-79618539D01*
X126242919Y-79618539D02*
X126242919Y-79753226D01*
X126242919Y-79753226D02*
X126209248Y-79854241D01*
X139892857Y-93463059D02*
X139416666Y-93796392D01*
X139892857Y-94034487D02*
X138892857Y-94034487D01*
X138892857Y-94034487D02*
X138892857Y-93653535D01*
X138892857Y-93653535D02*
X138940476Y-93558297D01*
X138940476Y-93558297D02*
X138988095Y-93510678D01*
X138988095Y-93510678D02*
X139083333Y-93463059D01*
X139083333Y-93463059D02*
X139226190Y-93463059D01*
X139226190Y-93463059D02*
X139321428Y-93510678D01*
X139321428Y-93510678D02*
X139369047Y-93558297D01*
X139369047Y-93558297D02*
X139416666Y-93653535D01*
X139416666Y-93653535D02*
X139416666Y-94034487D01*
X138892857Y-92558297D02*
X138892857Y-93034487D01*
X138892857Y-93034487D02*
X139369047Y-93082106D01*
X139369047Y-93082106D02*
X139321428Y-93034487D01*
X139321428Y-93034487D02*
X139273809Y-92939249D01*
X139273809Y-92939249D02*
X139273809Y-92701154D01*
X139273809Y-92701154D02*
X139321428Y-92605916D01*
X139321428Y-92605916D02*
X139369047Y-92558297D01*
X139369047Y-92558297D02*
X139464285Y-92510678D01*
X139464285Y-92510678D02*
X139702380Y-92510678D01*
X139702380Y-92510678D02*
X139797618Y-92558297D01*
X139797618Y-92558297D02*
X139845238Y-92605916D01*
X139845238Y-92605916D02*
X139892857Y-92701154D01*
X139892857Y-92701154D02*
X139892857Y-92939249D01*
X139892857Y-92939249D02*
X139845238Y-93034487D01*
X139845238Y-93034487D02*
X139797618Y-93082106D01*
X160016666Y-103029819D02*
X160016666Y-103744104D01*
X160016666Y-103744104D02*
X159969047Y-103886961D01*
X159969047Y-103886961D02*
X159873809Y-103982200D01*
X159873809Y-103982200D02*
X159730952Y-104029819D01*
X159730952Y-104029819D02*
X159635714Y-104029819D01*
X161016666Y-104029819D02*
X160445238Y-104029819D01*
X160730952Y-104029819D02*
X160730952Y-103029819D01*
X160730952Y-103029819D02*
X160635714Y-103172676D01*
X160635714Y-103172676D02*
X160540476Y-103267914D01*
X160540476Y-103267914D02*
X160445238Y-103315533D01*
X169184052Y-86539588D02*
X168476946Y-85832481D01*
X168476946Y-85832481D02*
X168645304Y-85664122D01*
X168645304Y-85664122D02*
X168779991Y-85596779D01*
X168779991Y-85596779D02*
X168914678Y-85596779D01*
X168914678Y-85596779D02*
X169015694Y-85630451D01*
X169015694Y-85630451D02*
X169184052Y-85731466D01*
X169184052Y-85731466D02*
X169285068Y-85832481D01*
X169285068Y-85832481D02*
X169386083Y-86000840D01*
X169386083Y-86000840D02*
X169419755Y-86101855D01*
X169419755Y-86101855D02*
X169419755Y-86236542D01*
X169419755Y-86236542D02*
X169352411Y-86371229D01*
X169352411Y-86371229D02*
X169184052Y-86539588D01*
X169116709Y-85192718D02*
X169554442Y-84754985D01*
X169554442Y-84754985D02*
X169588113Y-85260061D01*
X169588113Y-85260061D02*
X169689129Y-85159046D01*
X169689129Y-85159046D02*
X169790144Y-85125374D01*
X169790144Y-85125374D02*
X169857487Y-85125374D01*
X169857487Y-85125374D02*
X169958503Y-85159046D01*
X169958503Y-85159046D02*
X170126861Y-85327405D01*
X170126861Y-85327405D02*
X170160533Y-85428420D01*
X170160533Y-85428420D02*
X170160533Y-85495764D01*
X170160533Y-85495764D02*
X170126861Y-85596779D01*
X170126861Y-85596779D02*
X169924831Y-85798809D01*
X169924831Y-85798809D02*
X169823816Y-85832481D01*
X169823816Y-85832481D02*
X169756472Y-85832481D01*
D15*
X150588131Y-113161222D02*
X150430108Y-113161222D01*
X150430108Y-113409543D02*
X150430108Y-112935475D01*
X150430108Y-112935475D02*
X150655855Y-112935475D01*
X151062199Y-113409543D02*
X150836452Y-113409543D01*
X150836452Y-113409543D02*
X150836452Y-112935475D01*
X151468542Y-113409543D02*
X151197646Y-113409543D01*
X151333094Y-113409543D02*
X151333094Y-112935475D01*
X151333094Y-112935475D02*
X151287945Y-113003199D01*
X151287945Y-113003199D02*
X151242796Y-113048349D01*
X151242796Y-113048349D02*
X151197646Y-113070923D01*
D14*
X144771371Y-111551212D02*
X144438038Y-111075021D01*
X144199943Y-111551212D02*
X144199943Y-110551212D01*
X144199943Y-110551212D02*
X144580895Y-110551212D01*
X144580895Y-110551212D02*
X144676133Y-110598831D01*
X144676133Y-110598831D02*
X144723752Y-110646450D01*
X144723752Y-110646450D02*
X144771371Y-110741688D01*
X144771371Y-110741688D02*
X144771371Y-110884545D01*
X144771371Y-110884545D02*
X144723752Y-110979783D01*
X144723752Y-110979783D02*
X144676133Y-111027402D01*
X144676133Y-111027402D02*
X144580895Y-111075021D01*
X144580895Y-111075021D02*
X144199943Y-111075021D01*
X145628514Y-110551212D02*
X145438038Y-110551212D01*
X145438038Y-110551212D02*
X145342800Y-110598831D01*
X145342800Y-110598831D02*
X145295181Y-110646450D01*
X145295181Y-110646450D02*
X145199943Y-110789307D01*
X145199943Y-110789307D02*
X145152324Y-110979783D01*
X145152324Y-110979783D02*
X145152324Y-111360735D01*
X145152324Y-111360735D02*
X145199943Y-111455973D01*
X145199943Y-111455973D02*
X145247562Y-111503593D01*
X145247562Y-111503593D02*
X145342800Y-111551212D01*
X145342800Y-111551212D02*
X145533276Y-111551212D01*
X145533276Y-111551212D02*
X145628514Y-111503593D01*
X145628514Y-111503593D02*
X145676133Y-111455973D01*
X145676133Y-111455973D02*
X145723752Y-111360735D01*
X145723752Y-111360735D02*
X145723752Y-111122640D01*
X145723752Y-111122640D02*
X145676133Y-111027402D01*
X145676133Y-111027402D02*
X145628514Y-110979783D01*
X145628514Y-110979783D02*
X145533276Y-110932164D01*
X145533276Y-110932164D02*
X145342800Y-110932164D01*
X145342800Y-110932164D02*
X145247562Y-110979783D01*
X145247562Y-110979783D02*
X145199943Y-111027402D01*
X145199943Y-111027402D02*
X145152324Y-111122640D01*
X141997562Y-116501212D02*
X142616609Y-116501212D01*
X142616609Y-116501212D02*
X142283276Y-116882164D01*
X142283276Y-116882164D02*
X142426133Y-116882164D01*
X142426133Y-116882164D02*
X142521371Y-116929783D01*
X142521371Y-116929783D02*
X142568990Y-116977402D01*
X142568990Y-116977402D02*
X142616609Y-117072640D01*
X142616609Y-117072640D02*
X142616609Y-117310735D01*
X142616609Y-117310735D02*
X142568990Y-117405973D01*
X142568990Y-117405973D02*
X142521371Y-117453593D01*
X142521371Y-117453593D02*
X142426133Y-117501212D01*
X142426133Y-117501212D02*
X142140419Y-117501212D01*
X142140419Y-117501212D02*
X142045181Y-117453593D01*
X142045181Y-117453593D02*
X141997562Y-117405973D01*
X142949943Y-116834545D02*
X143188038Y-117501212D01*
X143188038Y-117501212D02*
X143426133Y-116834545D01*
X143711848Y-116501212D02*
X144378514Y-116501212D01*
X144378514Y-116501212D02*
X143949943Y-117501212D01*
X163484524Y-106229819D02*
X164103571Y-106229819D01*
X164103571Y-106229819D02*
X163770238Y-106610771D01*
X163770238Y-106610771D02*
X163913095Y-106610771D01*
X163913095Y-106610771D02*
X164008333Y-106658390D01*
X164008333Y-106658390D02*
X164055952Y-106706009D01*
X164055952Y-106706009D02*
X164103571Y-106801247D01*
X164103571Y-106801247D02*
X164103571Y-107039342D01*
X164103571Y-107039342D02*
X164055952Y-107134580D01*
X164055952Y-107134580D02*
X164008333Y-107182200D01*
X164008333Y-107182200D02*
X163913095Y-107229819D01*
X163913095Y-107229819D02*
X163627381Y-107229819D01*
X163627381Y-107229819D02*
X163532143Y-107182200D01*
X163532143Y-107182200D02*
X163484524Y-107134580D01*
X164436905Y-106563152D02*
X164675000Y-107229819D01*
X164675000Y-107229819D02*
X164913095Y-106563152D01*
X165198810Y-106229819D02*
X165817857Y-106229819D01*
X165817857Y-106229819D02*
X165484524Y-106610771D01*
X165484524Y-106610771D02*
X165627381Y-106610771D01*
X165627381Y-106610771D02*
X165722619Y-106658390D01*
X165722619Y-106658390D02*
X165770238Y-106706009D01*
X165770238Y-106706009D02*
X165817857Y-106801247D01*
X165817857Y-106801247D02*
X165817857Y-107039342D01*
X165817857Y-107039342D02*
X165770238Y-107134580D01*
X165770238Y-107134580D02*
X165722619Y-107182200D01*
X165722619Y-107182200D02*
X165627381Y-107229819D01*
X165627381Y-107229819D02*
X165341667Y-107229819D01*
X165341667Y-107229819D02*
X165246429Y-107182200D01*
X165246429Y-107182200D02*
X165198810Y-107134580D01*
X132644903Y-78649825D02*
X132745918Y-78077406D01*
X132240842Y-78245764D02*
X132947949Y-77538658D01*
X132947949Y-77538658D02*
X133217323Y-77808032D01*
X133217323Y-77808032D02*
X133250995Y-77909047D01*
X133250995Y-77909047D02*
X133250995Y-77976390D01*
X133250995Y-77976390D02*
X133217323Y-78077406D01*
X133217323Y-78077406D02*
X133116308Y-78178421D01*
X133116308Y-78178421D02*
X133015292Y-78212093D01*
X133015292Y-78212093D02*
X132947949Y-78212093D01*
X132947949Y-78212093D02*
X132846934Y-78178421D01*
X132846934Y-78178421D02*
X132577560Y-77909047D01*
X133587712Y-78178421D02*
X134059117Y-78649825D01*
X134059117Y-78649825D02*
X133048964Y-79053886D01*
X171683349Y-84755762D02*
X171110930Y-84654747D01*
X171279288Y-85159823D02*
X170572182Y-84452716D01*
X170572182Y-84452716D02*
X170841556Y-84183342D01*
X170841556Y-84183342D02*
X170942571Y-84149670D01*
X170942571Y-84149670D02*
X171009914Y-84149670D01*
X171009914Y-84149670D02*
X171110930Y-84183342D01*
X171110930Y-84183342D02*
X171211945Y-84284357D01*
X171211945Y-84284357D02*
X171245617Y-84385373D01*
X171245617Y-84385373D02*
X171245617Y-84452716D01*
X171245617Y-84452716D02*
X171211945Y-84553731D01*
X171211945Y-84553731D02*
X170942571Y-84823105D01*
X171683349Y-83947640D02*
X171582334Y-83981312D01*
X171582334Y-83981312D02*
X171514991Y-83981312D01*
X171514991Y-83981312D02*
X171413975Y-83947640D01*
X171413975Y-83947640D02*
X171380304Y-83913968D01*
X171380304Y-83913968D02*
X171346632Y-83812953D01*
X171346632Y-83812953D02*
X171346632Y-83745609D01*
X171346632Y-83745609D02*
X171380304Y-83644594D01*
X171380304Y-83644594D02*
X171514991Y-83509907D01*
X171514991Y-83509907D02*
X171616006Y-83476235D01*
X171616006Y-83476235D02*
X171683349Y-83476235D01*
X171683349Y-83476235D02*
X171784365Y-83509907D01*
X171784365Y-83509907D02*
X171818036Y-83543579D01*
X171818036Y-83543579D02*
X171851708Y-83644594D01*
X171851708Y-83644594D02*
X171851708Y-83711938D01*
X171851708Y-83711938D02*
X171818036Y-83812953D01*
X171818036Y-83812953D02*
X171683349Y-83947640D01*
X171683349Y-83947640D02*
X171649678Y-84048655D01*
X171649678Y-84048655D02*
X171649678Y-84115999D01*
X171649678Y-84115999D02*
X171683349Y-84217014D01*
X171683349Y-84217014D02*
X171818036Y-84351701D01*
X171818036Y-84351701D02*
X171919052Y-84385373D01*
X171919052Y-84385373D02*
X171986395Y-84385373D01*
X171986395Y-84385373D02*
X172087410Y-84351701D01*
X172087410Y-84351701D02*
X172222097Y-84217014D01*
X172222097Y-84217014D02*
X172255769Y-84115999D01*
X172255769Y-84115999D02*
X172255769Y-84048655D01*
X172255769Y-84048655D02*
X172222097Y-83947640D01*
X172222097Y-83947640D02*
X172087410Y-83812953D01*
X172087410Y-83812953D02*
X171986395Y-83779281D01*
X171986395Y-83779281D02*
X171919052Y-83779281D01*
X171919052Y-83779281D02*
X171818036Y-83812953D01*
X154471371Y-110355973D02*
X154423752Y-110403593D01*
X154423752Y-110403593D02*
X154280895Y-110451212D01*
X154280895Y-110451212D02*
X154185657Y-110451212D01*
X154185657Y-110451212D02*
X154042800Y-110403593D01*
X154042800Y-110403593D02*
X153947562Y-110308354D01*
X153947562Y-110308354D02*
X153899943Y-110213116D01*
X153899943Y-110213116D02*
X153852324Y-110022640D01*
X153852324Y-110022640D02*
X153852324Y-109879783D01*
X153852324Y-109879783D02*
X153899943Y-109689307D01*
X153899943Y-109689307D02*
X153947562Y-109594069D01*
X153947562Y-109594069D02*
X154042800Y-109498831D01*
X154042800Y-109498831D02*
X154185657Y-109451212D01*
X154185657Y-109451212D02*
X154280895Y-109451212D01*
X154280895Y-109451212D02*
X154423752Y-109498831D01*
X154423752Y-109498831D02*
X154471371Y-109546450D01*
X155376133Y-109451212D02*
X154899943Y-109451212D01*
X154899943Y-109451212D02*
X154852324Y-109927402D01*
X154852324Y-109927402D02*
X154899943Y-109879783D01*
X154899943Y-109879783D02*
X154995181Y-109832164D01*
X154995181Y-109832164D02*
X155233276Y-109832164D01*
X155233276Y-109832164D02*
X155328514Y-109879783D01*
X155328514Y-109879783D02*
X155376133Y-109927402D01*
X155376133Y-109927402D02*
X155423752Y-110022640D01*
X155423752Y-110022640D02*
X155423752Y-110260735D01*
X155423752Y-110260735D02*
X155376133Y-110355973D01*
X155376133Y-110355973D02*
X155328514Y-110403593D01*
X155328514Y-110403593D02*
X155233276Y-110451212D01*
X155233276Y-110451212D02*
X154995181Y-110451212D01*
X154995181Y-110451212D02*
X154899943Y-110403593D01*
X154899943Y-110403593D02*
X154852324Y-110355973D01*
X147276133Y-115151212D02*
X147276133Y-115960735D01*
X147276133Y-115960735D02*
X147323752Y-116055973D01*
X147323752Y-116055973D02*
X147371371Y-116103593D01*
X147371371Y-116103593D02*
X147466609Y-116151212D01*
X147466609Y-116151212D02*
X147657085Y-116151212D01*
X147657085Y-116151212D02*
X147752323Y-116103593D01*
X147752323Y-116103593D02*
X147799942Y-116055973D01*
X147799942Y-116055973D02*
X147847561Y-115960735D01*
X147847561Y-115960735D02*
X147847561Y-115151212D01*
X148276133Y-115246450D02*
X148323752Y-115198831D01*
X148323752Y-115198831D02*
X148418990Y-115151212D01*
X148418990Y-115151212D02*
X148657085Y-115151212D01*
X148657085Y-115151212D02*
X148752323Y-115198831D01*
X148752323Y-115198831D02*
X148799942Y-115246450D01*
X148799942Y-115246450D02*
X148847561Y-115341688D01*
X148847561Y-115341688D02*
X148847561Y-115436926D01*
X148847561Y-115436926D02*
X148799942Y-115579783D01*
X148799942Y-115579783D02*
X148228514Y-116151212D01*
X148228514Y-116151212D02*
X148847561Y-116151212D01*
X152726133Y-116898831D02*
X152630895Y-116851212D01*
X152630895Y-116851212D02*
X152488038Y-116851212D01*
X152488038Y-116851212D02*
X152345181Y-116898831D01*
X152345181Y-116898831D02*
X152249943Y-116994069D01*
X152249943Y-116994069D02*
X152202324Y-117089307D01*
X152202324Y-117089307D02*
X152154705Y-117279783D01*
X152154705Y-117279783D02*
X152154705Y-117422640D01*
X152154705Y-117422640D02*
X152202324Y-117613116D01*
X152202324Y-117613116D02*
X152249943Y-117708354D01*
X152249943Y-117708354D02*
X152345181Y-117803593D01*
X152345181Y-117803593D02*
X152488038Y-117851212D01*
X152488038Y-117851212D02*
X152583276Y-117851212D01*
X152583276Y-117851212D02*
X152726133Y-117803593D01*
X152726133Y-117803593D02*
X152773752Y-117755973D01*
X152773752Y-117755973D02*
X152773752Y-117422640D01*
X152773752Y-117422640D02*
X152583276Y-117422640D01*
X153202324Y-117851212D02*
X153202324Y-116851212D01*
X153202324Y-116851212D02*
X153773752Y-117851212D01*
X153773752Y-117851212D02*
X153773752Y-116851212D01*
X154249943Y-117851212D02*
X154249943Y-116851212D01*
X154249943Y-116851212D02*
X154488038Y-116851212D01*
X154488038Y-116851212D02*
X154630895Y-116898831D01*
X154630895Y-116898831D02*
X154726133Y-116994069D01*
X154726133Y-116994069D02*
X154773752Y-117089307D01*
X154773752Y-117089307D02*
X154821371Y-117279783D01*
X154821371Y-117279783D02*
X154821371Y-117422640D01*
X154821371Y-117422640D02*
X154773752Y-117613116D01*
X154773752Y-117613116D02*
X154726133Y-117708354D01*
X154726133Y-117708354D02*
X154630895Y-117803593D01*
X154630895Y-117803593D02*
X154488038Y-117851212D01*
X154488038Y-117851212D02*
X154249943Y-117851212D01*
X136971371Y-83751212D02*
X136638038Y-83275021D01*
X136399943Y-83751212D02*
X136399943Y-82751212D01*
X136399943Y-82751212D02*
X136780895Y-82751212D01*
X136780895Y-82751212D02*
X136876133Y-82798831D01*
X136876133Y-82798831D02*
X136923752Y-82846450D01*
X136923752Y-82846450D02*
X136971371Y-82941688D01*
X136971371Y-82941688D02*
X136971371Y-83084545D01*
X136971371Y-83084545D02*
X136923752Y-83179783D01*
X136923752Y-83179783D02*
X136876133Y-83227402D01*
X136876133Y-83227402D02*
X136780895Y-83275021D01*
X136780895Y-83275021D02*
X136399943Y-83275021D01*
X137304705Y-82751212D02*
X137923752Y-82751212D01*
X137923752Y-82751212D02*
X137590419Y-83132164D01*
X137590419Y-83132164D02*
X137733276Y-83132164D01*
X137733276Y-83132164D02*
X137828514Y-83179783D01*
X137828514Y-83179783D02*
X137876133Y-83227402D01*
X137876133Y-83227402D02*
X137923752Y-83322640D01*
X137923752Y-83322640D02*
X137923752Y-83560735D01*
X137923752Y-83560735D02*
X137876133Y-83655973D01*
X137876133Y-83655973D02*
X137828514Y-83703593D01*
X137828514Y-83703593D02*
X137733276Y-83751212D01*
X137733276Y-83751212D02*
X137447562Y-83751212D01*
X137447562Y-83751212D02*
X137352324Y-83703593D01*
X137352324Y-83703593D02*
X137304705Y-83655973D01*
X139697618Y-89463059D02*
X139745238Y-89510678D01*
X139745238Y-89510678D02*
X139792857Y-89653535D01*
X139792857Y-89653535D02*
X139792857Y-89748773D01*
X139792857Y-89748773D02*
X139745238Y-89891630D01*
X139745238Y-89891630D02*
X139649999Y-89986868D01*
X139649999Y-89986868D02*
X139554761Y-90034487D01*
X139554761Y-90034487D02*
X139364285Y-90082106D01*
X139364285Y-90082106D02*
X139221428Y-90082106D01*
X139221428Y-90082106D02*
X139030952Y-90034487D01*
X139030952Y-90034487D02*
X138935714Y-89986868D01*
X138935714Y-89986868D02*
X138840476Y-89891630D01*
X138840476Y-89891630D02*
X138792857Y-89748773D01*
X138792857Y-89748773D02*
X138792857Y-89653535D01*
X138792857Y-89653535D02*
X138840476Y-89510678D01*
X138840476Y-89510678D02*
X138888095Y-89463059D01*
X138888095Y-89082106D02*
X138840476Y-89034487D01*
X138840476Y-89034487D02*
X138792857Y-88939249D01*
X138792857Y-88939249D02*
X138792857Y-88701154D01*
X138792857Y-88701154D02*
X138840476Y-88605916D01*
X138840476Y-88605916D02*
X138888095Y-88558297D01*
X138888095Y-88558297D02*
X138983333Y-88510678D01*
X138983333Y-88510678D02*
X139078571Y-88510678D01*
X139078571Y-88510678D02*
X139221428Y-88558297D01*
X139221428Y-88558297D02*
X139792857Y-89129725D01*
X139792857Y-89129725D02*
X139792857Y-88510678D01*
X163491286Y-114921821D02*
X162784180Y-114214714D01*
X162784180Y-114214714D02*
X162952538Y-114046355D01*
X162952538Y-114046355D02*
X163087225Y-113979012D01*
X163087225Y-113979012D02*
X163221912Y-113979012D01*
X163221912Y-113979012D02*
X163322928Y-114012684D01*
X163322928Y-114012684D02*
X163491286Y-114113699D01*
X163491286Y-114113699D02*
X163592302Y-114214714D01*
X163592302Y-114214714D02*
X163693317Y-114383073D01*
X163693317Y-114383073D02*
X163726989Y-114484088D01*
X163726989Y-114484088D02*
X163726989Y-114618775D01*
X163726989Y-114618775D02*
X163659645Y-114753462D01*
X163659645Y-114753462D02*
X163491286Y-114921821D01*
X164030034Y-113440264D02*
X164501439Y-113911668D01*
X163592302Y-113339249D02*
X163929019Y-114012684D01*
X163929019Y-114012684D02*
X164366752Y-113574951D01*
X149271371Y-111555973D02*
X149223752Y-111603593D01*
X149223752Y-111603593D02*
X149080895Y-111651212D01*
X149080895Y-111651212D02*
X148985657Y-111651212D01*
X148985657Y-111651212D02*
X148842800Y-111603593D01*
X148842800Y-111603593D02*
X148747562Y-111508354D01*
X148747562Y-111508354D02*
X148699943Y-111413116D01*
X148699943Y-111413116D02*
X148652324Y-111222640D01*
X148652324Y-111222640D02*
X148652324Y-111079783D01*
X148652324Y-111079783D02*
X148699943Y-110889307D01*
X148699943Y-110889307D02*
X148747562Y-110794069D01*
X148747562Y-110794069D02*
X148842800Y-110698831D01*
X148842800Y-110698831D02*
X148985657Y-110651212D01*
X148985657Y-110651212D02*
X149080895Y-110651212D01*
X149080895Y-110651212D02*
X149223752Y-110698831D01*
X149223752Y-110698831D02*
X149271371Y-110746450D01*
X150128514Y-110651212D02*
X149938038Y-110651212D01*
X149938038Y-110651212D02*
X149842800Y-110698831D01*
X149842800Y-110698831D02*
X149795181Y-110746450D01*
X149795181Y-110746450D02*
X149699943Y-110889307D01*
X149699943Y-110889307D02*
X149652324Y-111079783D01*
X149652324Y-111079783D02*
X149652324Y-111460735D01*
X149652324Y-111460735D02*
X149699943Y-111555973D01*
X149699943Y-111555973D02*
X149747562Y-111603593D01*
X149747562Y-111603593D02*
X149842800Y-111651212D01*
X149842800Y-111651212D02*
X150033276Y-111651212D01*
X150033276Y-111651212D02*
X150128514Y-111603593D01*
X150128514Y-111603593D02*
X150176133Y-111555973D01*
X150176133Y-111555973D02*
X150223752Y-111460735D01*
X150223752Y-111460735D02*
X150223752Y-111222640D01*
X150223752Y-111222640D02*
X150176133Y-111127402D01*
X150176133Y-111127402D02*
X150128514Y-111079783D01*
X150128514Y-111079783D02*
X150033276Y-111032164D01*
X150033276Y-111032164D02*
X149842800Y-111032164D01*
X149842800Y-111032164D02*
X149747562Y-111079783D01*
X149747562Y-111079783D02*
X149699943Y-111127402D01*
X149699943Y-111127402D02*
X149652324Y-111222640D01*
X131346265Y-99550890D02*
X131917693Y-99550890D01*
X131631979Y-100550890D02*
X131631979Y-99550890D01*
X132155789Y-99550890D02*
X132822455Y-100550890D01*
X132822455Y-99550890D02*
X132155789Y-100550890D01*
X133727217Y-100550890D02*
X133155789Y-100550890D01*
X133441503Y-100550890D02*
X133441503Y-99550890D01*
X133441503Y-99550890D02*
X133346265Y-99693747D01*
X133346265Y-99693747D02*
X133251027Y-99788985D01*
X133251027Y-99788985D02*
X133155789Y-99836604D01*
X154646265Y-115875890D02*
X154646265Y-114875890D01*
X154646265Y-114875890D02*
X154884360Y-114875890D01*
X154884360Y-114875890D02*
X155027217Y-114923509D01*
X155027217Y-114923509D02*
X155122455Y-115018747D01*
X155122455Y-115018747D02*
X155170074Y-115113985D01*
X155170074Y-115113985D02*
X155217693Y-115304461D01*
X155217693Y-115304461D02*
X155217693Y-115447318D01*
X155217693Y-115447318D02*
X155170074Y-115637794D01*
X155170074Y-115637794D02*
X155122455Y-115733032D01*
X155122455Y-115733032D02*
X155027217Y-115828271D01*
X155027217Y-115828271D02*
X154884360Y-115875890D01*
X154884360Y-115875890D02*
X154646265Y-115875890D01*
X156170074Y-115875890D02*
X155598646Y-115875890D01*
X155884360Y-115875890D02*
X155884360Y-114875890D01*
X155884360Y-114875890D02*
X155789122Y-115018747D01*
X155789122Y-115018747D02*
X155693884Y-115113985D01*
X155693884Y-115113985D02*
X155598646Y-115161604D01*
X131978067Y-120517676D02*
X131944395Y-120416661D01*
X131944395Y-120416661D02*
X131944395Y-120281974D01*
X131944395Y-120281974D02*
X131944395Y-120079943D01*
X131944395Y-120079943D02*
X131910723Y-119978928D01*
X131910723Y-119978928D02*
X131843380Y-119911585D01*
X131708693Y-120113615D02*
X131675021Y-120012600D01*
X131675021Y-120012600D02*
X131675021Y-119877913D01*
X131675021Y-119877913D02*
X131776036Y-119709554D01*
X131776036Y-119709554D02*
X132011739Y-119473852D01*
X132011739Y-119473852D02*
X132180097Y-119372837D01*
X132180097Y-119372837D02*
X132314784Y-119372837D01*
X132314784Y-119372837D02*
X132415800Y-119406508D01*
X132415800Y-119406508D02*
X132550487Y-119541195D01*
X132550487Y-119541195D02*
X132584158Y-119642211D01*
X132584158Y-119642211D02*
X132584158Y-119776898D01*
X132584158Y-119776898D02*
X132483143Y-119945256D01*
X132483143Y-119945256D02*
X132247441Y-120180959D01*
X132247441Y-120180959D02*
X132079082Y-120281974D01*
X132079082Y-120281974D02*
X131944395Y-120281974D01*
X131944395Y-120281974D02*
X131843380Y-120248302D01*
X131843380Y-120248302D02*
X131708693Y-120113615D01*
X133089235Y-120551348D02*
X132617830Y-121022752D01*
X133190250Y-120113615D02*
X132516815Y-120450333D01*
X132516815Y-120450333D02*
X132954548Y-120888065D01*
X123347885Y-77650757D02*
X122640778Y-76943650D01*
X122640778Y-76943650D02*
X123381557Y-77213024D01*
X123381557Y-77213024D02*
X123112183Y-76472246D01*
X123112183Y-76472246D02*
X123819290Y-77179353D01*
X124257022Y-76741620D02*
X124156007Y-76775292D01*
X124156007Y-76775292D02*
X124088664Y-76775292D01*
X124088664Y-76775292D02*
X123987648Y-76741620D01*
X123987648Y-76741620D02*
X123785618Y-76539589D01*
X123785618Y-76539589D02*
X123751946Y-76438574D01*
X123751946Y-76438574D02*
X123751946Y-76371231D01*
X123751946Y-76371231D02*
X123785618Y-76270215D01*
X123785618Y-76270215D02*
X123886633Y-76169200D01*
X123886633Y-76169200D02*
X123987648Y-76135528D01*
X123987648Y-76135528D02*
X124054992Y-76135528D01*
X124054992Y-76135528D02*
X124156007Y-76169200D01*
X124156007Y-76169200D02*
X124358038Y-76371231D01*
X124358038Y-76371231D02*
X124391709Y-76472246D01*
X124391709Y-76472246D02*
X124391709Y-76539589D01*
X124391709Y-76539589D02*
X124358038Y-76640605D01*
X124358038Y-76640605D02*
X124257022Y-76741620D01*
X124223351Y-75832482D02*
X124492725Y-75563108D01*
X124088664Y-75495765D02*
X124694755Y-76101857D01*
X124694755Y-76101857D02*
X124795770Y-76135528D01*
X124795770Y-76135528D02*
X124896786Y-76101857D01*
X124896786Y-76101857D02*
X124964129Y-76034513D01*
X125300847Y-75697795D02*
X125199832Y-75731467D01*
X125199832Y-75731467D02*
X125132488Y-75731467D01*
X125132488Y-75731467D02*
X125031473Y-75697795D01*
X125031473Y-75697795D02*
X124829443Y-75495765D01*
X124829443Y-75495765D02*
X124795771Y-75394749D01*
X124795771Y-75394749D02*
X124795771Y-75327406D01*
X124795771Y-75327406D02*
X124829443Y-75226391D01*
X124829443Y-75226391D02*
X124930458Y-75125375D01*
X124930458Y-75125375D02*
X125031473Y-75091704D01*
X125031473Y-75091704D02*
X125098817Y-75091704D01*
X125098817Y-75091704D02*
X125199832Y-75125375D01*
X125199832Y-75125375D02*
X125401862Y-75327406D01*
X125401862Y-75327406D02*
X125435534Y-75428421D01*
X125435534Y-75428421D02*
X125435534Y-75495765D01*
X125435534Y-75495765D02*
X125401862Y-75596780D01*
X125401862Y-75596780D02*
X125300847Y-75697795D01*
X125839595Y-75159047D02*
X125368191Y-74687643D01*
X125502878Y-74822330D02*
X125469206Y-74721314D01*
X125469206Y-74721314D02*
X125469206Y-74653971D01*
X125469206Y-74653971D02*
X125502878Y-74552956D01*
X125502878Y-74552956D02*
X125570221Y-74485612D01*
X126647717Y-74350925D02*
X126243656Y-74754986D01*
X126445687Y-74552955D02*
X125738580Y-73845849D01*
X125738580Y-73845849D02*
X125772252Y-74014207D01*
X125772252Y-74014207D02*
X125772252Y-74148894D01*
X125772252Y-74148894D02*
X125738580Y-74249910D01*
X122354674Y-123459596D02*
X123061781Y-122752489D01*
X123061781Y-122752489D02*
X122792407Y-123493268D01*
X122792407Y-123493268D02*
X123533185Y-123223894D01*
X123533185Y-123223894D02*
X122826078Y-123931001D01*
X123263811Y-124368733D02*
X123230139Y-124267718D01*
X123230139Y-124267718D02*
X123230139Y-124200375D01*
X123230139Y-124200375D02*
X123263811Y-124099359D01*
X123263811Y-124099359D02*
X123465842Y-123897329D01*
X123465842Y-123897329D02*
X123566857Y-123863657D01*
X123566857Y-123863657D02*
X123634200Y-123863657D01*
X123634200Y-123863657D02*
X123735216Y-123897329D01*
X123735216Y-123897329D02*
X123836231Y-123998344D01*
X123836231Y-123998344D02*
X123869903Y-124099359D01*
X123869903Y-124099359D02*
X123869903Y-124166703D01*
X123869903Y-124166703D02*
X123836231Y-124267718D01*
X123836231Y-124267718D02*
X123634200Y-124469749D01*
X123634200Y-124469749D02*
X123533185Y-124503420D01*
X123533185Y-124503420D02*
X123465842Y-124503420D01*
X123465842Y-124503420D02*
X123364826Y-124469749D01*
X123364826Y-124469749D02*
X123263811Y-124368733D01*
X124172949Y-124335062D02*
X124442323Y-124604436D01*
X124509666Y-124200375D02*
X123903574Y-124806466D01*
X123903574Y-124806466D02*
X123869903Y-124907481D01*
X123869903Y-124907481D02*
X123903574Y-125008497D01*
X123903574Y-125008497D02*
X123970918Y-125075840D01*
X124307636Y-125412558D02*
X124273964Y-125311543D01*
X124273964Y-125311543D02*
X124273964Y-125244199D01*
X124273964Y-125244199D02*
X124307636Y-125143184D01*
X124307636Y-125143184D02*
X124509666Y-124941154D01*
X124509666Y-124941154D02*
X124610682Y-124907482D01*
X124610682Y-124907482D02*
X124678025Y-124907482D01*
X124678025Y-124907482D02*
X124779040Y-124941154D01*
X124779040Y-124941154D02*
X124880056Y-125042169D01*
X124880056Y-125042169D02*
X124913727Y-125143184D01*
X124913727Y-125143184D02*
X124913727Y-125210528D01*
X124913727Y-125210528D02*
X124880056Y-125311543D01*
X124880056Y-125311543D02*
X124678025Y-125513573D01*
X124678025Y-125513573D02*
X124577010Y-125547245D01*
X124577010Y-125547245D02*
X124509666Y-125547245D01*
X124509666Y-125547245D02*
X124408651Y-125513573D01*
X124408651Y-125513573D02*
X124307636Y-125412558D01*
X124846384Y-125951306D02*
X125317788Y-125479902D01*
X125183101Y-125614589D02*
X125284117Y-125580917D01*
X125284117Y-125580917D02*
X125351460Y-125580917D01*
X125351460Y-125580917D02*
X125452475Y-125614589D01*
X125452475Y-125614589D02*
X125519819Y-125681932D01*
X126058567Y-126220680D02*
X125587163Y-126692085D01*
X126159582Y-125782948D02*
X125486147Y-126119665D01*
X125486147Y-126119665D02*
X125923880Y-126557398D01*
X171504674Y-74634596D02*
X172211781Y-73927489D01*
X172211781Y-73927489D02*
X171942407Y-74668268D01*
X171942407Y-74668268D02*
X172683185Y-74398894D01*
X172683185Y-74398894D02*
X171976078Y-75106001D01*
X172413811Y-75543733D02*
X172380139Y-75442718D01*
X172380139Y-75442718D02*
X172380139Y-75375375D01*
X172380139Y-75375375D02*
X172413811Y-75274359D01*
X172413811Y-75274359D02*
X172615842Y-75072329D01*
X172615842Y-75072329D02*
X172716857Y-75038657D01*
X172716857Y-75038657D02*
X172784200Y-75038657D01*
X172784200Y-75038657D02*
X172885216Y-75072329D01*
X172885216Y-75072329D02*
X172986231Y-75173344D01*
X172986231Y-75173344D02*
X173019903Y-75274359D01*
X173019903Y-75274359D02*
X173019903Y-75341703D01*
X173019903Y-75341703D02*
X172986231Y-75442718D01*
X172986231Y-75442718D02*
X172784200Y-75644749D01*
X172784200Y-75644749D02*
X172683185Y-75678420D01*
X172683185Y-75678420D02*
X172615842Y-75678420D01*
X172615842Y-75678420D02*
X172514826Y-75644749D01*
X172514826Y-75644749D02*
X172413811Y-75543733D01*
X173322949Y-75510062D02*
X173592323Y-75779436D01*
X173659666Y-75375375D02*
X173053574Y-75981466D01*
X173053574Y-75981466D02*
X173019903Y-76082481D01*
X173019903Y-76082481D02*
X173053574Y-76183497D01*
X173053574Y-76183497D02*
X173120918Y-76250840D01*
X173457636Y-76587558D02*
X173423964Y-76486543D01*
X173423964Y-76486543D02*
X173423964Y-76419199D01*
X173423964Y-76419199D02*
X173457636Y-76318184D01*
X173457636Y-76318184D02*
X173659666Y-76116154D01*
X173659666Y-76116154D02*
X173760682Y-76082482D01*
X173760682Y-76082482D02*
X173828025Y-76082482D01*
X173828025Y-76082482D02*
X173929040Y-76116154D01*
X173929040Y-76116154D02*
X174030056Y-76217169D01*
X174030056Y-76217169D02*
X174063727Y-76318184D01*
X174063727Y-76318184D02*
X174063727Y-76385528D01*
X174063727Y-76385528D02*
X174030056Y-76486543D01*
X174030056Y-76486543D02*
X173828025Y-76688573D01*
X173828025Y-76688573D02*
X173727010Y-76722245D01*
X173727010Y-76722245D02*
X173659666Y-76722245D01*
X173659666Y-76722245D02*
X173558651Y-76688573D01*
X173558651Y-76688573D02*
X173457636Y-76587558D01*
X173996384Y-77126306D02*
X174467788Y-76654902D01*
X174333101Y-76789589D02*
X174434117Y-76755917D01*
X174434117Y-76755917D02*
X174501460Y-76755917D01*
X174501460Y-76755917D02*
X174602475Y-76789589D01*
X174602475Y-76789589D02*
X174669819Y-76856932D01*
X175040208Y-76890604D02*
X175107552Y-76890604D01*
X175107552Y-76890604D02*
X175208567Y-76924276D01*
X175208567Y-76924276D02*
X175376926Y-77092635D01*
X175376926Y-77092635D02*
X175410598Y-77193650D01*
X175410598Y-77193650D02*
X175410598Y-77260993D01*
X175410598Y-77260993D02*
X175376926Y-77362009D01*
X175376926Y-77362009D02*
X175309582Y-77429352D01*
X175309582Y-77429352D02*
X175174895Y-77496696D01*
X175174895Y-77496696D02*
X174366773Y-77496696D01*
X174366773Y-77496696D02*
X174804506Y-77934428D01*
X172197885Y-126650756D02*
X171490778Y-125943649D01*
X171490778Y-125943649D02*
X172231557Y-126213023D01*
X172231557Y-126213023D02*
X171962183Y-125472245D01*
X171962183Y-125472245D02*
X172669290Y-126179352D01*
X173107022Y-125741619D02*
X173006007Y-125775291D01*
X173006007Y-125775291D02*
X172938664Y-125775291D01*
X172938664Y-125775291D02*
X172837648Y-125741619D01*
X172837648Y-125741619D02*
X172635618Y-125539588D01*
X172635618Y-125539588D02*
X172601946Y-125438573D01*
X172601946Y-125438573D02*
X172601946Y-125371230D01*
X172601946Y-125371230D02*
X172635618Y-125270214D01*
X172635618Y-125270214D02*
X172736633Y-125169199D01*
X172736633Y-125169199D02*
X172837648Y-125135527D01*
X172837648Y-125135527D02*
X172904992Y-125135527D01*
X172904992Y-125135527D02*
X173006007Y-125169199D01*
X173006007Y-125169199D02*
X173208038Y-125371230D01*
X173208038Y-125371230D02*
X173241709Y-125472245D01*
X173241709Y-125472245D02*
X173241709Y-125539588D01*
X173241709Y-125539588D02*
X173208038Y-125640604D01*
X173208038Y-125640604D02*
X173107022Y-125741619D01*
X173073351Y-124832481D02*
X173342725Y-124563107D01*
X172938664Y-124495764D02*
X173544755Y-125101856D01*
X173544755Y-125101856D02*
X173645770Y-125135527D01*
X173645770Y-125135527D02*
X173746786Y-125101856D01*
X173746786Y-125101856D02*
X173814129Y-125034512D01*
X174150847Y-124697794D02*
X174049832Y-124731466D01*
X174049832Y-124731466D02*
X173982488Y-124731466D01*
X173982488Y-124731466D02*
X173881473Y-124697794D01*
X173881473Y-124697794D02*
X173679443Y-124495764D01*
X173679443Y-124495764D02*
X173645771Y-124394748D01*
X173645771Y-124394748D02*
X173645771Y-124327405D01*
X173645771Y-124327405D02*
X173679443Y-124226390D01*
X173679443Y-124226390D02*
X173780458Y-124125374D01*
X173780458Y-124125374D02*
X173881473Y-124091703D01*
X173881473Y-124091703D02*
X173948817Y-124091703D01*
X173948817Y-124091703D02*
X174049832Y-124125374D01*
X174049832Y-124125374D02*
X174251862Y-124327405D01*
X174251862Y-124327405D02*
X174285534Y-124428420D01*
X174285534Y-124428420D02*
X174285534Y-124495764D01*
X174285534Y-124495764D02*
X174251862Y-124596779D01*
X174251862Y-124596779D02*
X174150847Y-124697794D01*
X174689595Y-124159046D02*
X174218191Y-123687642D01*
X174352878Y-123822329D02*
X174319206Y-123721313D01*
X174319206Y-123721313D02*
X174319206Y-123653970D01*
X174319206Y-123653970D02*
X174352878Y-123552955D01*
X174352878Y-123552955D02*
X174420221Y-123485611D01*
X174352878Y-123081550D02*
X174790611Y-122643817D01*
X174790611Y-122643817D02*
X174824282Y-123148893D01*
X174824282Y-123148893D02*
X174925298Y-123047878D01*
X174925298Y-123047878D02*
X175026313Y-123014206D01*
X175026313Y-123014206D02*
X175093656Y-123014206D01*
X175093656Y-123014206D02*
X175194672Y-123047878D01*
X175194672Y-123047878D02*
X175363030Y-123216237D01*
X175363030Y-123216237D02*
X175396702Y-123317252D01*
X175396702Y-123317252D02*
X175396702Y-123384596D01*
X175396702Y-123384596D02*
X175363030Y-123485611D01*
X175363030Y-123485611D02*
X175161000Y-123687641D01*
X175161000Y-123687641D02*
X175059985Y-123721313D01*
X175059985Y-123721313D02*
X174992641Y-123721313D01*
D16*
%TO.C,Q3*%
X168469615Y-117352145D02*
X168009996Y-117811765D01*
X168469615Y-117352145D02*
X168929235Y-116892526D01*
X170675789Y-119558319D02*
X170216169Y-120017938D01*
X170675789Y-119558319D02*
X171135408Y-119098699D01*
X167682959Y-118209512D02*
X167279908Y-118145873D01*
X167619320Y-117806462D01*
X167682959Y-118209512D01*
G36*
X167682959Y-118209512D02*
G01*
X167279908Y-118145873D01*
X167619320Y-117806462D01*
X167682959Y-118209512D01*
G37*
%TO.C,D2*%
X132985365Y-80561614D02*
X129089206Y-84457772D01*
X135318817Y-82895066D02*
X131422659Y-86791225D01*
X135318817Y-82895066D02*
X132985365Y-80561614D01*
%TO.C,R2*%
X137273924Y-97561071D02*
X136819796Y-97561071D01*
X137273924Y-99031071D02*
X136819796Y-99031071D01*
%TO.C,D5*%
X129521475Y-115891638D02*
X133417633Y-119787797D01*
X131854927Y-113558186D02*
X129521475Y-115891638D01*
X131854927Y-113558186D02*
X135751086Y-117454344D01*
%TO.C,TP5*%
X160688038Y-96646393D02*
X162588038Y-96646393D01*
X160688038Y-98546393D02*
X160688038Y-96646393D01*
X162588038Y-96646393D02*
X162588038Y-98546393D01*
X162588038Y-98546393D02*
X160688038Y-98546393D01*
%TO.C,TP1*%
X160304360Y-110036071D02*
X162704360Y-110036071D01*
X160304360Y-112436071D02*
X160304360Y-110036071D01*
X162704360Y-110036071D02*
X162704360Y-112436071D01*
X162704360Y-112436071D02*
X160304360Y-112436071D01*
%TO.C,U1*%
X140168038Y-76656393D02*
X140168038Y-82816393D01*
X140168038Y-76656393D02*
X158408038Y-76656393D01*
X140168038Y-101616393D02*
X140168038Y-102396393D01*
X140168038Y-102396393D02*
X141168038Y-102396393D01*
X158408038Y-76656393D02*
X158408038Y-83071393D01*
X158408038Y-101616393D02*
X158408038Y-102396393D01*
X158408038Y-102396393D02*
X157408038Y-102396393D01*
X140163038Y-83541393D02*
X139663038Y-83541393D01*
X140163038Y-83041393D01*
X140163038Y-83541393D01*
G36*
X140163038Y-83541393D02*
G01*
X139663038Y-83541393D01*
X140163038Y-83041393D01*
X140163038Y-83541393D01*
G37*
%TO.C,R12*%
X171000195Y-81626353D02*
X170679078Y-81305236D01*
X172039642Y-80586906D02*
X171718525Y-80265789D01*
%TO.C,R1*%
X137323924Y-94761071D02*
X136869796Y-94761071D01*
X137323924Y-96231071D02*
X136869796Y-96231071D01*
D14*
%TO.C,JP2*%
X159558038Y-83896393D02*
X160058038Y-83396393D01*
X159558038Y-84696393D02*
X159558038Y-83896393D01*
X160058038Y-83396393D02*
X163658038Y-83396393D01*
X160058038Y-85196393D02*
X159558038Y-84696393D01*
X163658038Y-83396393D02*
X164158038Y-83896393D01*
X163658038Y-85196393D02*
X160058038Y-85196393D01*
X164158038Y-83896393D02*
X164158038Y-84696393D01*
X164158038Y-84696393D02*
X163658038Y-85196393D01*
D16*
%TO.C,C1*%
X133323108Y-88511071D02*
X133845612Y-88511071D01*
X133323108Y-89981071D02*
X133845612Y-89981071D01*
%TO.C,R4*%
X136898474Y-90561393D02*
X137352602Y-90561393D01*
X136898474Y-92031393D02*
X137352602Y-92031393D01*
%TO.C,R10*%
X127808843Y-118510001D02*
X128129960Y-118831118D01*
X128848290Y-117470554D02*
X129169407Y-117791671D01*
%TO.C,C3*%
X142249290Y-114261393D02*
X141726786Y-114261393D01*
X142249290Y-115731393D02*
X141726786Y-115731393D01*
%TO.C,R14*%
X126383843Y-120010001D02*
X126704960Y-120331118D01*
X127423290Y-118970554D02*
X127744407Y-119291671D01*
%TO.C,C4*%
X142249290Y-109861393D02*
X141726786Y-109861393D01*
X142249290Y-111331393D02*
X141726786Y-111331393D01*
%TO.C,R9*%
X165633843Y-120107141D02*
X165954960Y-119786024D01*
X166673290Y-121146588D02*
X166994407Y-120825471D01*
%TO.C,F1*%
X140935974Y-111886393D02*
X142140102Y-111886393D01*
X140935974Y-113706393D02*
X142140102Y-113706393D01*
D14*
%TO.C,JP1*%
X134558038Y-86496393D02*
X135058038Y-85996393D01*
X134558038Y-87296393D02*
X134558038Y-86496393D01*
X135058038Y-85996393D02*
X138658038Y-85996393D01*
X135058038Y-87796393D02*
X134558038Y-87296393D01*
X138658038Y-85996393D02*
X139158038Y-86496393D01*
X138658038Y-87796393D02*
X135058038Y-87796393D01*
X139158038Y-86496393D02*
X139158038Y-87296393D01*
X139158038Y-87296393D02*
X138658038Y-87796393D01*
D16*
%TO.C,R13*%
X167008843Y-121532141D02*
X167329960Y-121211024D01*
X168048290Y-122571588D02*
X168369407Y-122250471D01*
%TO.C,R11*%
X129395430Y-77645554D02*
X129074313Y-77966671D01*
X130434877Y-78685001D02*
X130113760Y-79006118D01*
%TO.C,H4*%
X160338038Y-90596393D02*
X160338038Y-92296393D01*
X160338038Y-92296393D02*
X160338038Y-92796393D01*
X160338038Y-92796393D02*
X162938038Y-92796393D01*
X162938038Y-90596393D02*
X160338038Y-90596393D01*
X162938038Y-92796393D02*
X162938038Y-90596393D01*
%TO.C,TP2*%
X132534360Y-94546071D02*
X134434360Y-94546071D01*
X132534360Y-96446071D02*
X132534360Y-94546071D01*
X134434360Y-94546071D02*
X134434360Y-96446071D01*
X134434360Y-96446071D02*
X132534360Y-96446071D01*
%TO.C,Q2*%
X166834951Y-80299480D02*
X166375332Y-79839860D01*
X166834951Y-80299480D02*
X167294571Y-80759099D01*
X169041125Y-78093306D02*
X168581505Y-77633687D01*
X169041125Y-78093306D02*
X169500744Y-78552926D01*
X167628679Y-81489187D02*
X167289268Y-81149775D01*
X167692318Y-81086136D01*
X167628679Y-81489187D01*
G36*
X167628679Y-81489187D02*
G01*
X167289268Y-81149775D01*
X167692318Y-81086136D01*
X167628679Y-81489187D01*
G37*
%TO.C,TP4*%
X160688038Y-93946393D02*
X162588038Y-93946393D01*
X160688038Y-95846393D02*
X160688038Y-93946393D01*
X162588038Y-93946393D02*
X162588038Y-95846393D01*
X162588038Y-95846393D02*
X160688038Y-95846393D01*
%TO.C,H3*%
X160338038Y-87496393D02*
X160338038Y-89196393D01*
X160338038Y-89196393D02*
X160338038Y-89696393D01*
X160338038Y-89696393D02*
X162938038Y-89696393D01*
X162938038Y-87496393D02*
X160338038Y-87496393D01*
X162938038Y-89696393D02*
X162938038Y-87496393D01*
%TO.C,Q1*%
X126856273Y-80717984D02*
X126396654Y-81177604D01*
X126856273Y-80717984D02*
X127315893Y-80258365D01*
X129062447Y-82924158D02*
X128602827Y-83383777D01*
X129062447Y-82924158D02*
X129522066Y-82464538D01*
X130252154Y-82130430D02*
X129912742Y-82469841D01*
X129849103Y-82066791D01*
X130252154Y-82130430D01*
G36*
X130252154Y-82130430D02*
G01*
X129912742Y-82469841D01*
X129849103Y-82066791D01*
X130252154Y-82130430D01*
G37*
%TO.C,R5*%
X137352602Y-92561393D02*
X136898474Y-92561393D01*
X137352602Y-94031393D02*
X136898474Y-94031393D01*
%TO.C,J1*%
X138584360Y-103906071D02*
X138584360Y-106566071D01*
X156424360Y-103906071D02*
X138584360Y-103906071D01*
X156424360Y-103906071D02*
X156424360Y-106566071D01*
X156424360Y-106566071D02*
X138584360Y-106566071D01*
X157694360Y-103906071D02*
X159024360Y-103906071D01*
X159024360Y-103906071D02*
X159024360Y-105236071D01*
%TO.C,D3*%
X167324579Y-86169742D02*
X163428420Y-82273584D01*
X167324579Y-86169742D02*
X169658031Y-83836290D01*
X169658031Y-83836290D02*
X165761873Y-79940131D01*
%TO.C,R6*%
X144203038Y-113156829D02*
X144203038Y-113610957D01*
X145673038Y-113156829D02*
X145673038Y-113610957D01*
%TO.C,H2*%
X147289038Y-116846393D02*
G75*
G02*
X144787038Y-116846393I-1251000J0D01*
G01*
X144787038Y-116846393D02*
G75*
G02*
X147289038Y-116846393I1251000J0D01*
G01*
%TO.C,TP6*%
X160124360Y-106286071D02*
X163024360Y-106286071D01*
X160124360Y-109186071D02*
X160124360Y-106286071D01*
X163024360Y-106286071D02*
X163024360Y-109186071D01*
X163024360Y-109186071D02*
X160124360Y-109186071D01*
%TO.C,R7*%
X130770430Y-79070554D02*
X130449313Y-79391671D01*
X131809877Y-80110001D02*
X131488760Y-80431118D01*
%TO.C,R8*%
X169625195Y-83001353D02*
X169304078Y-82680236D01*
X170664642Y-81961906D02*
X170343525Y-81640789D01*
%TO.C,C5*%
X151926786Y-109261393D02*
X152449290Y-109261393D01*
X151926786Y-110731393D02*
X152449290Y-110731393D01*
%TO.C,U2*%
X148238038Y-111736393D02*
X147438038Y-111736393D01*
X148238038Y-111736393D02*
X149038038Y-111736393D01*
X148238038Y-114856393D02*
X147438038Y-114856393D01*
X148238038Y-114856393D02*
X149038038Y-114856393D01*
X146938038Y-111786393D02*
X146698038Y-111456393D01*
X147178038Y-111456393D01*
X146938038Y-111786393D01*
G36*
X146938038Y-111786393D02*
G01*
X146698038Y-111456393D01*
X147178038Y-111456393D01*
X146938038Y-111786393D01*
G37*
%TO.C,H1*%
X151739038Y-116846393D02*
G75*
G02*
X149237038Y-116846393I-1251000J0D01*
G01*
X149237038Y-116846393D02*
G75*
G02*
X151739038Y-116846393I1251000J0D01*
G01*
%TO.C,R3*%
X137252602Y-83961393D02*
X136798474Y-83961393D01*
X137252602Y-85431393D02*
X136798474Y-85431393D01*
%TO.C,C2*%
X136826786Y-88561393D02*
X137349290Y-88561393D01*
X136826786Y-90031393D02*
X137349290Y-90031393D01*
%TO.C,D4*%
X161810689Y-117161290D02*
X164144141Y-119494742D01*
X161810689Y-117161290D02*
X165706847Y-113265131D01*
X164144141Y-119494742D02*
X168040300Y-115598584D01*
%TO.C,C6*%
X151876786Y-111261393D02*
X152399290Y-111261393D01*
X151876786Y-112731393D02*
X152399290Y-112731393D01*
%TO.C,TP3*%
X132534360Y-97346071D02*
X134434360Y-97346071D01*
X132534360Y-99246071D02*
X132534360Y-97346071D01*
X134434360Y-97346071D02*
X134434360Y-99246071D01*
X134434360Y-99246071D02*
X132534360Y-99246071D01*
%TO.C,Q4*%
X129384951Y-122599480D02*
X128925332Y-122139860D01*
X129384951Y-122599480D02*
X129844571Y-123059099D01*
X131591125Y-120393306D02*
X131131505Y-119933687D01*
X131591125Y-120393306D02*
X132050744Y-120852926D01*
X131136808Y-119543011D02*
X130733758Y-119606650D01*
X130797397Y-119203599D01*
X131136808Y-119543011D01*
G36*
X131136808Y-119543011D02*
G01*
X130733758Y-119606650D01*
X130797397Y-119203599D01*
X131136808Y-119543011D01*
G37*
%TD*%
M02*
