%TF.GenerationSoftware,KiCad,Pcbnew,9.0.0-9.0.0-2~ubuntu22.04.1*%
%TF.CreationDate,2025-03-12T10:46:36+01:00*%
%TF.ProjectId,nano_drone,6e616e6f-5f64-4726-9f6e-652e6b696361,rev?*%
%TF.SameCoordinates,Original*%
%TF.FileFunction,Legend,Bot*%
%TF.FilePolarity,Positive*%
%FSLAX46Y46*%
G04 Gerber Fmt 4.6, Leading zero omitted, Abs format (unit mm)*
G04 Created by KiCad (PCBNEW 9.0.0-9.0.0-2~ubuntu22.04.1) date 2025-03-12 10:46:36*
%MOMM*%
%LPD*%
G01*
G04 APERTURE LIST*
%ADD10C,0.200000*%
%ADD11C,1.100000*%
%ADD12C,0.100000*%
%ADD13C,0.300000*%
%ADD14C,0.150000*%
%ADD15C,0.120000*%
G04 APERTURE END LIST*
D10*
X158570192Y-91885255D02*
X139070192Y-91885255D01*
X148070192Y-81485255D01*
X149570192Y-81485255D01*
X158570192Y-91885255D01*
G36*
X158570192Y-91885255D02*
G01*
X139070192Y-91885255D01*
X148070192Y-81485255D01*
X149570192Y-81485255D01*
X158570192Y-91885255D01*
G37*
X148394360Y-109816071D02*
X147954360Y-109816071D01*
D11*
X148994360Y-107106071D02*
G75*
G02*
X147894360Y-107106071I-550000J0D01*
G01*
X147894360Y-107106071D02*
G75*
G02*
X148994360Y-107106071I550000J0D01*
G01*
D10*
X148546860Y-107232321D02*
X151681860Y-107239821D01*
X151744360Y-107246071D02*
X151744360Y-107706071D01*
X152479360Y-107231071D02*
X151749360Y-106761071D01*
X148414360Y-109816071D02*
X148934360Y-109806071D01*
X151744360Y-106766071D02*
X151744360Y-107246071D01*
X148424360Y-109816071D02*
X148444360Y-107106071D01*
X148409360Y-110731071D02*
X148934360Y-109806071D01*
X151749360Y-107701071D02*
X152479360Y-107231071D01*
X147954360Y-109816071D02*
X148399360Y-110736071D01*
D12*
X152680475Y-113318490D02*
X152680475Y-112318490D01*
X152680475Y-112318490D02*
X152109047Y-113318490D01*
X152109047Y-113318490D02*
X152109047Y-112318490D01*
X151204285Y-113318490D02*
X151204285Y-112794680D01*
X151204285Y-112794680D02*
X151251904Y-112699442D01*
X151251904Y-112699442D02*
X151347142Y-112651823D01*
X151347142Y-112651823D02*
X151537618Y-112651823D01*
X151537618Y-112651823D02*
X151632856Y-112699442D01*
X151204285Y-113270871D02*
X151299523Y-113318490D01*
X151299523Y-113318490D02*
X151537618Y-113318490D01*
X151537618Y-113318490D02*
X151632856Y-113270871D01*
X151632856Y-113270871D02*
X151680475Y-113175632D01*
X151680475Y-113175632D02*
X151680475Y-113080394D01*
X151680475Y-113080394D02*
X151632856Y-112985156D01*
X151632856Y-112985156D02*
X151537618Y-112937537D01*
X151537618Y-112937537D02*
X151299523Y-112937537D01*
X151299523Y-112937537D02*
X151204285Y-112889918D01*
X150728094Y-112651823D02*
X150728094Y-113318490D01*
X150728094Y-112747061D02*
X150680475Y-112699442D01*
X150680475Y-112699442D02*
X150585237Y-112651823D01*
X150585237Y-112651823D02*
X150442380Y-112651823D01*
X150442380Y-112651823D02*
X150347142Y-112699442D01*
X150347142Y-112699442D02*
X150299523Y-112794680D01*
X150299523Y-112794680D02*
X150299523Y-113318490D01*
X149680475Y-113318490D02*
X149775713Y-113270871D01*
X149775713Y-113270871D02*
X149823332Y-113223251D01*
X149823332Y-113223251D02*
X149870951Y-113128013D01*
X149870951Y-113128013D02*
X149870951Y-112842299D01*
X149870951Y-112842299D02*
X149823332Y-112747061D01*
X149823332Y-112747061D02*
X149775713Y-112699442D01*
X149775713Y-112699442D02*
X149680475Y-112651823D01*
X149680475Y-112651823D02*
X149537618Y-112651823D01*
X149537618Y-112651823D02*
X149442380Y-112699442D01*
X149442380Y-112699442D02*
X149394761Y-112747061D01*
X149394761Y-112747061D02*
X149347142Y-112842299D01*
X149347142Y-112842299D02*
X149347142Y-113128013D01*
X149347142Y-113128013D02*
X149394761Y-113223251D01*
X149394761Y-113223251D02*
X149442380Y-113270871D01*
X149442380Y-113270871D02*
X149537618Y-113318490D01*
X149537618Y-113318490D02*
X149680475Y-113318490D01*
X148156665Y-112794680D02*
X147823332Y-112794680D01*
X147680475Y-113318490D02*
X148156665Y-113318490D01*
X148156665Y-113318490D02*
X148156665Y-112318490D01*
X148156665Y-112318490D02*
X147680475Y-112318490D01*
X147299522Y-113270871D02*
X147156665Y-113318490D01*
X147156665Y-113318490D02*
X146918570Y-113318490D01*
X146918570Y-113318490D02*
X146823332Y-113270871D01*
X146823332Y-113270871D02*
X146775713Y-113223251D01*
X146775713Y-113223251D02*
X146728094Y-113128013D01*
X146728094Y-113128013D02*
X146728094Y-113032775D01*
X146728094Y-113032775D02*
X146775713Y-112937537D01*
X146775713Y-112937537D02*
X146823332Y-112889918D01*
X146823332Y-112889918D02*
X146918570Y-112842299D01*
X146918570Y-112842299D02*
X147109046Y-112794680D01*
X147109046Y-112794680D02*
X147204284Y-112747061D01*
X147204284Y-112747061D02*
X147251903Y-112699442D01*
X147251903Y-112699442D02*
X147299522Y-112604204D01*
X147299522Y-112604204D02*
X147299522Y-112508966D01*
X147299522Y-112508966D02*
X147251903Y-112413728D01*
X147251903Y-112413728D02*
X147204284Y-112366109D01*
X147204284Y-112366109D02*
X147109046Y-112318490D01*
X147109046Y-112318490D02*
X146870951Y-112318490D01*
X146870951Y-112318490D02*
X146728094Y-112366109D01*
X146299522Y-113318490D02*
X146299522Y-112318490D01*
X146299522Y-112318490D02*
X145918570Y-112318490D01*
X145918570Y-112318490D02*
X145823332Y-112366109D01*
X145823332Y-112366109D02*
X145775713Y-112413728D01*
X145775713Y-112413728D02*
X145728094Y-112508966D01*
X145728094Y-112508966D02*
X145728094Y-112651823D01*
X145728094Y-112651823D02*
X145775713Y-112747061D01*
X145775713Y-112747061D02*
X145823332Y-112794680D01*
X145823332Y-112794680D02*
X145918570Y-112842299D01*
X145918570Y-112842299D02*
X146299522Y-112842299D01*
X145394760Y-112318490D02*
X144775713Y-112318490D01*
X144775713Y-112318490D02*
X145109046Y-112699442D01*
X145109046Y-112699442D02*
X144966189Y-112699442D01*
X144966189Y-112699442D02*
X144870951Y-112747061D01*
X144870951Y-112747061D02*
X144823332Y-112794680D01*
X144823332Y-112794680D02*
X144775713Y-112889918D01*
X144775713Y-112889918D02*
X144775713Y-113128013D01*
X144775713Y-113128013D02*
X144823332Y-113223251D01*
X144823332Y-113223251D02*
X144870951Y-113270871D01*
X144870951Y-113270871D02*
X144966189Y-113318490D01*
X144966189Y-113318490D02*
X145251903Y-113318490D01*
X145251903Y-113318490D02*
X145347141Y-113270871D01*
X145347141Y-113270871D02*
X145394760Y-113223251D01*
X144394760Y-112413728D02*
X144347141Y-112366109D01*
X144347141Y-112366109D02*
X144251903Y-112318490D01*
X144251903Y-112318490D02*
X144013808Y-112318490D01*
X144013808Y-112318490D02*
X143918570Y-112366109D01*
X143918570Y-112366109D02*
X143870951Y-112413728D01*
X143870951Y-112413728D02*
X143823332Y-112508966D01*
X143823332Y-112508966D02*
X143823332Y-112604204D01*
X143823332Y-112604204D02*
X143870951Y-112747061D01*
X143870951Y-112747061D02*
X144442379Y-113318490D01*
X144442379Y-113318490D02*
X143823332Y-113318490D01*
D13*
X146892706Y-107176899D02*
X145892706Y-107176899D01*
X145892706Y-107176899D02*
X146892706Y-108676899D01*
X146892706Y-108676899D02*
X145892706Y-108676899D01*
D12*
X150359047Y-111818490D02*
X150692380Y-111342299D01*
X150930475Y-111818490D02*
X150930475Y-110818490D01*
X150930475Y-110818490D02*
X150549523Y-110818490D01*
X150549523Y-110818490D02*
X150454285Y-110866109D01*
X150454285Y-110866109D02*
X150406666Y-110913728D01*
X150406666Y-110913728D02*
X150359047Y-111008966D01*
X150359047Y-111008966D02*
X150359047Y-111151823D01*
X150359047Y-111151823D02*
X150406666Y-111247061D01*
X150406666Y-111247061D02*
X150454285Y-111294680D01*
X150454285Y-111294680D02*
X150549523Y-111342299D01*
X150549523Y-111342299D02*
X150930475Y-111342299D01*
X149501904Y-111818490D02*
X149501904Y-111294680D01*
X149501904Y-111294680D02*
X149549523Y-111199442D01*
X149549523Y-111199442D02*
X149644761Y-111151823D01*
X149644761Y-111151823D02*
X149835237Y-111151823D01*
X149835237Y-111151823D02*
X149930475Y-111199442D01*
X149501904Y-111770871D02*
X149597142Y-111818490D01*
X149597142Y-111818490D02*
X149835237Y-111818490D01*
X149835237Y-111818490D02*
X149930475Y-111770871D01*
X149930475Y-111770871D02*
X149978094Y-111675632D01*
X149978094Y-111675632D02*
X149978094Y-111580394D01*
X149978094Y-111580394D02*
X149930475Y-111485156D01*
X149930475Y-111485156D02*
X149835237Y-111437537D01*
X149835237Y-111437537D02*
X149597142Y-111437537D01*
X149597142Y-111437537D02*
X149501904Y-111389918D01*
X148597142Y-111818490D02*
X148597142Y-110818490D01*
X148597142Y-111770871D02*
X148692380Y-111818490D01*
X148692380Y-111818490D02*
X148882856Y-111818490D01*
X148882856Y-111818490D02*
X148978094Y-111770871D01*
X148978094Y-111770871D02*
X149025713Y-111723251D01*
X149025713Y-111723251D02*
X149073332Y-111628013D01*
X149073332Y-111628013D02*
X149073332Y-111342299D01*
X149073332Y-111342299D02*
X149025713Y-111247061D01*
X149025713Y-111247061D02*
X148978094Y-111199442D01*
X148978094Y-111199442D02*
X148882856Y-111151823D01*
X148882856Y-111151823D02*
X148692380Y-111151823D01*
X148692380Y-111151823D02*
X148597142Y-111199442D01*
X148120951Y-111818490D02*
X148120951Y-111151823D01*
X148120951Y-110818490D02*
X148168570Y-110866109D01*
X148168570Y-110866109D02*
X148120951Y-110913728D01*
X148120951Y-110913728D02*
X148073332Y-110866109D01*
X148073332Y-110866109D02*
X148120951Y-110818490D01*
X148120951Y-110818490D02*
X148120951Y-110913728D01*
X147501904Y-111818490D02*
X147597142Y-111770871D01*
X147597142Y-111770871D02*
X147644761Y-111723251D01*
X147644761Y-111723251D02*
X147692380Y-111628013D01*
X147692380Y-111628013D02*
X147692380Y-111342299D01*
X147692380Y-111342299D02*
X147644761Y-111247061D01*
X147644761Y-111247061D02*
X147597142Y-111199442D01*
X147597142Y-111199442D02*
X147501904Y-111151823D01*
X147501904Y-111151823D02*
X147359047Y-111151823D01*
X147359047Y-111151823D02*
X147263809Y-111199442D01*
X147263809Y-111199442D02*
X147216190Y-111247061D01*
X147216190Y-111247061D02*
X147168571Y-111342299D01*
X147168571Y-111342299D02*
X147168571Y-111628013D01*
X147168571Y-111628013D02*
X147216190Y-111723251D01*
X147216190Y-111723251D02*
X147263809Y-111770871D01*
X147263809Y-111770871D02*
X147359047Y-111818490D01*
X147359047Y-111818490D02*
X147501904Y-111818490D01*
X146359047Y-111770871D02*
X146454285Y-111818490D01*
X146454285Y-111818490D02*
X146644761Y-111818490D01*
X146644761Y-111818490D02*
X146739999Y-111770871D01*
X146739999Y-111770871D02*
X146787618Y-111675632D01*
X146787618Y-111675632D02*
X146787618Y-111294680D01*
X146787618Y-111294680D02*
X146739999Y-111199442D01*
X146739999Y-111199442D02*
X146644761Y-111151823D01*
X146644761Y-111151823D02*
X146454285Y-111151823D01*
X146454285Y-111151823D02*
X146359047Y-111199442D01*
X146359047Y-111199442D02*
X146311428Y-111294680D01*
X146311428Y-111294680D02*
X146311428Y-111389918D01*
X146311428Y-111389918D02*
X146787618Y-111485156D01*
X145739999Y-111818490D02*
X145835237Y-111770871D01*
X145835237Y-111770871D02*
X145882856Y-111675632D01*
X145882856Y-111675632D02*
X145882856Y-110818490D01*
X145501903Y-111151823D02*
X145120951Y-111151823D01*
X145359046Y-111818490D02*
X145359046Y-110961347D01*
X145359046Y-110961347D02*
X145311427Y-110866109D01*
X145311427Y-110866109D02*
X145216189Y-110818490D01*
X145216189Y-110818490D02*
X145120951Y-110818490D01*
D14*
X147024835Y-114150890D02*
X146405788Y-114150890D01*
X146405788Y-114150890D02*
X146739121Y-114531842D01*
X146739121Y-114531842D02*
X146596264Y-114531842D01*
X146596264Y-114531842D02*
X146501026Y-114579461D01*
X146501026Y-114579461D02*
X146453407Y-114627080D01*
X146453407Y-114627080D02*
X146405788Y-114722318D01*
X146405788Y-114722318D02*
X146405788Y-114960413D01*
X146405788Y-114960413D02*
X146453407Y-115055651D01*
X146453407Y-115055651D02*
X146501026Y-115103271D01*
X146501026Y-115103271D02*
X146596264Y-115150890D01*
X146596264Y-115150890D02*
X146881978Y-115150890D01*
X146881978Y-115150890D02*
X146977216Y-115103271D01*
X146977216Y-115103271D02*
X147024835Y-115055651D01*
X146072454Y-114484223D02*
X145834359Y-115150890D01*
X145834359Y-115150890D02*
X145596264Y-114484223D01*
X145310549Y-114150890D02*
X144643883Y-114150890D01*
X144643883Y-114150890D02*
X145072454Y-115150890D01*
X165572454Y-87950890D02*
X165001026Y-87950890D01*
X165286740Y-88950890D02*
X165286740Y-87950890D01*
X164762930Y-87950890D02*
X164096264Y-88950890D01*
X164096264Y-87950890D02*
X164762930Y-88950890D01*
X163524835Y-87950890D02*
X163429597Y-87950890D01*
X163429597Y-87950890D02*
X163334359Y-87998509D01*
X163334359Y-87998509D02*
X163286740Y-88046128D01*
X163286740Y-88046128D02*
X163239121Y-88141366D01*
X163239121Y-88141366D02*
X163191502Y-88331842D01*
X163191502Y-88331842D02*
X163191502Y-88569937D01*
X163191502Y-88569937D02*
X163239121Y-88760413D01*
X163239121Y-88760413D02*
X163286740Y-88855651D01*
X163286740Y-88855651D02*
X163334359Y-88903271D01*
X163334359Y-88903271D02*
X163429597Y-88950890D01*
X163429597Y-88950890D02*
X163524835Y-88950890D01*
X163524835Y-88950890D02*
X163620073Y-88903271D01*
X163620073Y-88903271D02*
X163667692Y-88855651D01*
X163667692Y-88855651D02*
X163715311Y-88760413D01*
X163715311Y-88760413D02*
X163762930Y-88569937D01*
X163762930Y-88569937D02*
X163762930Y-88331842D01*
X163762930Y-88331842D02*
X163715311Y-88141366D01*
X163715311Y-88141366D02*
X163667692Y-88046128D01*
X163667692Y-88046128D02*
X163620073Y-87998509D01*
X163620073Y-87998509D02*
X163524835Y-87950890D01*
D13*
X150212706Y-108846899D02*
X149212706Y-110346899D01*
X149212706Y-108846899D02*
X150212706Y-110346899D01*
X172947365Y-81443272D02*
X172139243Y-82251394D01*
X172947365Y-82251394D02*
X172139243Y-81443272D01*
X168031561Y-77433065D02*
X168839683Y-78241187D01*
X129872365Y-77043272D02*
X129064243Y-77851394D01*
X129872365Y-77851394D02*
X129064243Y-77043272D01*
X126347365Y-80418272D02*
X125539243Y-81226394D01*
X129381561Y-122933065D02*
X130189683Y-123741187D01*
X153734134Y-107732613D02*
X153734134Y-108446899D01*
X154234134Y-106946899D02*
X153734134Y-107732613D01*
X153734134Y-107732613D02*
X153234134Y-106946899D01*
X168897365Y-122368272D02*
X168089243Y-123176394D01*
X168897365Y-123176394D02*
X168089243Y-122368272D01*
D14*
X165077217Y-92050890D02*
X165410550Y-91574699D01*
X165648645Y-92050890D02*
X165648645Y-91050890D01*
X165648645Y-91050890D02*
X165267693Y-91050890D01*
X165267693Y-91050890D02*
X165172455Y-91098509D01*
X165172455Y-91098509D02*
X165124836Y-91146128D01*
X165124836Y-91146128D02*
X165077217Y-91241366D01*
X165077217Y-91241366D02*
X165077217Y-91384223D01*
X165077217Y-91384223D02*
X165124836Y-91479461D01*
X165124836Y-91479461D02*
X165172455Y-91527080D01*
X165172455Y-91527080D02*
X165267693Y-91574699D01*
X165267693Y-91574699D02*
X165648645Y-91574699D01*
X164743883Y-91050890D02*
X164077217Y-92050890D01*
X164077217Y-91050890D02*
X164743883Y-92050890D01*
X163505788Y-91050890D02*
X163410550Y-91050890D01*
X163410550Y-91050890D02*
X163315312Y-91098509D01*
X163315312Y-91098509D02*
X163267693Y-91146128D01*
X163267693Y-91146128D02*
X163220074Y-91241366D01*
X163220074Y-91241366D02*
X163172455Y-91431842D01*
X163172455Y-91431842D02*
X163172455Y-91669937D01*
X163172455Y-91669937D02*
X163220074Y-91860413D01*
X163220074Y-91860413D02*
X163267693Y-91955651D01*
X163267693Y-91955651D02*
X163315312Y-92003271D01*
X163315312Y-92003271D02*
X163410550Y-92050890D01*
X163410550Y-92050890D02*
X163505788Y-92050890D01*
X163505788Y-92050890D02*
X163601026Y-92003271D01*
X163601026Y-92003271D02*
X163648645Y-91955651D01*
X163648645Y-91955651D02*
X163696264Y-91860413D01*
X163696264Y-91860413D02*
X163743883Y-91669937D01*
X163743883Y-91669937D02*
X163743883Y-91431842D01*
X163743883Y-91431842D02*
X163696264Y-91241366D01*
X163696264Y-91241366D02*
X163648645Y-91146128D01*
X163648645Y-91146128D02*
X163601026Y-91098509D01*
X163601026Y-91098509D02*
X163505788Y-91050890D01*
X163053407Y-86227080D02*
X162910550Y-86274699D01*
X162910550Y-86274699D02*
X162862931Y-86322318D01*
X162862931Y-86322318D02*
X162815312Y-86417556D01*
X162815312Y-86417556D02*
X162815312Y-86560413D01*
X162815312Y-86560413D02*
X162862931Y-86655651D01*
X162862931Y-86655651D02*
X162910550Y-86703271D01*
X162910550Y-86703271D02*
X163005788Y-86750890D01*
X163005788Y-86750890D02*
X163386740Y-86750890D01*
X163386740Y-86750890D02*
X163386740Y-85750890D01*
X163386740Y-85750890D02*
X163053407Y-85750890D01*
X163053407Y-85750890D02*
X162958169Y-85798509D01*
X162958169Y-85798509D02*
X162910550Y-85846128D01*
X162910550Y-85846128D02*
X162862931Y-85941366D01*
X162862931Y-85941366D02*
X162862931Y-86036604D01*
X162862931Y-86036604D02*
X162910550Y-86131842D01*
X162910550Y-86131842D02*
X162958169Y-86179461D01*
X162958169Y-86179461D02*
X163053407Y-86227080D01*
X163053407Y-86227080D02*
X163386740Y-86227080D01*
X162243883Y-86750890D02*
X162339121Y-86703271D01*
X162339121Y-86703271D02*
X162386740Y-86655651D01*
X162386740Y-86655651D02*
X162434359Y-86560413D01*
X162434359Y-86560413D02*
X162434359Y-86274699D01*
X162434359Y-86274699D02*
X162386740Y-86179461D01*
X162386740Y-86179461D02*
X162339121Y-86131842D01*
X162339121Y-86131842D02*
X162243883Y-86084223D01*
X162243883Y-86084223D02*
X162101026Y-86084223D01*
X162101026Y-86084223D02*
X162005788Y-86131842D01*
X162005788Y-86131842D02*
X161958169Y-86179461D01*
X161958169Y-86179461D02*
X161910550Y-86274699D01*
X161910550Y-86274699D02*
X161910550Y-86560413D01*
X161910550Y-86560413D02*
X161958169Y-86655651D01*
X161958169Y-86655651D02*
X162005788Y-86703271D01*
X162005788Y-86703271D02*
X162101026Y-86750890D01*
X162101026Y-86750890D02*
X162243883Y-86750890D01*
X161339121Y-86750890D02*
X161434359Y-86703271D01*
X161434359Y-86703271D02*
X161481978Y-86655651D01*
X161481978Y-86655651D02*
X161529597Y-86560413D01*
X161529597Y-86560413D02*
X161529597Y-86274699D01*
X161529597Y-86274699D02*
X161481978Y-86179461D01*
X161481978Y-86179461D02*
X161434359Y-86131842D01*
X161434359Y-86131842D02*
X161339121Y-86084223D01*
X161339121Y-86084223D02*
X161196264Y-86084223D01*
X161196264Y-86084223D02*
X161101026Y-86131842D01*
X161101026Y-86131842D02*
X161053407Y-86179461D01*
X161053407Y-86179461D02*
X161005788Y-86274699D01*
X161005788Y-86274699D02*
X161005788Y-86560413D01*
X161005788Y-86560413D02*
X161053407Y-86655651D01*
X161053407Y-86655651D02*
X161101026Y-86703271D01*
X161101026Y-86703271D02*
X161196264Y-86750890D01*
X161196264Y-86750890D02*
X161339121Y-86750890D01*
X160720073Y-86084223D02*
X160339121Y-86084223D01*
X160577216Y-85750890D02*
X160577216Y-86608032D01*
X160577216Y-86608032D02*
X160529597Y-86703271D01*
X160529597Y-86703271D02*
X160434359Y-86750890D01*
X160434359Y-86750890D02*
X160339121Y-86750890D01*
D13*
X172147365Y-119443272D02*
X171339243Y-120251394D01*
D14*
X151196264Y-114148509D02*
X151291502Y-114100890D01*
X151291502Y-114100890D02*
X151434359Y-114100890D01*
X151434359Y-114100890D02*
X151577216Y-114148509D01*
X151577216Y-114148509D02*
X151672454Y-114243747D01*
X151672454Y-114243747D02*
X151720073Y-114338985D01*
X151720073Y-114338985D02*
X151767692Y-114529461D01*
X151767692Y-114529461D02*
X151767692Y-114672318D01*
X151767692Y-114672318D02*
X151720073Y-114862794D01*
X151720073Y-114862794D02*
X151672454Y-114958032D01*
X151672454Y-114958032D02*
X151577216Y-115053271D01*
X151577216Y-115053271D02*
X151434359Y-115100890D01*
X151434359Y-115100890D02*
X151339121Y-115100890D01*
X151339121Y-115100890D02*
X151196264Y-115053271D01*
X151196264Y-115053271D02*
X151148645Y-115005651D01*
X151148645Y-115005651D02*
X151148645Y-114672318D01*
X151148645Y-114672318D02*
X151339121Y-114672318D01*
X150720073Y-115100890D02*
X150720073Y-114100890D01*
X150720073Y-114100890D02*
X150148645Y-115100890D01*
X150148645Y-115100890D02*
X150148645Y-114100890D01*
X149672454Y-115100890D02*
X149672454Y-114100890D01*
X149672454Y-114100890D02*
X149434359Y-114100890D01*
X149434359Y-114100890D02*
X149291502Y-114148509D01*
X149291502Y-114148509D02*
X149196264Y-114243747D01*
X149196264Y-114243747D02*
X149148645Y-114338985D01*
X149148645Y-114338985D02*
X149101026Y-114529461D01*
X149101026Y-114529461D02*
X149101026Y-114672318D01*
X149101026Y-114672318D02*
X149148645Y-114862794D01*
X149148645Y-114862794D02*
X149196264Y-114958032D01*
X149196264Y-114958032D02*
X149291502Y-115053271D01*
X149291502Y-115053271D02*
X149434359Y-115100890D01*
X149434359Y-115100890D02*
X149672454Y-115100890D01*
D13*
X126972365Y-119793272D02*
X126164243Y-120601394D01*
X126972365Y-120601394D02*
X126164243Y-119793272D01*
D14*
X138076133Y-89251212D02*
X138409466Y-88775021D01*
X138647561Y-89251212D02*
X138647561Y-88251212D01*
X138647561Y-88251212D02*
X138266609Y-88251212D01*
X138266609Y-88251212D02*
X138171371Y-88298831D01*
X138171371Y-88298831D02*
X138123752Y-88346450D01*
X138123752Y-88346450D02*
X138076133Y-88441688D01*
X138076133Y-88441688D02*
X138076133Y-88584545D01*
X138076133Y-88584545D02*
X138123752Y-88679783D01*
X138123752Y-88679783D02*
X138171371Y-88727402D01*
X138171371Y-88727402D02*
X138266609Y-88775021D01*
X138266609Y-88775021D02*
X138647561Y-88775021D01*
X137266609Y-89203593D02*
X137361847Y-89251212D01*
X137361847Y-89251212D02*
X137552323Y-89251212D01*
X137552323Y-89251212D02*
X137647561Y-89203593D01*
X137647561Y-89203593D02*
X137695180Y-89108354D01*
X137695180Y-89108354D02*
X137695180Y-88727402D01*
X137695180Y-88727402D02*
X137647561Y-88632164D01*
X137647561Y-88632164D02*
X137552323Y-88584545D01*
X137552323Y-88584545D02*
X137361847Y-88584545D01*
X137361847Y-88584545D02*
X137266609Y-88632164D01*
X137266609Y-88632164D02*
X137218990Y-88727402D01*
X137218990Y-88727402D02*
X137218990Y-88822640D01*
X137218990Y-88822640D02*
X137695180Y-88917878D01*
X136838037Y-89203593D02*
X136742799Y-89251212D01*
X136742799Y-89251212D02*
X136552323Y-89251212D01*
X136552323Y-89251212D02*
X136457085Y-89203593D01*
X136457085Y-89203593D02*
X136409466Y-89108354D01*
X136409466Y-89108354D02*
X136409466Y-89060735D01*
X136409466Y-89060735D02*
X136457085Y-88965497D01*
X136457085Y-88965497D02*
X136552323Y-88917878D01*
X136552323Y-88917878D02*
X136695180Y-88917878D01*
X136695180Y-88917878D02*
X136790418Y-88870259D01*
X136790418Y-88870259D02*
X136838037Y-88775021D01*
X136838037Y-88775021D02*
X136838037Y-88727402D01*
X136838037Y-88727402D02*
X136790418Y-88632164D01*
X136790418Y-88632164D02*
X136695180Y-88584545D01*
X136695180Y-88584545D02*
X136552323Y-88584545D01*
X136552323Y-88584545D02*
X136457085Y-88632164D01*
X135599942Y-89203593D02*
X135695180Y-89251212D01*
X135695180Y-89251212D02*
X135885656Y-89251212D01*
X135885656Y-89251212D02*
X135980894Y-89203593D01*
X135980894Y-89203593D02*
X136028513Y-89108354D01*
X136028513Y-89108354D02*
X136028513Y-88727402D01*
X136028513Y-88727402D02*
X135980894Y-88632164D01*
X135980894Y-88632164D02*
X135885656Y-88584545D01*
X135885656Y-88584545D02*
X135695180Y-88584545D01*
X135695180Y-88584545D02*
X135599942Y-88632164D01*
X135599942Y-88632164D02*
X135552323Y-88727402D01*
X135552323Y-88727402D02*
X135552323Y-88822640D01*
X135552323Y-88822640D02*
X136028513Y-88917878D01*
X135266608Y-88584545D02*
X134885656Y-88584545D01*
X135123751Y-88251212D02*
X135123751Y-89108354D01*
X135123751Y-89108354D02*
X135076132Y-89203593D01*
X135076132Y-89203593D02*
X134980894Y-89251212D01*
X134980894Y-89251212D02*
X134885656Y-89251212D01*
X147912216Y-95110842D02*
X147912216Y-94510842D01*
X147912216Y-94510842D02*
X147712216Y-94939413D01*
X147712216Y-94939413D02*
X147512216Y-94510842D01*
X147512216Y-94510842D02*
X147512216Y-95110842D01*
X147226502Y-95110842D02*
X147226502Y-94510842D01*
X146969360Y-95082271D02*
X146883646Y-95110842D01*
X146883646Y-95110842D02*
X146740788Y-95110842D01*
X146740788Y-95110842D02*
X146683646Y-95082271D01*
X146683646Y-95082271D02*
X146655074Y-95053699D01*
X146655074Y-95053699D02*
X146626503Y-94996556D01*
X146626503Y-94996556D02*
X146626503Y-94939413D01*
X146626503Y-94939413D02*
X146655074Y-94882271D01*
X146655074Y-94882271D02*
X146683646Y-94853699D01*
X146683646Y-94853699D02*
X146740788Y-94825128D01*
X146740788Y-94825128D02*
X146855074Y-94796556D01*
X146855074Y-94796556D02*
X146912217Y-94767985D01*
X146912217Y-94767985D02*
X146940788Y-94739413D01*
X146940788Y-94739413D02*
X146969360Y-94682271D01*
X146969360Y-94682271D02*
X146969360Y-94625128D01*
X146969360Y-94625128D02*
X146940788Y-94567985D01*
X146940788Y-94567985D02*
X146912217Y-94539413D01*
X146912217Y-94539413D02*
X146855074Y-94510842D01*
X146855074Y-94510842D02*
X146712217Y-94510842D01*
X146712217Y-94510842D02*
X146626503Y-94539413D01*
X146255074Y-94510842D02*
X146140788Y-94510842D01*
X146140788Y-94510842D02*
X146083645Y-94539413D01*
X146083645Y-94539413D02*
X146026502Y-94596556D01*
X146026502Y-94596556D02*
X145997931Y-94710842D01*
X145997931Y-94710842D02*
X145997931Y-94910842D01*
X145997931Y-94910842D02*
X146026502Y-95025128D01*
X146026502Y-95025128D02*
X146083645Y-95082271D01*
X146083645Y-95082271D02*
X146140788Y-95110842D01*
X146140788Y-95110842D02*
X146255074Y-95110842D01*
X146255074Y-95110842D02*
X146312217Y-95082271D01*
X146312217Y-95082271D02*
X146369359Y-95025128D01*
X146369359Y-95025128D02*
X146397931Y-94910842D01*
X146397931Y-94910842D02*
X146397931Y-94710842D01*
X146397931Y-94710842D02*
X146369359Y-94596556D01*
X146369359Y-94596556D02*
X146312217Y-94539413D01*
X146312217Y-94539413D02*
X146255074Y-94510842D01*
X150167216Y-95125842D02*
X150167216Y-94525842D01*
X150167216Y-94525842D02*
X149967216Y-94954413D01*
X149967216Y-94954413D02*
X149767216Y-94525842D01*
X149767216Y-94525842D02*
X149767216Y-95125842D01*
X149481502Y-95125842D02*
X149481502Y-94525842D01*
X149224360Y-95097271D02*
X149138646Y-95125842D01*
X149138646Y-95125842D02*
X148995788Y-95125842D01*
X148995788Y-95125842D02*
X148938646Y-95097271D01*
X148938646Y-95097271D02*
X148910074Y-95068699D01*
X148910074Y-95068699D02*
X148881503Y-95011556D01*
X148881503Y-95011556D02*
X148881503Y-94954413D01*
X148881503Y-94954413D02*
X148910074Y-94897271D01*
X148910074Y-94897271D02*
X148938646Y-94868699D01*
X148938646Y-94868699D02*
X148995788Y-94840128D01*
X148995788Y-94840128D02*
X149110074Y-94811556D01*
X149110074Y-94811556D02*
X149167217Y-94782985D01*
X149167217Y-94782985D02*
X149195788Y-94754413D01*
X149195788Y-94754413D02*
X149224360Y-94697271D01*
X149224360Y-94697271D02*
X149224360Y-94640128D01*
X149224360Y-94640128D02*
X149195788Y-94582985D01*
X149195788Y-94582985D02*
X149167217Y-94554413D01*
X149167217Y-94554413D02*
X149110074Y-94525842D01*
X149110074Y-94525842D02*
X148967217Y-94525842D01*
X148967217Y-94525842D02*
X148881503Y-94554413D01*
X148510074Y-94525842D02*
X148395788Y-94525842D01*
X148395788Y-94525842D02*
X148338645Y-94554413D01*
X148338645Y-94554413D02*
X148281502Y-94611556D01*
X148281502Y-94611556D02*
X148252931Y-94725842D01*
X148252931Y-94725842D02*
X148252931Y-94925842D01*
X148252931Y-94925842D02*
X148281502Y-95040128D01*
X148281502Y-95040128D02*
X148338645Y-95097271D01*
X148338645Y-95097271D02*
X148395788Y-95125842D01*
X148395788Y-95125842D02*
X148510074Y-95125842D01*
X148510074Y-95125842D02*
X148567217Y-95097271D01*
X148567217Y-95097271D02*
X148624359Y-95040128D01*
X148624359Y-95040128D02*
X148652931Y-94925842D01*
X148652931Y-94925842D02*
X148652931Y-94725842D01*
X148652931Y-94725842D02*
X148624359Y-94611556D01*
X148624359Y-94611556D02*
X148567217Y-94554413D01*
X148567217Y-94554413D02*
X148510074Y-94525842D01*
X144684359Y-95058699D02*
X144712931Y-95087271D01*
X144712931Y-95087271D02*
X144798645Y-95115842D01*
X144798645Y-95115842D02*
X144855788Y-95115842D01*
X144855788Y-95115842D02*
X144941502Y-95087271D01*
X144941502Y-95087271D02*
X144998645Y-95030128D01*
X144998645Y-95030128D02*
X145027216Y-94972985D01*
X145027216Y-94972985D02*
X145055788Y-94858699D01*
X145055788Y-94858699D02*
X145055788Y-94772985D01*
X145055788Y-94772985D02*
X145027216Y-94658699D01*
X145027216Y-94658699D02*
X144998645Y-94601556D01*
X144998645Y-94601556D02*
X144941502Y-94544413D01*
X144941502Y-94544413D02*
X144855788Y-94515842D01*
X144855788Y-94515842D02*
X144798645Y-94515842D01*
X144798645Y-94515842D02*
X144712931Y-94544413D01*
X144712931Y-94544413D02*
X144684359Y-94572985D01*
X144455788Y-95087271D02*
X144370074Y-95115842D01*
X144370074Y-95115842D02*
X144227216Y-95115842D01*
X144227216Y-95115842D02*
X144170074Y-95087271D01*
X144170074Y-95087271D02*
X144141502Y-95058699D01*
X144141502Y-95058699D02*
X144112931Y-95001556D01*
X144112931Y-95001556D02*
X144112931Y-94944413D01*
X144112931Y-94944413D02*
X144141502Y-94887271D01*
X144141502Y-94887271D02*
X144170074Y-94858699D01*
X144170074Y-94858699D02*
X144227216Y-94830128D01*
X144227216Y-94830128D02*
X144341502Y-94801556D01*
X144341502Y-94801556D02*
X144398645Y-94772985D01*
X144398645Y-94772985D02*
X144427216Y-94744413D01*
X144427216Y-94744413D02*
X144455788Y-94687271D01*
X144455788Y-94687271D02*
X144455788Y-94630128D01*
X144455788Y-94630128D02*
X144427216Y-94572985D01*
X144427216Y-94572985D02*
X144398645Y-94544413D01*
X144398645Y-94544413D02*
X144341502Y-94515842D01*
X144341502Y-94515842D02*
X144198645Y-94515842D01*
X144198645Y-94515842D02*
X144112931Y-94544413D01*
X151951502Y-95058699D02*
X151980074Y-95087271D01*
X151980074Y-95087271D02*
X152065788Y-95115842D01*
X152065788Y-95115842D02*
X152122931Y-95115842D01*
X152122931Y-95115842D02*
X152208645Y-95087271D01*
X152208645Y-95087271D02*
X152265788Y-95030128D01*
X152265788Y-95030128D02*
X152294359Y-94972985D01*
X152294359Y-94972985D02*
X152322931Y-94858699D01*
X152322931Y-94858699D02*
X152322931Y-94772985D01*
X152322931Y-94772985D02*
X152294359Y-94658699D01*
X152294359Y-94658699D02*
X152265788Y-94601556D01*
X152265788Y-94601556D02*
X152208645Y-94544413D01*
X152208645Y-94544413D02*
X152122931Y-94515842D01*
X152122931Y-94515842D02*
X152065788Y-94515842D01*
X152065788Y-94515842D02*
X151980074Y-94544413D01*
X151980074Y-94544413D02*
X151951502Y-94572985D01*
X151408645Y-95115842D02*
X151694359Y-95115842D01*
X151694359Y-95115842D02*
X151694359Y-94515842D01*
X151208645Y-95115842D02*
X151208645Y-94515842D01*
X150865788Y-95115842D02*
X151122931Y-94772985D01*
X150865788Y-94515842D02*
X151208645Y-94858699D01*
D15*
%TO.C,TP8*%
X122512304Y-79221071D02*
X124209360Y-77524015D01*
X124209360Y-77524015D02*
X125906416Y-79221071D01*
X124209360Y-80918127D02*
X122512304Y-79221071D01*
X125906416Y-79221071D02*
X124209360Y-80918127D01*
%TO.C,TP11*%
X126440982Y-125096393D02*
X128138038Y-123399337D01*
X128138038Y-123399337D02*
X129835094Y-125096393D01*
X128138038Y-126793449D02*
X126440982Y-125096393D01*
X129835094Y-125096393D02*
X128138038Y-126793449D01*
%TO.C,TP14*%
X123062304Y-121971071D02*
X124759360Y-120274015D01*
X124759360Y-120274015D02*
X126456416Y-121971071D01*
X124759360Y-123668127D02*
X123062304Y-121971071D01*
X126456416Y-121971071D02*
X124759360Y-123668127D01*
%TO.C,TP9*%
X168540980Y-75596393D02*
X170238038Y-73899335D01*
X170238038Y-73899335D02*
X171935096Y-75596393D01*
X170238038Y-77293451D02*
X168540980Y-75596393D01*
X171935096Y-75596393D02*
X170238038Y-77293451D01*
%TO.C,REF\u002A\u002A*%
X146194360Y-95616071D02*
X147594360Y-95616071D01*
X146194360Y-97016071D02*
X146194360Y-95616071D01*
X147594360Y-95616071D02*
X147594360Y-97016071D01*
X147594360Y-97016071D02*
X146194360Y-97016071D01*
X148524360Y-95606071D02*
X149924360Y-95606071D01*
X148524360Y-97006071D02*
X148524360Y-95606071D01*
X149924360Y-95606071D02*
X149924360Y-97006071D01*
X149924360Y-97006071D02*
X148524360Y-97006071D01*
%TO.C,TP7*%
X126087304Y-75696071D02*
X127784360Y-73999015D01*
X127784360Y-73999015D02*
X129481416Y-75696071D01*
X127784360Y-77393127D02*
X126087304Y-75696071D01*
X129481416Y-75696071D02*
X127784360Y-77393127D01*
%TO.C,REF\u002A\u002A*%
X143884360Y-95596071D02*
X145284360Y-95596071D01*
X143884360Y-96996071D02*
X143884360Y-95596071D01*
X145284360Y-95596071D02*
X145284360Y-96996071D01*
X145284360Y-96996071D02*
X143884360Y-96996071D01*
D14*
X133034120Y-94020751D02*
X133735160Y-94020751D01*
X133735160Y-94020751D02*
X133735160Y-92420551D01*
X133935380Y-95471291D02*
X134136040Y-94920111D01*
X133935380Y-95920871D02*
X133935380Y-95471291D01*
X134034440Y-96121531D02*
X135035200Y-95870071D01*
X134034440Y-96319651D02*
X133935380Y-95920871D01*
X134136040Y-94920111D02*
X134585620Y-94620391D01*
X134136040Y-94970911D02*
X135284120Y-95420491D01*
X134285900Y-96870831D02*
X134034440Y-96319651D01*
X134385400Y-93070791D02*
X134484460Y-92669471D01*
X134484460Y-92669471D02*
X134733380Y-92471351D01*
X134585620Y-94620391D02*
X135035200Y-94371471D01*
X134585620Y-96969891D02*
X135334920Y-96271391D01*
X134685120Y-93220651D02*
X134385400Y-93070791D01*
X134733380Y-92471351D02*
X135284560Y-92519611D01*
X134735480Y-97269611D02*
X134285900Y-96870831D01*
X135035200Y-94371471D02*
X135484780Y-94419731D01*
X135035200Y-95870071D02*
X134585620Y-96969891D01*
X135086000Y-97371211D02*
X136383940Y-96520311D01*
X135185500Y-93169851D02*
X134685120Y-93220651D01*
X135235860Y-96070731D02*
X135284120Y-95771011D01*
X135284120Y-95420491D02*
X134034440Y-96121531D01*
X135284120Y-95771011D02*
X135484780Y-95369691D01*
X135284120Y-97670931D02*
X134735480Y-97269611D01*
X135284120Y-98321171D02*
X135583840Y-97670931D01*
X135284560Y-92519611D02*
X135284560Y-93969951D01*
X135334920Y-96271391D02*
X135086000Y-97371211D01*
X135385720Y-94470531D02*
X135883560Y-95171571D01*
X135484780Y-94419731D02*
X135985160Y-94671191D01*
X135484780Y-95369691D02*
X135835300Y-95321431D01*
X135535580Y-96319651D02*
X135235860Y-96070731D01*
X135583840Y-97670931D02*
X136284880Y-96571111D01*
X135835300Y-95321431D02*
X136284880Y-95321431D01*
X135835300Y-96370451D02*
X135535580Y-96319651D01*
X135883560Y-95171571D02*
X134136040Y-94970911D01*
X135883560Y-98420231D02*
X135284120Y-98321171D01*
X135883560Y-98971411D02*
X136035960Y-98821551D01*
X135934800Y-93370511D02*
X135934800Y-93870891D01*
X135934800Y-93870891D02*
X136384380Y-93969951D01*
X135985160Y-94671191D02*
X136434740Y-94770251D01*
X136035960Y-98821551D02*
X136434740Y-98821551D01*
X136185820Y-96220591D02*
X135835300Y-96370451D01*
X136234520Y-92471351D02*
X135985600Y-92570411D01*
X136234520Y-93370511D02*
X135934800Y-93370511D01*
X136284880Y-95321431D02*
X136635400Y-95219831D01*
X136284880Y-96571111D02*
X136485540Y-96319651D01*
X136335680Y-97470271D02*
X136434740Y-97269611D01*
X136335680Y-98021451D02*
X135883560Y-98420231D01*
X136383940Y-96520311D02*
X136785260Y-96319651D01*
X136383940Y-98821551D02*
X136584600Y-98821551D01*
X136383940Y-99969631D02*
X135883560Y-98971411D01*
X136384380Y-93969951D02*
X136734900Y-93820091D01*
X136434740Y-94770251D02*
X137034180Y-94521331D01*
X136434740Y-97269611D02*
X136836060Y-97170551D01*
X136434740Y-97721731D02*
X136335680Y-97470271D01*
X136434740Y-100619871D02*
X136785260Y-100421751D01*
X136434740Y-101171051D02*
X136683660Y-101171051D01*
X136485540Y-96319651D02*
X137084980Y-96019931D01*
X136485540Y-98770751D02*
X136434740Y-98120511D01*
X136533800Y-95171571D02*
X135385720Y-94470531D01*
X136533800Y-99520051D02*
X136434740Y-99370191D01*
X136533800Y-99969631D02*
X136383940Y-99969631D01*
X136534240Y-92519611D02*
X136234520Y-92471351D01*
X136584600Y-98821551D02*
X136785260Y-98920611D01*
X136635400Y-95219831D02*
X137084980Y-94620391D01*
X136635400Y-95920871D02*
X136185820Y-96220591D01*
X136635400Y-101219311D02*
X136434740Y-101171051D01*
X136635400Y-102420731D02*
X136734460Y-102070211D01*
X136683660Y-101171051D02*
X136935120Y-101069451D01*
X136734460Y-102070211D02*
X136985920Y-101869551D01*
X136734460Y-102720451D02*
X136635400Y-102420731D01*
X136734900Y-93820091D02*
X136884760Y-93370511D01*
X136785260Y-96319651D02*
X137435500Y-96121531D01*
X136785260Y-98920611D02*
X136935120Y-98920611D01*
X136785260Y-100421751D02*
X136935120Y-100071231D01*
X136833960Y-92870131D02*
X136534240Y-92519611D01*
X136836060Y-97170551D02*
X136985920Y-97521071D01*
X136836060Y-103020171D02*
X136884320Y-103020171D01*
X136884320Y-95720211D02*
X136635400Y-95920871D01*
X136884320Y-97620131D02*
X136434740Y-97721731D01*
X136884320Y-103020171D02*
X136734460Y-102720451D01*
X136884760Y-93370511D02*
X136833960Y-92870131D01*
X136935120Y-98920611D02*
X137084980Y-98770751D01*
X136935120Y-100071231D02*
X136533800Y-99969631D01*
X136935120Y-101021191D02*
X137184040Y-101021191D01*
X136985920Y-100769731D02*
X136383940Y-100670671D01*
X136985920Y-101869551D02*
X137184040Y-101671431D01*
X137084980Y-95870071D02*
X137333900Y-95819271D01*
X137084980Y-96019931D02*
X137534560Y-95920871D01*
X137084980Y-98770751D02*
X137184040Y-98620891D01*
X137184040Y-95570351D02*
X136884320Y-95720211D01*
X137184040Y-101021191D02*
X137585360Y-100769731D01*
X137184040Y-101320911D02*
X136635400Y-101219311D01*
X137184040Y-101671431D02*
X137234840Y-101470771D01*
X137234840Y-98570091D02*
X137333900Y-98420231D01*
X137234840Y-101470771D02*
X137184040Y-101320911D01*
X137234840Y-102369931D02*
X137633620Y-102169271D01*
X137285640Y-99271131D02*
X137435500Y-99520051D01*
X137285640Y-102819511D02*
X137234840Y-102369931D01*
X137285640Y-103469751D02*
X137435500Y-103220831D01*
X137333900Y-98420231D02*
X137483760Y-98021451D01*
X137435500Y-99520051D02*
X137534560Y-99621651D01*
X137435500Y-100721471D02*
X136985920Y-100769731D01*
X137435500Y-103220831D02*
X137285640Y-102819511D01*
X137483760Y-98021451D02*
X137534560Y-97569331D01*
X137534560Y-95920871D02*
X137984140Y-96070731D01*
X137534560Y-96070731D02*
X137786020Y-96421251D01*
X137534560Y-99621651D02*
X137834280Y-99621651D01*
X137585360Y-95570351D02*
X137184040Y-95570351D01*
X137633620Y-98420231D02*
X137333900Y-98570091D01*
X137633620Y-102169271D02*
X137935880Y-101869551D01*
X137735220Y-98920611D02*
X137285640Y-99271131D01*
X137786020Y-96421251D02*
X138184800Y-96571111D01*
X137834280Y-99621651D02*
X138085740Y-99469251D01*
X137834280Y-104071731D02*
X138034940Y-103871071D01*
X137935880Y-98420231D02*
X137633620Y-98420231D01*
X137935880Y-100670671D02*
X137435500Y-100721471D01*
X137935880Y-101869551D02*
X137735220Y-101419971D01*
X137984140Y-96070731D02*
X138385460Y-95971671D01*
X137984140Y-102819511D02*
X138134000Y-102621391D01*
X138034940Y-103121771D02*
X137984140Y-102819511D01*
X138034940Y-103871071D02*
X138085740Y-103319891D01*
X138085740Y-95819271D02*
X137585360Y-95570351D01*
X138085740Y-98420231D02*
X137935880Y-98420231D01*
X138085740Y-99469251D02*
X138134000Y-99070471D01*
X138085740Y-103319891D02*
X138034940Y-103121771D01*
X138134000Y-99070471D02*
X137735220Y-98920611D01*
X138134000Y-102621391D02*
X138385460Y-102420731D01*
X138184800Y-97721731D02*
X138583580Y-97919851D01*
X138283860Y-95771011D02*
X138085740Y-95819271D01*
X138283860Y-98519291D02*
X138085740Y-98420231D01*
X138385460Y-95971671D02*
X138835040Y-95771011D01*
X138385460Y-100520811D02*
X137935880Y-100670671D01*
X138385460Y-102420731D02*
X138484520Y-102220071D01*
X138484520Y-97521071D02*
X138134000Y-97670931D01*
X138484520Y-98570091D02*
X138283860Y-98519291D01*
X138484520Y-102220071D02*
X138334660Y-101821291D01*
X138535320Y-100320151D02*
X138385460Y-100520811D01*
X138583200Y-92470971D02*
X138583200Y-93570791D01*
X138583200Y-93570791D02*
X138684800Y-93870511D01*
X138583580Y-95621151D02*
X138283860Y-95771011D01*
X138583580Y-97919851D02*
X138984900Y-97919851D01*
X138634380Y-95920871D02*
X138984900Y-95920871D01*
X138684800Y-93870511D02*
X138984520Y-94022911D01*
X138735980Y-99969631D02*
X138535320Y-100320151D01*
X138784240Y-103170031D02*
X138885840Y-102870311D01*
X138835040Y-95771011D02*
X139383680Y-95819271D01*
X138835040Y-103619611D02*
X139185560Y-103271631D01*
X138835040Y-104071731D02*
X138885840Y-103919331D01*
X138835040Y-104221591D02*
X138784240Y-104119991D01*
X138885840Y-99469251D02*
X138735980Y-99969631D01*
X138885840Y-102870311D02*
X139083960Y-102471531D01*
X138885840Y-103919331D02*
X138835040Y-103619611D01*
X138934100Y-97419471D02*
X138484520Y-97521071D01*
X138984520Y-94022911D02*
X139332500Y-93870511D01*
X138984900Y-95920871D02*
X139734200Y-96271391D01*
X138984900Y-97919851D02*
X139185560Y-97670931D01*
X139035700Y-94419731D02*
X139233820Y-94770251D01*
X139035700Y-96820031D02*
X139635140Y-97371211D01*
X139035700Y-99220331D02*
X138885840Y-99469251D01*
X139035700Y-102369931D02*
X139584340Y-101920351D01*
X139083960Y-95519551D02*
X138583580Y-95621151D01*
X139185560Y-97670931D02*
X138934100Y-97419471D01*
X139185560Y-103271631D02*
X138784240Y-103170031D01*
X139233820Y-94770251D02*
X139785000Y-95021711D01*
X139332500Y-93870511D02*
X139484900Y-93621591D01*
X139335420Y-99169531D02*
X139035700Y-99220331D01*
X139383680Y-95819271D02*
X139985660Y-96271391D01*
X139383680Y-101219311D02*
X139934860Y-100820531D01*
X139434480Y-94569591D02*
X139035700Y-94419731D01*
X139484900Y-93621591D02*
X139484900Y-92470971D01*
X139584340Y-95570351D02*
X139083960Y-95519551D01*
X139584340Y-101920351D02*
X139383680Y-101219311D01*
X139635140Y-97371211D02*
X139785000Y-98321171D01*
X139734200Y-96271391D02*
X140234580Y-96571111D01*
X139734200Y-100170291D02*
X140183780Y-99870571D01*
X139734200Y-102070211D02*
X139934860Y-102121011D01*
X139785000Y-95021711D02*
X140135520Y-94970911D01*
X139785000Y-98321171D02*
X140285380Y-98671691D01*
X139884060Y-94920111D02*
X140983880Y-94419731D01*
X139934860Y-100820531D02*
X139734200Y-100170291D01*
X139985660Y-96271391D02*
X140684160Y-96921631D01*
X140084720Y-94521331D02*
X139434480Y-94569591D01*
X140084720Y-99420991D02*
X140384440Y-98971411D01*
X140135520Y-94970911D02*
X140785760Y-95120771D01*
X140183400Y-92470971D02*
X140183400Y-93972111D01*
X140183400Y-93972111D02*
X141034300Y-92470971D01*
X140183780Y-95971671D02*
X139584340Y-95570351D01*
X140183780Y-99870571D02*
X140084720Y-99420991D01*
X140285380Y-98671691D02*
X141684920Y-99220331D01*
X140285380Y-101920351D02*
X140033920Y-102121011D01*
X140435240Y-101719691D02*
X140285380Y-101920351D01*
X140635900Y-96421251D02*
X140183780Y-95971671D01*
X140684160Y-96921631D02*
X141436000Y-98120511D01*
X140684160Y-101470771D02*
X140435240Y-101719691D01*
X140734960Y-101171051D02*
X140684160Y-101470771D01*
X140785760Y-95120771D02*
X141235340Y-95270631D01*
X140834020Y-100769731D02*
X140734960Y-101171051D01*
X140884820Y-100370951D02*
X140834020Y-100769731D01*
X140935620Y-95069971D02*
X141984640Y-94821051D01*
X140935620Y-98971411D02*
X140935620Y-99469251D01*
X140935620Y-99469251D02*
X140935620Y-99969631D01*
X140935620Y-99969631D02*
X140884820Y-100370951D01*
X140983880Y-94419731D02*
X140935620Y-95069971D01*
X140983880Y-96820031D02*
X140635900Y-96421251D01*
X141034300Y-92470971D02*
X141034300Y-94022911D01*
X141034680Y-94371471D02*
X140084720Y-94521331D01*
X141184540Y-98471031D02*
X141184540Y-97871591D01*
X141235340Y-95270631D02*
X141535060Y-95519551D01*
X141436000Y-94419731D02*
X141034680Y-94371471D01*
X141436000Y-96670171D02*
X140983880Y-96820031D01*
X141436000Y-98120511D02*
X142083700Y-97871591D01*
X141484260Y-95321431D02*
X142733940Y-95720211D01*
X141484260Y-96619371D02*
X141933840Y-97769991D01*
X141535060Y-95519551D02*
X141634120Y-96169791D01*
X141585860Y-95971671D02*
X142883800Y-96319651D01*
X141634120Y-96169791D02*
X141436000Y-96670171D01*
X141684920Y-99220331D02*
X141184540Y-98471031D01*
X141732800Y-93420931D02*
X141783600Y-93972111D01*
X141735720Y-96121531D02*
X142434220Y-97419471D01*
X141783600Y-93972111D02*
X142184920Y-93972111D01*
X141783980Y-94569591D02*
X141436000Y-94419731D01*
X141933840Y-97769991D02*
X140935620Y-96969891D01*
X141984260Y-92422711D02*
X141783600Y-92521771D01*
X141984260Y-93321871D02*
X141732800Y-93420931D01*
X141984640Y-94821051D02*
X141484260Y-95321431D01*
X142083700Y-97871591D02*
X142634880Y-97371211D01*
X142184920Y-93972111D02*
X142484640Y-93822251D01*
X142385960Y-94970911D02*
X141783980Y-94569591D01*
X142433840Y-92572571D02*
X141984260Y-92422711D01*
X142434220Y-97419471D02*
X141484260Y-96619371D01*
X142484640Y-93822251D02*
X142634500Y-93420931D01*
X142634500Y-92971351D02*
X142433840Y-92572571D01*
X142634500Y-93420931D02*
X142634500Y-92971351D01*
X142634880Y-97371211D02*
X142934600Y-96469511D01*
X142733940Y-95720211D02*
X141585860Y-95971671D01*
X142784740Y-96771771D02*
X141735720Y-96121531D01*
X142835540Y-95771011D02*
X142385960Y-94970911D01*
X142883800Y-96319651D02*
X142784740Y-96771771D01*
X142934600Y-96469511D02*
X142835540Y-95771011D01*
D15*
%TO.C,TP10*%
X171840982Y-121396393D02*
X173538038Y-119699337D01*
X173538038Y-119699337D02*
X175235094Y-121396393D01*
X173538038Y-123093449D02*
X171840982Y-121396393D01*
X175235094Y-121396393D02*
X173538038Y-123093449D01*
%TO.C,TP13*%
X168462304Y-124596071D02*
X170159360Y-122899015D01*
X170159360Y-122899015D02*
X171856416Y-124596071D01*
X170159360Y-126293127D02*
X168462304Y-124596071D01*
X171856416Y-124596071D02*
X170159360Y-126293127D01*
%TO.C,REF\u002A\u002A*%
X150894360Y-95596071D02*
X152294360Y-95596071D01*
X150894360Y-96996071D02*
X150894360Y-95596071D01*
X152294360Y-95596071D02*
X152294360Y-96996071D01*
X152294360Y-96996071D02*
X150894360Y-96996071D01*
%TO.C,TP12*%
X171837304Y-78871071D02*
X173534360Y-77174015D01*
X173534360Y-77174015D02*
X175231416Y-78871071D01*
X173534360Y-80568127D02*
X171837304Y-78871071D01*
X175231416Y-78871071D02*
X173534360Y-80568127D01*
%TD*%
M02*
